<svg width="16" height="17" viewBox="0 0 16 17" fill="none" xmlns="http://www.w3.org/2000/svg">
<g clip-path="url(#clip0_1767_2672)">
<path d="M9.85355 0.646447C9.94732 0.740215 10 0.867392 10 1C10 1.13261 10.0527 1.25979 10.1464 1.35355C10.2402 1.44732 10.3674 1.5 10.5 1.5C10.6326 1.5 10.7598 1.55268 10.8536 1.64645C10.9473 1.74021 11 1.86739 11 2V2.5C11 2.63261 10.9473 2.75979 10.8536 2.85355C10.7598 2.94732 10.6326 3 10.5 3H5.5C5.36739 3 5.24021 2.94732 5.14645 2.85355C5.05268 2.75979 5 2.63261 5 2.5V2C5 1.86739 5.05268 1.74021 5.14645 1.64645C5.24021 1.55268 5.36739 1.5 5.5 1.5C5.63261 1.5 5.75979 1.44732 5.85355 1.35355C5.94732 1.25979 6 1.13261 6 1C6 0.867392 6.05268 0.740215 6.14645 0.646447C6.24021 0.552678 6.36739 0.5 6.5 0.5H9.5C9.63261 0.5 9.75979 0.552678 9.85355 0.646447Z" fill="#A6B1D2"/>
<path d="M1 4C1 2.89543 1.89543 2 3 2H4C4.27614 2 4.5 2.22386 4.5 2.5C4.5 3.05228 4.94772 3.5 5.5 3.5H10.5C11.0523 3.5 11.5 3.05228 11.5 2.5C11.5 2.22386 11.7239 2 12 2H13C14.1046 2 15 2.89543 15 4V14C15 15.1046 14.1046 16 13 16H3C1.89543 16 1 15.1046 1 14V4Z" fill="#A6B1D2"/>
</g>
<defs>
<clipPath id="clip0_1767_2672">
<rect width="16" height="16" fill="white" transform="translate(0 0.5)"/>
</clipPath>
</defs>
</svg>
