<svg width="49" height="48" viewBox="0 0 49 48" fill="none" xmlns="http://www.w3.org/2000/svg">
<g clip-path="url(#clip0_1700_13901)">
<rect width="48" height="48" transform="translate(0.800049 0.000213623)" fill="white" fill-opacity="0.01"/>
<path fill-rule="evenodd" clip-rule="evenodd" d="M3.10857 8.90519L3.07511 8.93829C2.70398 9.30942 2.40711 9.74095 2.19409 10.2098L2.66057 11.0024L3.51524 9.62908L3.10857 8.90519ZM1.87872 11.2113C1.8306 11.4704 1.80591 11.7351 1.80591 12.0024V12.2585L2.52857 13.5438L1.80591 14.7072V15.6876L2.68057 14.3358L4.68057 17.5437L6.93124 14.4184L7.80591 15.7796V14.9047L7.79658 14.9198L6.96324 13.5024L7.79658 12.0237L7.80591 12.0404V11.2037L6.96191 12.7104L4.78324 9.39708L5.9762 7.67215C5.23822 7.69991 4.52461 7.91558 3.9004 8.29223L4.57258 9.37042L2.84724 12.5024L1.87872 11.2113ZM0.805908 17.2331V18.0998V20.4837V22.5544V26.3158V27.8851V30.2704V31.0371V36.0024C0.805908 37.4169 1.36781 38.7735 2.36801 39.7737C3.3682 40.7738 4.72475 41.3358 6.13924 41.3358H6.49658H7.35924H7.80591H8.80591V41.3321H38.7309H38.7849L38.8387 41.3282C41.2289 41.156 42.9582 40.7524 44.2611 40.1456C45.6064 39.519 46.421 38.7109 47.021 37.8819C47.0552 37.8347 47.0898 37.7872 47.1248 37.7392C47.5511 37.1541 48.0273 36.5006 48.3427 35.5005C48.6697 34.4636 48.8059 33.1365 48.8059 31.1274V29.0024V25.0024V23.5024V11.8913C48.8059 10.5947 48.244 9.35118 47.2438 8.43434C46.2436 7.51749 44.8871 6.67027 43.4726 6.67027H8.80591V6.66908H7.80591H6.89791H6.66991H6.13924C4.72475 6.66908 3.3682 7.23099 2.36801 8.23118C1.36781 9.23137 0.805908 10.5879 0.805908 12.0024V17.2331ZM1.80591 19.761V21.8601L2.01391 22.1464L3.88858 19.0637L2.61791 17.4184L2.18057 18.0024L2.76324 18.8144L1.95124 20.0024L1.80591 19.761ZM1.80591 24.6699V23.6465L2.15391 24.0971L1.80591 24.6699ZM1.80591 28.61V26.5076L2.01391 26.2211L3.88858 29.3037L2.83524 30.6691L2.61791 30.9504L2.40724 30.6691L2.18057 30.3664L2.76457 29.5544L1.95257 28.3664L1.80591 28.61ZM1.80591 33.6747V32.5621L2.72324 33.9611L4.58991 30.6691L4.66057 30.5437L4.73791 30.6691L6.88991 34.1477L7.80591 32.5242V33.4564L7.79658 33.4398L6.96324 34.9198L7.79658 36.3358L7.80591 36.3207V37.3517L6.78458 35.8358L4.78191 38.7304L5.83123 40.3248C5.17952 40.2784 4.55035 40.0854 3.98915 39.7647L4.57391 38.7037L2.68057 35.6691L1.89598 36.8814C1.84442 36.6325 1.81455 36.3781 1.80752 36.1208L2.52857 34.9611L1.80591 33.6747ZM8.80591 30.7517V30.2304V29.0024H45.8059V31.1274C45.8059 33.0559 45.6671 34.01 45.4816 34.5981C45.3169 35.1204 45.1065 35.4109 44.6461 36.0465L44.5908 36.1229C44.2408 36.6064 43.8054 37.0484 42.9945 37.4261C42.1481 37.8203 40.8296 38.1728 38.6762 38.3321H8.80591V30.7517ZM7.47258 28.3664L7.80591 28.9203V26.7674L7.40991 26.2224L5.53524 29.3051L6.58857 30.6691L6.80591 30.9504L7.01657 30.6691L7.24324 30.3664L6.65924 29.5544L7.47258 28.3664ZM7.80591 23.3824V24.9772L7.26324 24.0851L7.80591 23.3824ZM7.80591 19.3448V21.5173L7.34724 22.1491L5.47258 19.0651L6.74324 17.4197L7.18058 18.0024L6.59657 18.8144L7.40991 20.0024L7.80591 19.3448ZM7.57157 7.66908L7.80591 8.01694V7.66908H7.57157ZM6.84324 40.3358L7.69791 38.9611L6.84324 37.4397L6.00991 38.9198L6.84324 40.3358ZM3.31306 39.2873L3.51524 38.9624L2.66057 37.4411L2.31883 38.0475C2.51776 38.4191 2.7716 38.763 3.07511 39.0665C3.15191 39.1433 3.2313 39.217 3.31306 39.2873ZM6.84324 11.0024L7.69658 9.62775L6.84324 8.10775L6.00991 9.58642L6.84324 11.0024ZM6.51924 22.7104V25.2811L4.65924 28.2184L2.90724 25.2691V22.7251L4.65924 19.7744L6.51924 22.7104ZM4.31124 23.8878L3.51391 22.4331L4.09791 22.1131L4.69124 23.1944L5.28457 22.1131L5.86858 22.4331L5.07124 23.8878L5.86858 25.3424L5.28457 25.6624L4.69124 24.5811L4.09791 25.6624L3.51391 25.3424L4.31124 23.8878ZM3.69524 36.3358L2.86191 34.9198L3.69524 33.4398L4.54857 34.9611L3.69524 36.3358ZM5.67391 36.3358L4.84058 34.9198L5.67391 33.4398L6.52857 34.9611L5.67391 36.3358ZM3.69524 14.9198L2.86191 13.5024L3.69524 12.0237L4.54857 13.5438L3.69524 14.9198ZM5.67391 14.9198L4.84058 13.5024L5.67391 12.0237L6.52857 13.5438L5.67391 14.9198Z" fill="#CCD3E7"/>
</g>
<defs>
<clipPath id="clip0_1700_13901">
<rect width="48" height="48" fill="white" transform="translate(0.800049 0.000213623)"/>
</clipPath>
</defs>
</svg>
