<svg width="16" height="17" viewBox="0 0 16 17" fill="none" xmlns="http://www.w3.org/2000/svg">
<g clip-path="url(#clip0_1767_2678)">
<path fill-rule="evenodd" clip-rule="evenodd" d="M0.439343 1.93934C0.158038 2.22064 3.00629e-06 2.60218 3.00629e-06 3V14C-0.000391466 14.1968 0.0380385 14.3918 0.113093 14.5738C0.188148 14.7558 0.298354 14.9212 0.437402 15.0605C0.576451 15.1998 0.741612 15.3103 0.923432 15.3858C1.10525 15.4612 1.30016 15.5 1.497 15.5H14.5C14.8978 15.5 15.2794 15.342 15.5607 15.0607C15.842 14.7794 16 14.3978 16 14V5C16 4.86739 15.9473 4.74021 15.8536 4.64645C15.7598 4.55268 15.6326 4.5 15.5 4.5C15.3674 4.5 15.2402 4.55268 15.1464 4.64645C15.0527 4.74021 15 4.86739 15 5V14C15 14.1326 14.9473 14.2598 14.8536 14.3536C14.7598 14.4473 14.6326 14.5 14.5 14.5H13.762C13.95 14.182 14 13.828 14 13.528V3C14 2.60218 13.842 2.22064 13.5607 1.93934C13.2794 1.65804 12.8978 1.5 12.5 1.5H1.5C1.10218 1.5 0.720647 1.65804 0.439343 1.93934ZM12 3.5H2V5.5H12V3.5ZM6 6.5H2V9.5H6V6.5ZM6 10.5H2V11.5H6V10.5ZM6 12.5H2V13.5H6V12.5ZM9 6.5H7V7.5H9V6.5ZM12 6.5H10V7.5H12V6.5ZM9 8.5H7V9.5H9V8.5ZM12 8.5H10V9.5H12V8.5ZM9 10.5H7V11.5H9V10.5ZM12 10.5H10V11.5H12V10.5ZM9 12.5H7V13.5H9V12.5ZM12 12.5H10V13.5H12V12.5Z" fill="#A6B1D2"/>
</g>
<defs>
<clipPath id="clip0_1767_2678">
<rect width="16" height="16" fill="white" transform="translate(0 0.5)"/>
</clipPath>
</defs>
</svg>
