<svg width="48" height="48" viewBox="0 0 48 48" fill="none" xmlns="http://www.w3.org/2000/svg">
<g clip-path="url(#clip0_1002_3817)">
<rect width="48" height="48" fill="white" fill-opacity="0.01"/>
<path d="M45.2062 2.80217C46.127 3.89055 46.2526 5.4394 45.5829 7.44871C44.9131 9.45802 43.783 11.258 42.1924 12.8487L37.138 17.9034L42.161 39.7547C42.2656 40.1524 42.1401 40.4977 41.7843 40.7908L37.7659 43.8047C37.6194 43.9303 37.4206 43.9931 37.1694 43.9931C37.0857 43.9931 37.0125 43.9826 36.9497 43.9617C36.6357 43.8989 36.416 43.7315 36.2904 43.4594L27.5316 27.5104L19.4007 35.6419L21.0646 41.7326C21.1692 42.0884 21.0855 42.4129 20.8134 42.7059L17.7996 45.7199C17.6113 45.9082 17.3706 46.0024 17.0776 46.0024H17.0148C16.7009 45.9606 16.4497 45.8245 16.2614 45.5943L10.328 37.6826L2.41683 31.7488C2.18661 31.6023 2.05057 31.3616 2.00871 31.0267C1.98778 30.7547 2.08196 30.493 2.29125 30.2419L5.30503 27.1965C5.49339 27.0081 5.73407 26.9139 6.02708 26.9139C6.15265 26.9139 6.23637 26.9244 6.27823 26.9453L12.3686 28.6093L20.4995 20.4779L4.55159 11.7185C4.25858 11.5511 4.08068 11.2999 4.0179 10.965C3.97604 10.6301 4.07022 10.3476 4.30044 10.1173L8.3188 6.0987C8.61181 5.82661 8.92575 5.74289 9.26061 5.84754L30.1373 10.8394L35.1602 5.81614C36.7508 4.22544 38.5507 3.0952 40.5599 2.42543C42.5691 1.75565 44.1178 1.88124 45.2062 2.80217Z" fill="#CCD3E7"/>
</g>
<defs>
<clipPath id="clip0_1002_3817">
<rect width="48" height="48" fill="white"/>
</clipPath>
</defs>
</svg>
