<svg width="16" height="17" viewBox="0 0 16 17" fill="none" xmlns="http://www.w3.org/2000/svg">
<path d="M3.68 2.26L2.64 3.64667C2.43401 3.92132 2.33102 4.05865 2.33341 4.1736C2.33549 4.27363 2.38239 4.36744 2.46117 4.42912C2.55169 4.5 2.72335 4.5 3.06667 4.5H12.9333C13.2766 4.5 13.4483 4.5 13.5388 4.42912C13.6176 4.36744 13.6645 4.27363 13.6666 4.1736C13.669 4.05865 13.566 3.92132 13.36 3.64667L12.32 2.26M3.68 2.26C3.79733 2.10356 3.856 2.02534 3.93035 1.96892C3.9962 1.91895 4.07077 1.88167 4.15026 1.85897C4.24 1.83333 4.33778 1.83333 4.53333 1.83333H11.4667C11.6622 1.83333 11.76 1.83333 11.8497 1.85897C11.9292 1.88167 12.0038 1.91895 12.0697 1.96892C12.144 2.02534 12.2027 2.10356 12.32 2.26M3.68 2.26L2.42667 3.93111C2.26836 4.14219 2.18921 4.24773 2.133 4.36395C2.08312 4.46708 2.04675 4.57621 2.02477 4.68864C2 4.81534 2 4.94727 2 5.21111L2 13.0333C2 13.7801 2 14.1534 2.14532 14.4387C2.27316 14.6895 2.47713 14.8935 2.72801 15.0213C3.01323 15.1667 3.3866 15.1667 4.13333 15.1667L11.8667 15.1667C12.6134 15.1667 12.9868 15.1667 13.272 15.0213C13.5229 14.8935 13.7268 14.6895 13.8547 14.4387C14 14.1534 14 13.7801 14 13.0333V5.21111C14 4.94727 14 4.81534 13.9752 4.68864C13.9533 4.57621 13.9169 4.46708 13.867 4.36395C13.8108 4.24773 13.7316 4.14219 13.5733 3.93111L12.32 2.26" stroke="#A6B1D2" stroke-linecap="round" stroke-linejoin="round"/>
<path fill-rule="evenodd" clip-rule="evenodd" d="M14 5H2V15H14V5ZM5.83301 7.16602C5.83301 6.88987 5.60915 6.66602 5.33301 6.66602C5.05687 6.66602 4.83301 6.88987 4.83301 7.16602C4.83301 8.00587 5.16664 8.81132 5.7605 9.40519C6.35437 9.99905 7.15982 10.3327 7.99967 10.3327C8.83953 10.3327 9.64498 9.99905 10.2388 9.40519C10.8327 8.81132 11.1663 8.00587 11.1663 7.16602C11.1663 6.88987 10.9425 6.66602 10.6663 6.66602C10.3902 6.66602 10.1663 6.88987 10.1663 7.16602C10.1663 7.74065 9.93807 8.29175 9.53174 8.69808C9.12541 9.10441 8.57431 9.33268 7.99967 9.33268C7.42504 9.33268 6.87394 9.10441 6.46761 8.69808C6.06128 8.29175 5.83301 7.74065 5.83301 7.16602Z" fill="#A6B1D2"/>
</svg>
