<svg width="16" height="17" viewBox="0 0 16 17" fill="none" xmlns="http://www.w3.org/2000/svg">
<g clip-path="url(#clip0_1767_2698)">
<path fill-rule="evenodd" clip-rule="evenodd" d="M5.86699 1.83301H10.1337C11.2538 1.83301 11.8138 1.83301 12.2416 2.05099C12.618 2.24274 12.9239 2.5487 13.1157 2.92503C13.3337 3.35285 13.3337 3.9129 13.3337 5.03301V11.9005C13.3337 13.1011 12.3604 14.0743 11.1598 14.0743C11.1598 14.1598 11.1598 14.2025 11.1572 14.2386C11.1214 14.7339 10.7274 15.1279 10.232 15.1637C10.196 15.1663 10.1533 15.1663 10.0678 15.1663H6.5H5.86699C4.74689 15.1663 4.18683 15.1663 3.75901 14.9484C3.38269 14.7566 3.07673 14.4506 2.88498 14.0743C2.66699 13.6465 2.66699 13.0864 2.66699 11.9663V5.03301C2.66699 3.9129 2.66699 3.35285 2.88498 2.92503C3.07673 2.5487 3.38269 2.24274 3.75901 2.05099C4.18683 1.83301 4.74689 1.83301 5.86699 1.83301ZM5.33398 4.66602C5.05784 4.66602 4.83398 4.88987 4.83398 5.16602C4.83398 5.44216 5.05784 5.66602 5.33398 5.66602H10.6673C10.9435 5.66602 11.1673 5.44216 11.1673 5.16602C11.1673 4.88987 10.9435 4.66602 10.6673 4.66602H5.33398ZM5.33398 7.33268C5.05784 7.33268 4.83398 7.55654 4.83398 7.83268C4.83398 8.10882 5.05784 8.33268 5.33398 8.33268H9.33398C9.61013 8.33268 9.83398 8.10882 9.83398 7.83268C9.83398 7.55654 9.61013 7.33268 9.33398 7.33268H5.33398ZM5.33398 9.99935C5.05784 9.99935 4.83398 10.2232 4.83398 10.4993C4.83398 10.7755 5.05784 10.9993 5.33398 10.9993H6.66732C6.94346 10.9993 7.16732 10.7755 7.16732 10.4993C7.16732 10.2232 6.94346 9.99935 6.66732 9.99935H5.33398Z" fill="#A6B1D2"/>
<path d="M7.84738 14.5123L8.19221 14.1503L7.84738 14.5123L9.59738 16.179C10.0468 16.607 10.7657 16.607 11.2151 16.179L15.1526 12.429C15.6158 11.9879 15.6158 11.2621 15.1526 10.821C14.7032 10.393 13.9843 10.393 13.5349 10.821L10.4063 13.8006L9.46512 12.9043C9.01573 12.4763 8.29677 12.4763 7.84738 12.9043C7.38421 13.3454 7.38421 14.0712 7.84738 14.5123Z" fill="#A6B1D2" stroke="white" stroke-linecap="round" stroke-linejoin="round"/>
</g>
<defs>
<clipPath id="clip0_1767_2698">
<rect width="16" height="16" fill="white" transform="translate(0 0.5)"/>
</clipPath>
</defs>
</svg>
