<svg width="16" height="16" viewBox="0 0 16 16" fill="none" xmlns="http://www.w3.org/2000/svg">
    <g clip-path="url(#clip0_284_75)">
        <path d="M1.99976 3.99915C1.99976 3.46871 2.21047 2.96 2.58554 2.58493C2.96061 2.20986 3.46932 1.99915 3.99976 1.99915H9.99976C10.5302 1.99915 11.0389 2.20986 11.414 2.58493C11.789 2.96 11.9998 3.46871 11.9998 3.99915V15.4991C11.9997 15.5896 11.9751 15.6783 11.9286 15.7559C11.8822 15.8335 11.8155 15.897 11.7358 15.9397C11.656 15.9824 11.5662 16.0026 11.4759 15.9983C11.3855 15.994 11.298 15.9653 11.2228 15.9151L6.99976 13.1001L2.77676 15.9151C2.70146 15.9653 2.61399 15.994 2.52365 15.9983C2.43331 16.0026 2.34349 15.9824 2.26376 15.9397C2.18402 15.897 2.11736 15.8335 2.07087 15.7559C2.02438 15.6783 1.9998 15.5896 1.99976 15.4991V3.99915Z"
              fill="#487CFB"/>
        <path d="M4.26776 0.999146C4.44329 0.695115 4.69576 0.442644 4.99978 0.267107C5.30381 0.0915712 5.64869 -0.000845574 5.99976 -0.000854492H11.9998C12.5302 -0.000854492 13.0389 0.209859 13.414 0.584932C13.789 0.960005 13.9998 1.46871 13.9998 1.99915V13.4991C13.9997 13.5896 13.9751 13.6783 13.9286 13.7559C13.8822 13.8335 13.8155 13.897 13.7358 13.9397C13.656 13.9824 13.5662 14.0026 13.4759 13.9983C13.3855 13.994 13.298 13.9653 13.2228 13.9151L12.9998 13.7671V1.99915C12.9998 1.73393 12.8944 1.47958 12.7069 1.29204C12.5193 1.1045 12.265 0.999146 11.9998 0.999146H4.26776Z"
              fill="#487CFB"/>
    </g>
    <defs>
        <clipPath id="clip0_284_75">
            <rect width="16" height="16" fill="white"/>
        </clipPath>
    </defs>
</svg>
