<svg width="49" height="48" viewBox="0 0 49 48" fill="none" xmlns="http://www.w3.org/2000/svg">
<g clip-path="url(#clip0_1700_13831)">
<rect width="48" height="48" transform="translate(0.200012 0.000213623)" fill="white" fill-opacity="0.01"/>
<path d="M44.7392 20.3068H42.7592L37.6662 8.75785C37.4357 8.23533 37.0598 7.7914 36.5841 7.47982C36.1084 7.16825 35.5532 7.00242 34.9859 7.00241H13.4259C12.8585 7.00242 12.3034 7.16825 11.8276 7.47982C11.3519 7.7914 10.976 8.23533 10.7455 8.75785L5.65254 20.3068H3.67254C3.28355 20.3068 2.9105 20.4625 2.63545 20.7397C2.36039 21.017 2.20587 21.393 2.20587 21.785C2.20587 22.1771 2.36039 22.5531 2.63545 22.8303C2.9105 23.1075 3.28355 23.2633 3.67254 23.2633H5.1392V38.0459C5.1392 38.83 5.44825 39.582 5.99836 40.1365C6.54846 40.6909 7.29457 41.0024 8.07254 41.0024H12.4725C13.2505 41.0024 13.9966 40.6909 14.5467 40.1365C15.0968 39.582 15.4059 38.83 15.4059 38.0459V36.5676H33.0059V38.0459C33.0059 38.83 33.3149 39.582 33.865 40.1365C34.4151 40.6909 35.1612 41.0024 35.9392 41.0024H40.3392C41.1172 41.0024 41.8633 40.6909 42.4134 40.1365C42.9635 39.582 43.2725 38.83 43.2725 38.0459V23.2633H44.7392C45.1282 23.2633 45.5012 23.1075 45.7763 22.8303C46.0513 22.5531 46.2059 22.1771 46.2059 21.785C46.2059 21.393 46.0513 21.017 45.7763 20.7397C45.5012 20.4625 45.1282 20.3068 44.7392 20.3068ZM15.4059 29.1763H11.0059C10.6169 29.1763 10.2438 29.0206 9.96878 28.7434C9.69373 28.4661 9.53921 28.0901 9.53921 27.6981C9.53921 27.306 9.69373 26.93 9.96878 26.6528C10.2438 26.3755 10.6169 26.2198 11.0059 26.2198H15.4059C15.7949 26.2198 16.1679 26.3755 16.443 26.6528C16.718 26.93 16.8725 27.306 16.8725 27.6981C16.8725 28.0901 16.718 28.4661 16.443 28.7434C16.1679 29.0206 15.7949 29.1763 15.4059 29.1763ZM37.4059 29.1763H33.0059C32.6169 29.1763 32.2438 29.0206 31.9688 28.7434C31.6937 28.4661 31.5392 28.0901 31.5392 27.6981C31.5392 27.306 31.6937 26.93 31.9688 26.6528C32.2438 26.3755 32.6169 26.2198 33.0059 26.2198H37.4059C37.7949 26.2198 38.1679 26.3755 38.443 26.6528C38.718 26.93 38.8725 27.306 38.8725 27.6981C38.8725 28.0901 38.718 28.4661 38.443 28.7434C38.1679 29.0206 37.7949 29.1763 37.4059 29.1763ZM8.86271 20.3068L13.4259 9.95893H34.9859L39.549 20.3068H8.86271Z" fill="#CCD3E7"/>
</g>
<defs>
<clipPath id="clip0_1700_13831">
<rect width="48" height="48" fill="white" transform="translate(0.200012 0.000213623)"/>
</clipPath>
</defs>
</svg>
