<svg width="25" height="25" viewBox="0 0 25 25" fill="none" xmlns="http://www.w3.org/2000/svg">
<path fill-rule="evenodd" clip-rule="evenodd" d="M3.43422 3.43448C2.55554 4.31316 2.55554 5.72737 2.55554 8.5558V16.5558C2.55554 19.3842 2.55554 20.7984 3.43422 21.6771C4.3129 22.5558 5.72711 22.5558 8.55554 22.5558H16.5555C19.384 22.5558 20.7982 22.5558 21.6769 21.6771C22.5555 20.7984 22.5555 19.3842 22.5555 16.5558V8.5558C22.5555 5.72737 22.5555 4.31316 21.6769 3.43448C20.7982 2.5558 19.384 2.5558 16.5555 2.5558H8.55554C5.72711 2.5558 4.3129 2.5558 3.43422 3.43448ZM19.3876 8.1105C19.6939 7.65097 19.5698 7.0301 19.1102 6.72375C18.6507 6.4174 18.0298 6.54157 17.7235 7.0011L13.6793 13.2845L13.2206 12.367C12.5338 10.9935 10.6195 10.8743 9.76764 12.152L5.72349 18.0011C5.41714 18.4606 5.54131 19.0815 6.00084 19.3879C6.46037 19.6942 7.08124 19.57 7.38759 19.1105L11.4317 13.2614L11.8905 14.1789C12.5772 15.5524 14.4916 15.6716 15.3434 14.3939L19.3876 8.1105Z" fill="#487CFB"/>
</svg>
