<svg width="24" height="24" viewBox="0 0 24 24" fill="none" xmlns="http://www.w3.org/2000/svg">
<path d="M7 22.0005V11.0005M2 13.0005V20.0005C2 21.1051 2.89543 22.0005 4 22.0005H17.4262C18.907 22.0005 20.1662 20.9202 20.3914 19.4567L21.4683 12.4567C21.7479 10.6394 20.3418 9.00049 18.5032 9.00049H15C14.4477 9.00049 14 8.55277 14 8.00049V4.46633C14 3.10448 12.896 2.00049 11.5342 2.00049C11.2093 2.00049 10.915 2.19178 10.7831 2.48861L7.26394 10.4066C7.10344 10.7678 6.74532 11.0005 6.35013 11.0005H4C2.89543 11.0005 2 11.8959 2 13.0005Z" stroke="#487CFB" stroke-width="2" stroke-linecap="round" stroke-linejoin="round"/>
</svg>
