<svg width="16" height="16" viewBox="0 0 16 16" fill="none" xmlns="http://www.w3.org/2000/svg">
    <g clip-path="url(#clip0_284_82)">
        <rect width="16" height="16" fill="white" fill-opacity="0.01"/>
        <g clip-path="url(#clip1_284_82)">
            <path fill-rule="evenodd" clip-rule="evenodd"
                  d="M8.47976 10.9001C11.2108 10.2261 12.9998 7.83615 12.9998 4.99915C12.9998 3.67306 12.473 2.40129 11.5353 1.46361C10.5976 0.52593 9.32584 -0.000854492 7.99976 -0.000854492C6.67367 -0.000854492 5.4019 0.52593 4.46422 1.46361C3.52654 2.40129 2.99976 3.67306 2.99976 4.99915C2.99976 7.83615 4.78876 10.2261 7.51976 10.9001L7.27576 11.3871C7.26105 11.4166 7.25228 11.4486 7.24995 11.4814C7.24761 11.5142 7.25177 11.5471 7.26217 11.5783C7.28317 11.6414 7.32835 11.6934 7.38776 11.7231C7.44716 11.7528 7.51594 11.7577 7.57895 11.7367C7.64196 11.7157 7.69405 11.6706 7.72376 11.6111L7.76376 11.5311C7.77276 11.7011 7.78776 11.8461 7.81476 11.9811C7.88276 12.3251 8.02276 12.6031 8.26276 13.0831L8.27576 13.1111C8.48776 13.5331 8.45776 13.9611 8.32576 14.3571C8.19076 14.7591 7.95976 15.1081 7.79176 15.3601C7.75489 15.4153 7.74145 15.4829 7.75439 15.5479C7.76733 15.613 7.80559 15.6703 7.86076 15.7071C7.91592 15.744 7.98347 15.7575 8.04855 15.7445C8.11362 15.7316 8.17089 15.6933 8.20776 15.6381L8.21176 15.6311C8.37776 15.3831 8.64276 14.9851 8.79976 14.5161C8.95976 14.0371 9.01176 13.4651 8.72376 12.8871C8.46576 12.3721 8.35876 12.1551 8.30476 11.8831C8.28652 11.7877 8.27417 11.6911 8.26776 11.5941L8.27576 11.6111C8.30546 11.6706 8.35755 11.7157 8.42056 11.7367C8.48357 11.7577 8.55235 11.7528 8.61176 11.7231C8.67116 11.6934 8.71634 11.6414 8.73734 11.5783C8.75835 11.5153 8.75346 11.4466 8.72376 11.3871L8.47976 10.9001ZM4.35176 3.35515C4.63386 2.73037 5.07166 2.18848 5.62321 1.78139C6.17476 1.37429 6.82159 1.11562 7.50176 1.03015C7.77376 0.996146 7.99976 1.22315 7.99976 1.49915C7.99976 1.77515 7.77376 1.99515 7.50176 2.04115C6.55176 2.20315 5.75276 2.82115 5.32876 3.65815C5.28196 3.75741 5.20862 3.8418 5.11685 3.90198C5.02508 3.96216 4.91845 3.99579 4.80876 3.99915C4.46276 3.99915 4.20976 3.67015 4.35176 3.35515Z"
                  fill="#487CFB"/>
        </g>
    </g>
    <defs>
        <clipPath id="clip0_284_82">
            <rect width="16" height="16" fill="white"/>
        </clipPath>
        <clipPath id="clip1_284_82">
            <rect width="16" height="16" fill="white"/>
        </clipPath>
    </defs>
</svg>
