<svg width="73" height="72" viewBox="0 0 73 72" fill="none" xmlns="http://www.w3.org/2000/svg">
<path d="M0.400024 36C0.400024 16.1178 16.5178 0 36.4 0C56.2823 0 72.4 16.1178 72.4 36C72.4 55.8823 56.2823 72 36.4 72C16.5178 72 0.400024 55.8823 0.400024 36Z" fill="#F5F7FC"/>
<g clip-path="url(#clip0_1339_14507)">
<rect width="32" height="32" transform="translate(20.4 20)" fill="white" fill-opacity="0.01"/>
<path d="M23.4039 24.0015C22.6083 24.0015 21.8452 24.3175 21.2826 24.8801C20.72 25.4428 20.4039 26.2058 20.4039 27.0015V31.0015H32.4039C32.6691 31.0015 32.9235 31.1068 33.111 31.2944C33.2986 31.4819 33.4039 31.7362 33.4039 32.0015C33.4039 32.5075 33.5639 33.2895 34.0159 33.9175C34.4299 34.4935 35.1299 35.0015 36.4039 35.0015C37.6779 35.0015 38.3779 34.4935 38.7919 33.9175C39.2439 33.2895 39.4039 32.5075 39.4039 32.0015C39.4039 31.7362 39.5093 31.4819 39.6968 31.2944C39.8844 31.1068 40.1387 31.0015 40.4039 31.0015H52.4039V27.0015C52.4039 26.2058 52.0879 25.4428 51.5253 24.8801C50.9626 24.3175 50.1996 24.0015 49.4039 24.0015H23.4039Z" fill="#487CFB"/>
<path d="M52.4039 33.0015H41.3019C41.1585 33.7513 40.8564 34.4619 40.4159 35.0855C39.6299 36.1775 38.3299 37.0015 36.4039 37.0015C34.4779 37.0015 33.1779 36.1775 32.3919 35.0855C31.9515 34.4619 31.6494 33.7513 31.5059 33.0015H20.4039V45.0015C20.4039 45.7971 20.72 46.5602 21.2826 47.1228C21.8452 47.6854 22.6083 48.0015 23.4039 48.0015H49.4039C50.1996 48.0015 50.9626 47.6854 51.5253 47.1228C52.0879 46.5602 52.4039 45.7971 52.4039 45.0015V33.0015Z" fill="#487CFB"/>
</g>
<defs>
<clipPath id="clip0_1339_14507">
<rect width="32" height="32" fill="white" transform="translate(20.4 20)"/>
</clipPath>
</defs>
</svg>
