<svg width="16" height="17" viewBox="0 0 16 17" fill="none" xmlns="http://www.w3.org/2000/svg">
<path d="M3.14668 1.39146C2.9269 1.17441 2.57351 1.17425 2.35352 1.39108C2.12922 1.61217 2.12914 1.97401 2.35333 2.1952L2.74628 2.58288C2.96615 2.7998 3.31953 2.79976 3.53935 2.58279C3.76325 2.36178 3.76329 2.00039 3.53944 1.77933L3.14668 1.39146ZM13.6468 1.39169C13.427 1.17455 13.0735 1.17445 12.8535 1.39145L12.4606 1.77914C12.2365 2.00025 12.2365 2.36194 12.4606 2.58302C12.6805 2.79989 13.0338 2.79987 13.2536 2.58297L13.6466 2.19529C13.8706 1.97429 13.8707 1.61282 13.6468 1.39169ZM8 1.35196C7.81143 1.35347 7.62095 1.3655 7.42857 1.38806H7.41143C5.09371 1.65034 3.24914 3.49871 2.92857 5.77631C2.67257 7.60945 3.43829 9.27168 4.71429 10.3422C5.23616 10.782 5.71429 11.4868 5.71429 12.0513C5.71429 12.4312 5.71429 13.833 5.71429 14.7088C5.71429 15.1106 6.04003 15.4355 6.44185 15.4355C6.69922 15.4355 6.93339 15.5841 7.14562 15.7298C7.39095 15.8981 7.71824 16 8 16C8.28176 16 8.60905 15.8981 8.85438 15.7298C9.06661 15.5841 9.30078 15.4355 9.55815 15.4355C9.95998 15.4355 10.2857 15.1106 10.2857 14.7088C10.2857 13.8328 10.2857 12.4307 10.2857 12.0513C10.2857 11.4877 10.7749 10.8487 11.4823 10.2007C12.4286 9.26548 13.1429 7.93716 13.1429 6.41142C13.1429 3.62505 10.8194 1.32602 8 1.35196ZM0.564042 6.41142C0.25253 6.41142 0 6.66395 0 6.97546C0 7.28698 0.25253 7.53951 0.564042 7.53951H1.15024C1.46176 7.53951 1.71429 7.28698 1.71429 6.97546C1.71429 6.66395 1.46176 6.41142 1.15024 6.41142H0.564042ZM14.8498 6.41142C14.5382 6.41142 14.2857 6.66395 14.2857 6.97546C14.2857 7.28698 14.5382 7.53951 14.8498 7.53951H15.436C15.7475 7.53951 16 7.28698 16 6.97546C16 6.66395 15.7475 6.41142 15.436 6.41142H14.8498ZM3.53925 11.3683C3.31951 11.1513 2.9661 11.1512 2.74623 11.3681L2.35356 11.7555C2.12951 11.9766 2.12947 12.3381 2.35347 12.5592C2.57342 12.7764 2.92706 12.7763 3.14692 12.5591L3.5393 12.1714C3.76295 11.9504 3.76293 11.5893 3.53925 11.3683ZM13.2537 11.368C13.0339 11.1511 12.6805 11.1512 12.4607 11.3681C12.2368 11.5892 12.2367 11.9505 12.4606 12.1716L12.853 12.5592C13.0729 12.7763 13.4265 12.7764 13.6465 12.5593C13.8705 12.3382 13.8705 11.9765 13.6464 11.7555L13.2537 11.368ZM6.85714 13.744C6.85714 13.4325 7.10967 13.1799 7.42119 13.1799H8.57882C8.89033 13.1799 9.14286 13.4325 9.14286 13.744C9.14286 14.0555 8.89033 14.308 8.57882 14.308H7.42119C7.10967 14.308 6.85714 14.0555 6.85714 13.744Z" fill="#A6B1D2"/>
</svg>
