<svg width="24" height="24" viewBox="0 0 24 24" fill="none" xmlns="http://www.w3.org/2000/svg">
<path d="M5 10.0005V16.0116C5 16.3706 5 16.5501 5.05465 16.7085C5.10299 16.8486 5.18187 16.9763 5.28558 17.0822C5.40287 17.2019 5.5634 17.2822 5.88446 17.4427L11.2845 20.1427C11.5468 20.2739 11.678 20.3395 11.8156 20.3653C11.9375 20.3882 12.0625 20.3882 12.1844 20.3653C12.322 20.3395 12.4532 20.2739 12.7155 20.1427L18.1155 17.4427C18.4366 17.2822 18.5971 17.2019 18.7144 17.0822C18.8181 16.9763 18.897 16.8486 18.9453 16.7085C19 16.5501 19 16.3706 19 16.0116V10.0005M2 8.50048L11.6422 3.67937C11.7734 3.61378 11.839 3.58098 11.9078 3.56808C11.9687 3.55664 12.0313 3.55664 12.0922 3.56808C12.161 3.58098 12.2266 3.61378 12.3578 3.67937L22 8.50048L12.3578 13.3216C12.2266 13.3872 12.161 13.42 12.0922 13.4329C12.0313 13.4443 11.9687 13.4443 11.9078 13.4329C11.839 13.42 11.7734 13.3872 11.6422 13.3216L2 8.50048Z" stroke="#487CFB" stroke-width="2" stroke-linecap="round" stroke-linejoin="round"/>
</svg>
