<svg width="16" height="17" viewBox="0 0 16 17" fill="none" xmlns="http://www.w3.org/2000/svg">
<g clip-path="url(#clip0_1767_2634)">
<rect width="16" height="16" transform="translate(0 0.5)" fill="white" fill-opacity="0.01"/>
<path d="M2.00195 2.50073C2.00195 1.9703 2.21267 1.46159 2.58774 1.08652C2.96281 0.711446 3.47152 0.500732 4.00195 0.500732H12.002C12.5324 0.500732 13.0411 0.711446 13.4162 1.08652C13.7912 1.46159 14.002 1.9703 14.002 2.50073V14.5007C14.002 15.0312 13.7912 15.5399 13.4162 15.9149C13.0411 16.29 12.5324 16.5007 12.002 16.5007H4.00195C3.47152 16.5007 2.96281 16.29 2.58774 15.9149C2.21267 15.5399 2.00195 15.0312 2.00195 14.5007V2.50073ZM6.50195 2.50073C6.36934 2.50073 6.24217 2.55341 6.1484 2.64718C6.05463 2.74095 6.00195 2.86812 6.00195 3.00073C6.00195 3.13334 6.05463 3.26052 6.1484 3.35429C6.24217 3.44805 6.36934 3.50073 6.50195 3.50073H9.50195C9.63456 3.50073 9.76174 3.44805 9.85551 3.35429C9.94928 3.26052 10.002 3.13334 10.002 3.00073C10.002 2.86812 9.94928 2.74095 9.85551 2.64718C9.76174 2.55341 9.63456 2.50073 9.50195 2.50073H6.50195ZM8.00195 11.5007C8.7976 11.5007 9.56066 11.1847 10.1233 10.6221C10.6859 10.0594 11.002 9.29638 11.002 8.50073C11.002 7.70508 10.6859 6.94202 10.1233 6.37941C9.56066 5.8168 8.7976 5.50073 8.00195 5.50073C7.2063 5.50073 6.44324 5.8168 5.88063 6.37941C5.31802 6.94202 5.00195 7.70508 5.00195 8.50073C5.00195 9.29638 5.31802 10.0594 5.88063 10.6221C6.44324 11.1847 7.2063 11.5007 8.00195 11.5007V11.5007ZM13.002 14.2557C12.148 13.3257 10.625 12.5007 8.00195 12.5007C5.37895 12.5007 3.85595 13.3267 3.00195 14.2557V14.5007C3.00195 14.7659 3.10731 15.0203 3.29485 15.2078C3.48238 15.3954 3.73674 15.5007 4.00195 15.5007H12.002C12.2672 15.5007 12.5215 15.3954 12.7091 15.2078C12.8966 15.0203 13.002 14.7659 13.002 14.5007V14.2557V14.2557Z" fill="#A6B1D2"/>
</g>
<defs>
<clipPath id="clip0_1767_2634">
<rect width="16" height="16" fill="white" transform="translate(0 0.5)"/>
</clipPath>
</defs>
</svg>
