<svg width="73" height="72" viewBox="0 0 73 72" fill="none" xmlns="http://www.w3.org/2000/svg">
<path d="M0.199951 36C0.199951 16.1178 16.3177 0 36.2 0C56.0822 0 72.2 16.1178 72.2 36C72.2 55.8823 56.0822 72 36.2 72C16.3177 72 0.199951 55.8823 0.199951 36Z" fill="#F5F7FC"/>
<g clip-path="url(#clip0_1339_14509)">
<rect width="32" height="32" transform="translate(20.2 20)" fill="white" fill-opacity="0.01"/>
<path d="M47.0879 25.1175C47.204 25.2335 47.2961 25.3714 47.3589 25.523C47.4217 25.6747 47.4541 25.8373 47.4541 26.0015C47.4541 26.1656 47.4217 26.3282 47.3589 26.4799C47.2961 26.6316 47.204 26.7694 47.0879 26.8855L27.0879 46.8855C26.9718 47.0016 26.834 47.0936 26.6823 47.1565C26.5306 47.2193 26.368 47.2516 26.2039 47.2516C26.0397 47.2516 25.8771 47.2193 25.7254 47.1565C25.5738 47.0936 25.4359 47.0016 25.3199 46.8855C25.2038 46.7694 25.1117 46.6316 25.0489 46.4799C24.986 46.3282 24.9537 46.1656 24.9537 46.0015C24.9537 45.8373 24.986 45.6747 25.0489 45.523C25.1117 45.3714 25.2038 45.2336 25.3199 45.1175L45.3199 25.1175C45.4359 25.0014 45.5737 24.9093 45.7254 24.8464C45.8771 24.7836 46.0397 24.7512 46.2039 24.7512C46.368 24.7512 46.5306 24.7836 46.6823 24.8464C46.834 24.9093 46.9718 25.0014 47.0879 25.1175ZM29.2039 32.0015C28.4082 32.0015 27.6451 31.6854 27.0825 31.1228C26.5199 30.5602 26.2039 29.7971 26.2039 29.0015C26.2039 28.2058 26.5199 27.4428 27.0825 26.8801C27.6451 26.3175 28.4082 26.0015 29.2039 26.0015C29.9995 26.0015 30.7626 26.3175 31.3252 26.8801C31.8878 27.4428 32.2039 28.2058 32.2039 29.0015C32.2039 29.7971 31.8878 30.5602 31.3252 31.1228C30.7626 31.6854 29.9995 32.0015 29.2039 32.0015ZM29.2039 34.0015C30.5299 34.0015 31.8017 33.4747 32.7394 32.537C33.6771 31.5993 34.2039 30.3275 34.2039 29.0015C34.2039 27.6754 33.6771 26.4036 32.7394 25.4659C31.8017 24.5282 30.5299 24.0015 29.2039 24.0015C27.8778 24.0015 26.606 24.5282 25.6683 25.4659C24.7306 26.4036 24.2039 27.6754 24.2039 29.0015C24.2039 30.3275 24.7306 31.5993 25.6683 32.537C26.606 33.4747 27.8778 34.0015 29.2039 34.0015ZM43.2039 46.0015C42.4082 46.0015 41.6451 45.6854 41.0825 45.1228C40.5199 44.5602 40.2039 43.7971 40.2039 43.0015C40.2039 42.2058 40.5199 41.4428 41.0825 40.8801C41.6451 40.3175 42.4082 40.0015 43.2039 40.0015C43.9995 40.0015 44.7626 40.3175 45.3252 40.8801C45.8878 41.4428 46.2039 42.2058 46.2039 43.0015C46.2039 43.7971 45.8878 44.5602 45.3252 45.1228C44.7626 45.6854 43.9995 46.0015 43.2039 46.0015ZM43.2039 48.0015C44.5299 48.0015 45.8017 47.4747 46.7394 46.537C47.6771 45.5993 48.2039 44.3275 48.2039 43.0015C48.2039 41.6754 47.6771 40.4036 46.7394 39.4659C45.8017 38.5282 44.5299 38.0015 43.2039 38.0015C41.8778 38.0015 40.606 38.5282 39.6683 39.4659C38.7306 40.4036 38.2039 41.6754 38.2039 43.0015C38.2039 44.3275 38.7306 45.5993 39.6683 46.537C40.606 47.4747 41.8778 48.0015 43.2039 48.0015Z" fill="#487CFB"/>
</g>
<defs>
<clipPath id="clip0_1339_14509">
<rect width="32" height="32" fill="white" transform="translate(20.2 20)"/>
</clipPath>
</defs>
</svg>
