<svg width="25" height="25" viewBox="0 0 25 25" fill="none" xmlns="http://www.w3.org/2000/svg">
<path d="M22 7.65201C22 10.1373 19.9853 12.152 17.5 12.152C15.0147 12.152 13 10.1373 13 7.65201C13 5.16673 15.0147 3.15201 17.5 3.15201C19.9853 3.15201 22 5.16673 22 7.65201Z" fill="#487CFB"/>
<path d="M23.6482 18.3879C24.1774 18.2763 24.4925 17.716 24.2296 17.2381C23.6499 16.1845 22.7367 15.2587 21.5685 14.5532C20.064 13.6445 18.2205 13.152 16.3241 13.152C14.4277 13.152 12.5843 13.6445 11.0797 14.5532C9.9115 15.2587 8.9983 16.1845 8.41864 17.2381C8.15569 17.716 8.47084 18.2763 9 18.3879C13.8308 19.4067 18.8174 19.4067 23.6482 18.3879Z" fill="#487CFB"/>
<mask id="path-3-outside-1_1444_27630" maskUnits="userSpaceOnUse" x="-0.172363" y="3.00961" width="20" height="20" fill="black">
<rect fill="white" x="-0.172363" y="3.00961" width="20" height="20"/>
<path fill-rule="evenodd" clip-rule="evenodd" d="M9.68607 14.4123C12.2825 14.4123 14.3874 12.3074 14.3874 9.71094C14.3874 7.11446 12.2825 5.00961 9.68607 5.00961C7.08959 5.00961 4.98474 7.11446 4.98474 9.71094C4.98474 12.3074 7.08959 14.4123 9.68607 14.4123ZM17.4516 19.3189C17.7099 19.7828 17.4003 20.3267 16.8805 20.435C12.1352 21.424 7.2369 21.424 2.49156 20.435C1.97176 20.3267 1.6622 19.7828 1.92048 19.3189C2.48989 18.2962 3.38693 17.3975 4.53446 16.7127C6.01237 15.8306 7.82318 15.3525 9.68604 15.3525C11.5489 15.3525 13.3597 15.8306 14.8376 16.7127C15.9852 17.3975 16.8822 18.2962 17.4516 19.3189Z"/>
</mask>
<path fill-rule="evenodd" clip-rule="evenodd" d="M9.68607 14.4123C12.2825 14.4123 14.3874 12.3074 14.3874 9.71094C14.3874 7.11446 12.2825 5.00961 9.68607 5.00961C7.08959 5.00961 4.98474 7.11446 4.98474 9.71094C4.98474 12.3074 7.08959 14.4123 9.68607 14.4123ZM17.4516 19.3189C17.7099 19.7828 17.4003 20.3267 16.8805 20.435C12.1352 21.424 7.2369 21.424 2.49156 20.435C1.97176 20.3267 1.6622 19.7828 1.92048 19.3189C2.48989 18.2962 3.38693 17.3975 4.53446 16.7127C6.01237 15.8306 7.82318 15.3525 9.68604 15.3525C11.5489 15.3525 13.3597 15.8306 14.8376 16.7127C15.9852 17.3975 16.8822 18.2962 17.4516 19.3189Z" fill="#487CFB"/>
<path d="M16.8805 20.435L16.5745 18.9666H16.5745L16.8805 20.435ZM17.4516 19.3189L18.7622 18.5892V18.5892L17.4516 19.3189ZM2.49156 20.435L2.18553 21.9035H2.18553L2.49156 20.435ZM1.92048 19.3189L3.23104 20.0486H3.23104L1.92048 19.3189ZM4.53446 16.7127L3.76574 15.4246L4.53446 16.7127ZM9.68604 15.3525L9.68604 13.8525L9.68604 15.3525ZM14.8376 16.7127L15.6063 15.4246L14.8376 16.7127ZM12.8874 9.71094C12.8874 11.479 11.4541 12.9123 9.68607 12.9123V15.9123C13.111 15.9123 15.8874 13.1358 15.8874 9.71094H12.8874ZM9.68607 6.50961C11.4541 6.50961 12.8874 7.94289 12.8874 9.71094H15.8874C15.8874 6.28604 13.111 3.50961 9.68607 3.50961V6.50961ZM6.48474 9.71094C6.48474 7.94289 7.91802 6.50961 9.68607 6.50961V3.50961C6.26117 3.50961 3.48474 6.28604 3.48474 9.71094H6.48474ZM9.68607 12.9123C7.91802 12.9123 6.48474 11.479 6.48474 9.71094H3.48474C3.48474 13.1358 6.26117 15.9123 9.68607 15.9123V12.9123ZM17.1866 21.9035C18.4974 21.6303 19.6075 20.1075 18.7622 18.5892L16.141 20.0486C16.0042 19.8028 16.0231 19.514 16.1327 19.3074C16.233 19.1183 16.4007 19.0028 16.5745 18.9666L17.1866 21.9035ZM2.18553 21.9035C7.13272 22.9345 12.2394 22.9345 17.1866 21.9035L16.5745 18.9666C12.031 19.9135 7.34108 19.9135 2.79759 18.9666L2.18553 21.9035ZM0.609926 18.5892C-0.235399 20.1075 0.874643 21.6303 2.18553 21.9035L2.79759 18.9666C2.97141 19.0028 3.13904 19.1183 3.23933 19.3073C3.34897 19.514 3.36788 19.8028 3.23104 20.0486L0.609926 18.5892ZM3.76574 15.4246C2.42073 16.2273 1.32323 17.3081 0.609926 18.5892L3.23104 20.0486C3.65656 19.2843 4.35313 18.5677 5.30318 18.0007L3.76574 15.4246ZM9.68604 13.8525C7.57558 13.8525 5.49512 14.3925 3.76574 15.4246L5.30318 18.0007C6.52962 17.2687 8.07078 16.8525 9.68604 16.8525L9.68604 13.8525ZM15.6063 15.4246C13.877 14.3925 11.7965 13.8525 9.68604 13.8525L9.68604 16.8525C11.3013 16.8525 12.8425 17.2687 14.0689 18.0007L15.6063 15.4246ZM18.7622 18.5892C18.0489 17.3081 16.9514 16.2273 15.6063 15.4246L14.0689 18.0007C15.019 18.5677 15.7155 19.2843 16.141 20.0486L18.7622 18.5892Z" fill="#F5F7FC" mask="url(#path-3-outside-1_1444_27630)"/>
</svg>
