<svg width="49" height="48" viewBox="0 0 49 48" fill="none" xmlns="http://www.w3.org/2000/svg">
<g clip-path="url(#clip0_1700_13861)">
<rect width="48" height="48" transform="translate(0.800049 0.000213623)" fill="white" fill-opacity="0.01"/>
<path fill-rule="evenodd" clip-rule="evenodd" d="M33.6771 36.2715C32.4163 36.3085 31.1787 36.6194 30.0504 37.1826L27.1922 38.6103L26.8211 38.775C26.2566 38.9935 25.6526 39.0918 25.0478 39.0634C24.4431 39.0351 23.851 38.8807 23.3095 38.6103L20.4534 37.1847L19.989 36.9681C18.8295 36.4722 17.5758 36.2344 16.3149 36.2715C15.054 36.3085 13.8164 36.6194 12.6882 37.1826L6.91958 40.062L6.69821 40.1898C6.23249 40.4918 5.90046 40.9605 5.77044 41.4995C5.64043 42.0385 5.72234 42.6067 5.9993 43.0873C6.27626 43.5678 6.72721 43.924 7.25932 44.0827C7.79144 44.2414 8.36423 44.1903 8.85981 43.9402L14.6284 41.0586L15.0017 40.8939C15.5658 40.6757 16.1695 40.5776 16.7738 40.606C17.3782 40.6343 17.9699 40.7885 18.511 41.0586L21.3693 42.4864L21.8316 42.6987C22.9912 43.1953 24.2453 43.4335 25.5065 43.3969C26.7678 43.3602 28.0059 43.0495 29.1346 42.4864L31.9907 41.0586L32.3639 40.8939C32.9281 40.6757 33.5317 40.5776 34.1361 40.606C34.7404 40.6343 35.3321 40.7885 35.8733 41.0586L41.6441 43.938L41.8763 44.0377C42.3971 44.2258 42.9702 44.2081 43.4783 43.9881C43.9865 43.7681 44.3911 43.3625 44.6094 42.8544C44.8277 42.3462 44.8431 41.774 44.6526 41.2548C44.462 40.7357 44.0798 40.3089 43.5843 40.062L37.8157 37.1847L37.3513 36.9681C36.1918 36.4722 34.938 36.2344 33.6771 36.2715ZM28.9568 3.63699C28.5498 3.23068 27.9978 3.00241 27.4222 3.00241H23.0817C22.5061 3.00241 21.954 3.23068 21.547 3.63699C21.14 4.04331 20.9114 4.59439 20.9114 5.169V8.0289L13.6843 9.2292C12.6712 9.39839 11.7511 9.92078 11.0875 10.7035C10.4238 11.4862 10.0598 12.4784 10.06 13.5039V20.9396L5.66082 22.4042C5.28005 22.531 4.9322 22.7404 4.64233 23.0176C4.35247 23.2947 4.12781 23.6326 3.98457 24.0069C3.84132 24.3812 3.78305 24.7826 3.81397 25.1821C3.84488 25.5815 3.9642 25.9692 4.16332 26.3171L9.93193 36.3939L12.6882 35.016C13.8937 34.4142 15.223 34.1009 16.5708 34.1009C17.9186 34.1009 19.2479 34.4142 20.4534 35.016L23.3095 36.4437C23.9123 36.7446 24.5769 36.9013 25.2509 36.9013C25.9248 36.9013 26.5894 36.7446 27.1922 36.4437L30.0504 35.016C31.2559 34.4142 32.5852 34.1009 33.9331 34.1009C35.2809 34.1009 36.6102 34.4142 37.8157 35.016L41.8394 37.0266L46.5467 26.0636C46.6948 25.7193 46.7698 25.348 46.7668 24.9733C46.7638 24.5986 46.6829 24.2286 46.5293 23.8867C46.3757 23.5448 46.1527 23.2384 45.8744 22.987C45.5961 22.7355 45.2686 22.5445 44.9125 22.4259L40.4417 20.9396V13.5039C40.4419 12.4784 40.0779 11.4862 39.4142 10.7035C38.7506 9.92078 37.8305 9.39839 36.8174 9.2292L29.5925 8.0289V5.169C29.5925 4.59439 29.3638 4.04331 28.9568 3.63699ZM14.4005 13.5039L25.2519 11.6991L36.1033 13.5039V19.4967L26.6236 16.3421C25.7325 16.0456 24.7692 16.0456 23.8782 16.3421L14.4005 19.4967V13.5039ZM26.3276 44.6386L26.3473 44.635C26.3628 44.6374 26.373 44.6482 26.3777 44.6673L26.4082 45.4316L26.401 45.462L26.3795 45.4907L26.1934 45.6231L26.1719 45.6303L26.145 45.6231L25.9589 45.4907L25.941 45.4674L25.932 45.4316L25.9625 44.6655L25.9696 44.6476C25.9792 44.6356 25.9935 44.6327 26.0126 44.6386L26.1397 44.7013L26.1647 44.7084L26.2005 44.7013L26.3276 44.6386ZM26.7984 44.4363L26.8217 44.4328C26.8396 44.4375 26.8515 44.4507 26.8575 44.4721L26.9183 45.5712L26.9112 45.5963C26.8992 45.6118 26.8819 45.6166 26.8593 45.6106L26.4995 45.4441L26.4851 45.4316L26.4762 45.4101L26.444 44.6404L26.4493 44.6207L26.4672 44.6028L26.7984 44.4363ZM25.5155 44.432C25.5245 44.43 25.5339 44.4316 25.5418 44.4363L25.8712 44.601L25.8891 44.6189L25.8944 44.6404L25.864 45.4101L25.8568 45.4298L25.8389 45.4441L25.4791 45.6106L25.4523 45.6142C25.4332 45.607 25.4231 45.5927 25.4219 45.5712L25.4827 44.4721L25.4935 44.4471C25.4986 44.4394 25.5065 44.434 25.5155 44.432Z" fill="#CCD3E7"/>
</g>
<defs>
<clipPath id="clip0_1700_13861">
<rect width="48" height="48" fill="white" transform="translate(0.800049 0.000213623)"/>
</clipPath>
</defs>
</svg>
