<svg width="72" height="72" viewBox="0 0 72 72" fill="none" xmlns="http://www.w3.org/2000/svg">
<path d="M0 36C0 16.1178 16.1178 0 36 0C55.8823 0 72 16.1178 72 36C72 55.8823 55.8823 72 36 72C16.1178 72 0 55.8823 0 36Z" fill="#F5F7FC"/>
<g clip-path="url(#clip0_1339_14515)">
<rect width="32" height="32" transform="translate(20 20)" fill="white" fill-opacity="0.01"/>
<path d="M34.0039 48.0015C34.0039 48.0015 32.0039 48.0015 32.0039 46.0015C32.0039 44.0015 34.0039 38.0015 42.0039 38.0015C50.0039 38.0015 52.0039 44.0015 52.0039 46.0015C52.0039 48.0015 50.0039 48.0015 50.0039 48.0015H34.0039ZM42.0039 36.0015C43.5952 36.0015 45.1213 35.3693 46.2465 34.2441C47.3718 33.1189 48.0039 31.5928 48.0039 30.0015C48.0039 28.4102 47.3718 26.884 46.2465 25.7588C45.1213 24.6336 43.5952 24.0015 42.0039 24.0015C40.4126 24.0015 38.8865 24.6336 37.7613 25.7588C36.636 26.884 36.0039 28.4102 36.0039 30.0015C36.0039 31.5928 36.636 33.1189 37.7613 34.2441C38.8865 35.3693 40.4126 36.0015 42.0039 36.0015Z" fill="#487CFB"/>
<path fill-rule="evenodd" clip-rule="evenodd" d="M30.4359 48.0015C30.1394 47.3771 29.9916 46.6925 30.0039 46.0015C30.0039 43.2915 31.3639 40.5015 33.8759 38.5615C32.6221 38.1751 31.3158 37.9862 30.0039 38.0015C22.0039 38.0015 20.0039 44.0015 20.0039 46.0015C20.0039 48.0015 22.0039 48.0015 22.0039 48.0015H30.4359Z" fill="#487CFB"/>
<path d="M29.0039 36.0015C30.33 36.0015 31.6018 35.4747 32.5394 34.537C33.4771 33.5993 34.0039 32.3275 34.0039 31.0015C34.0039 29.6754 33.4771 28.4036 32.5394 27.4659C31.6018 26.5282 30.33 26.0015 29.0039 26.0015C27.6778 26.0015 26.4061 26.5282 25.4684 27.4659C24.5307 28.4036 24.0039 29.6754 24.0039 31.0015C24.0039 32.3275 24.5307 33.5993 25.4684 34.537C26.4061 35.4747 27.6778 36.0015 29.0039 36.0015Z" fill="#487CFB"/>
</g>
<defs>
<clipPath id="clip0_1339_14515">
<rect width="32" height="32" fill="white" transform="translate(20 20)"/>
</clipPath>
</defs>
</svg>
