<svg width="49" height="48" viewBox="0 0 49 48" fill="none" xmlns="http://www.w3.org/2000/svg">
<g clip-path="url(#clip0_1700_13839)">
<rect width="48" height="48" transform="translate(0.200012 0.000213623)" fill="white" fill-opacity="0.01"/>
<path fill-rule="evenodd" clip-rule="evenodd" d="M33.0156 4.00241H20.8586C19.4498 4.00241 18.3078 5.14443 18.3078 6.55319C18.3078 7.96195 19.4498 9.10397 20.8586 9.10397H27.8118C29.6863 9.10397 31.2059 10.6236 31.2059 12.4981V17.7504C31.2059 19.625 29.6863 21.1446 27.8118 21.1446H26.7931C24.9186 21.1446 23.399 22.6642 23.399 24.5387V26.8014H20.5706L19.5508 21.1927C19.4809 20.8083 19.604 20.414 19.8803 20.1377C20.2817 19.7364 20.9105 19.6741 21.3828 19.989L21.6679 20.1791C22.0166 20.4115 22.4809 20.3656 22.7773 20.0692C23.1206 19.7258 23.1206 19.1692 22.7773 18.8258L19.4392 15.4877C19.1268 15.1753 18.6202 15.1753 18.3078 15.4877C17.9954 15.8001 17.9954 16.3066 18.3078 16.6191L19.2049 17.5161C19.6467 17.958 19.6467 18.6743 19.2049 19.1161C18.9927 19.3283 18.7049 19.4475 18.4049 19.4475H17.9655C17.1352 19.4475 16.3762 19.9166 16.0049 20.6592L14.9137 22.8416C14.9137 22.8416 13.7823 22.2759 10.9539 22.2759C2.7545 22.2759 0.771557 29.0642 0.771557 29.0642H0.205872V35.8524H0.771557C0.771557 35.8524 2.46861 43.2063 10.9539 43.2063C18.8735 43.2063 21.1362 34.721 21.1362 34.721H24.5219C25.15 34.721 25.6673 34.2107 25.746 33.5875C26.0698 31.0241 27.6361 25.0024 35.2059 25.0024C42.9949 25.0024 44.5227 31.378 44.8222 33.8013C44.8849 34.309 45.3077 34.721 45.8193 34.721C46.2674 34.721 46.6519 34.4019 46.7345 33.9614L48.2008 26.1414C48.2573 25.8401 48.1891 25.5288 48.0119 25.2788L41.5125 16.1073C40.9856 15.3638 40.131 14.922 39.2198 14.922C37.6678 14.922 36.4098 13.6639 36.4098 12.112V7.39653C36.4098 5.52201 34.8902 4.00241 33.0156 4.00241ZM18.2875 32.4579C18.2875 36.5193 14.995 39.8118 10.9336 39.8118C8.09639 39.8118 5.63448 38.2051 4.40805 35.852H13.7827V29.0638H4.40805C5.63448 26.7106 8.09639 25.104 10.9336 25.104C14.995 25.104 18.2875 28.3964 18.2875 32.4579ZM35.2059 43.0024C39.6241 43.0024 43.2059 39.4207 43.2059 35.0024C43.2059 30.5841 39.6241 27.0024 35.2059 27.0024C30.7876 27.0024 27.2059 30.5841 27.2059 35.0024C27.2059 39.4207 30.7876 43.0024 35.2059 43.0024Z" fill="#CCD3E7"/>
</g>
<defs>
<clipPath id="clip0_1700_13839">
<rect width="48" height="48" fill="white" transform="translate(0.200012 0.000213623)"/>
</clipPath>
</defs>
</svg>
