<svg width="24" height="24" viewBox="0 0 24 24" fill="none" xmlns="http://www.w3.org/2000/svg">
<path d="M7 8.50049H12M7 12.0005H15M9.68375 18.0005H16.2C17.8802 18.0005 18.7202 18.0005 19.362 17.6735C19.9265 17.3859 20.3854 16.9269 20.673 16.3625C21 15.7207 21 14.8806 21 13.2005V7.80049C21 6.12033 21 5.28025 20.673 4.63852C20.3854 4.07403 19.9265 3.61509 19.362 3.32747C18.7202 3.00049 17.8802 3.00049 16.2 3.00049H7.8C6.11984 3.00049 5.27976 3.00049 4.63803 3.32747C4.07354 3.61509 3.6146 4.07403 3.32698 4.63852C3 5.28025 3 6.12033 3 7.80049V20.336C3 20.8688 3 21.1353 3.10923 21.2721C3.20422 21.3911 3.34827 21.4603 3.50054 21.4602C3.67563 21.46 3.88367 21.2936 4.29976 20.9607L6.68521 19.0523C7.17252 18.6625 7.41617 18.4676 7.68749 18.3289C7.9282 18.206 8.18443 18.1161 8.44921 18.0617C8.74767 18.0005 9.0597 18.0005 9.68375 18.0005Z" stroke="#487CFB" stroke-width="2" stroke-linecap="round" stroke-linejoin="round"/>
</svg>
