<svg width="49" height="48" viewBox="0 0 49 48" fill="none" xmlns="http://www.w3.org/2000/svg">
<g clip-path="url(#clip0_1700_13850)">
<rect width="48" height="48" transform="translate(0.400024 0.000213623)" fill="white" fill-opacity="0.01"/>
<path d="M4.00588 5.00241C2.01838 5.00241 0.405884 6.59811 0.405884 8.56491V31.3149C0.405884 33.2817 2.01838 34.8774 4.00588 34.8774H5.20588C5.20588 38.811 8.43088 42.0024 12.4059 42.0024C16.3809 42.0024 19.6059 38.811 19.6059 34.8774H29.2059C29.2059 38.811 32.4309 42.0024 36.4059 42.0024C40.3809 42.0024 43.6059 38.811 43.6059 34.8774H46.0059C47.3334 34.8774 48.4059 33.8161 48.4059 32.5024C48.4059 31.1887 47.3334 30.1274 46.0059 30.1274V21.6145C46.0059 20.3528 45.5034 19.143 44.6034 18.2524L38.8059 12.5153C37.9059 11.6247 36.6834 11.1274 35.4084 11.1274H31.6059V8.56491C31.6059 6.59811 29.9934 5.00241 28.0059 5.00241H4.00588ZM31.6059 15.8774H35.4084L41.2059 21.6145V23.0024H31.6059V15.8774ZM8.80588 34.8774C8.80588 33.9326 9.18517 33.0264 9.8603 32.3583C10.5354 31.6902 11.4511 31.3149 12.4059 31.3149C13.3607 31.3149 14.2763 31.6902 14.9515 32.3583C15.6266 33.0264 16.0059 33.9326 16.0059 34.8774C16.0059 35.8222 15.6266 36.7284 14.9515 37.3965C14.2763 38.0646 13.3607 38.4399 12.4059 38.4399C11.4511 38.4399 10.5354 38.0646 9.8603 37.3965C9.18517 36.7284 8.80588 35.8222 8.80588 34.8774ZM36.4059 31.3149C37.3607 31.3149 38.2763 31.6902 38.9515 32.3583C39.6266 33.0264 40.0059 33.9326 40.0059 34.8774C40.0059 35.8222 39.6266 36.7284 38.9515 37.3965C38.2763 38.0646 37.3607 38.4399 36.4059 38.4399C35.4511 38.4399 34.5354 38.0646 33.8603 37.3965C33.1852 36.7284 32.8059 35.8222 32.8059 34.8774C32.8059 33.9326 33.1852 33.0264 33.8603 32.3583C34.5354 31.6902 35.4511 31.3149 36.4059 31.3149Z" fill="#CCD3E7"/>
</g>
<defs>
<clipPath id="clip0_1700_13850">
<rect width="48" height="48" fill="white" transform="translate(0.400024 0.000213623)"/>
</clipPath>
</defs>
</svg>
