<svg width="16" height="17" viewBox="0 0 16 17" fill="none" xmlns="http://www.w3.org/2000/svg">
<g clip-path="url(#clip0_1767_2665)">
<path fill-rule="evenodd" clip-rule="evenodd" d="M4.38089 11.6437C4.60707 11.5861 4.82086 11.5316 5 11.5L8.5 10L9.91091 9.96071C10.2533 9.95975 10.5679 9.95886 10.8308 9.93664C11.1143 9.91268 11.4244 9.85881 11.7305 9.70206C12.1683 9.47789 12.524 9.12112 12.7469 8.6827C12.9028 8.37614 12.9558 8.06593 12.9789 7.78232C13.0004 7.51932 13.0004 7.20477 13.0003 6.86236V4.53209C13.0004 4.11775 13.0004 3.7373 12.9691 3.41936C12.9348 3.07215 12.8566 2.70598 12.6407 2.35473C12.3329 1.85419 11.8634 1.47962 11.3295 1.25413C10.975 1.10445 10.6095 1.04944 10.237 1.02421C9.87926 0.999983 9.44297 0.999991 8.92752 1H8.92745H8.92743H4.07325H4.07322H4.07316C3.5577 0.999991 3.12142 0.999983 2.7637 1.02421C2.39113 1.04944 2.02565 1.10445 1.67121 1.25413C1.13724 1.47962 0.667738 1.85419 0.360022 2.35473C0.144081 2.70598 0.065836 3.07215 0.0316076 3.41936C0.000266183 3.73729 0.000298801 4.11774 0.000334325 4.53208L0.000334325 4.53208L0.00033671 4.57416V7.06489L0.000286284 7.12202C0.000191947 7.19352 0.0006036 7.2857 0.00105256 7.38624C0.00196632 7.59085 0.00303461 7.83007 0.000305896 8C-0.0333332 10.0949 1.19241 10.0868 2.50827 10.0781C2.59315 10.0776 2.67839 10.077 2.7637 10.077C3.33781 10.077 3.16328 10.2889 2.90988 10.5966C2.69833 10.8535 2.43182 11.1772 2.5 11.5C2.62486 12.0912 3.58048 11.8477 4.38089 11.6437ZM5.91062 4.08287C6.06233 3.9963 6.2424 3.96393 6.41823 3.99322C6.59395 4.02248 6.75036 4.11074 6.86126 4.23865C6.97186 4.36622 7.03054 4.5252 7.03029 4.68716L7.03029 4.68793C7.03029 4.76362 6.99991 4.87342 6.91207 5.01774C6.82597 5.15919 6.70332 5.30305 6.56748 5.43713C6.43329 5.56957 6.29714 5.68181 6.19362 5.76135C6.14228 5.8008 6.1 5.83141 6.07136 5.85163C6.05706 5.86172 6.04624 5.86917 6.03947 5.87378L6.03246 5.87852L6.03183 5.87894L6.03154 5.87913L6.03146 5.87918L6.03139 5.87923C5.80132 6.03133 5.73783 6.34108 5.88965 6.57145C6.0416 6.80203 6.35171 6.86576 6.58228 6.71381L6.30714 6.29632C6.58228 6.71381 6.58238 6.71374 6.58248 6.71368L6.58271 6.71352L6.58325 6.71317L6.58468 6.71222L6.58885 6.70944L6.60229 6.70036C6.61343 6.69277 6.62889 6.68212 6.64804 6.6686C6.68629 6.6416 6.73957 6.60297 6.80289 6.55431C6.92872 6.45763 7.09835 6.31821 7.26995 6.14885C7.43989 5.98111 7.62303 5.77302 7.76628 5.53768C7.9077 5.30533 8.03016 5.01369 8.03029 4.68844L8.03029 4.6887L7.53029 4.68793H8.03029V4.68844C8.03085 4.28208 7.88319 3.8908 7.61683 3.58358C7.35071 3.27664 6.98378 3.07363 6.58251 3.0068C6.18134 2.93999 5.768 3.0129 5.415 3.21433C5.06171 3.41593 4.78989 3.73449 4.6515 4.11646C4.55743 4.37609 4.69165 4.66281 4.95128 4.75688C5.2109 4.85094 5.49763 4.71672 5.59169 4.4571C5.64757 4.30286 5.7592 4.16928 5.91062 4.08287ZM6.80714 7.5C6.80714 7.22386 6.58328 7 6.30714 7C6.031 7 5.80714 7.22386 5.80714 7.5V7.56656C5.80714 7.84271 6.031 8.06656 6.30714 8.06656C6.58328 8.06656 6.80714 7.84271 6.80714 7.56656V7.5Z" fill="#A6B1D2"/>
<path d="M12.7105 6.5C12.5778 6.5 12.4507 6.55268 12.3569 6.64645C12.2631 6.74023 12.2105 6.86741 12.2105 7.00002C12.2105 7.16383 12.2103 7.2261 12.2076 7.27602C12.1534 8.29197 11.3452 9.10534 10.3296 9.16593C10.2797 9.16891 10.2174 9.16948 10.0536 9.17051L6.99687 9.18963C6.72196 9.19135 6.5 9.4147 6.5 9.68962V11.4195L6.5 11.4382C6.49999 11.6937 6.49998 11.9142 6.51441 12.096C6.52964 12.2879 6.56323 12.4788 6.65415 12.6636C6.80006 12.9601 7.0399 13.2002 7.33624 13.3464C7.65168 13.5021 7.97122 13.5019 8.32336 13.5017C8.34487 13.5017 8.3665 13.5017 8.38826 13.5017C8.93293 13.5022 9.12948 13.5049 9.25666 13.5294C9.39019 13.5551 9.51878 13.5985 9.64055 13.659C9.75817 13.7175 9.87006 13.8 10.1943 14.0467L11.1367 14.7636C11.7964 15.2655 12.73 14.7014 12.5925 13.8839C12.5587 13.6831 12.7136 13.5 12.9173 13.5H13.5835C13.6061 13.5 13.6284 13.5 13.6505 13.5001C13.9542 13.5004 14.2164 13.5008 14.4432 13.4277C14.911 13.2768 15.2753 12.9064 15.4182 12.4361C15.4875 12.2081 15.4827 11.9459 15.4772 11.6423C15.4768 11.6202 15.4764 11.5978 15.4761 11.5753L15.4253 8.56461L15.425 8.54556C15.4206 8.28608 15.4169 8.06201 15.3988 7.87748C15.3796 7.68255 15.3414 7.48906 15.244 7.30329C15.0984 7.02583 14.8697 6.80089 14.5898 6.66006C14.4024 6.56578 14.2083 6.53082 14.0131 6.51498C13.8283 6.49998 13.6042 6.49999 13.3447 6.5L13.3256 6.5H12.7105Z" stroke="#A6B1D2" stroke-linecap="round" stroke-linejoin="round"/>
</g>
<defs>
<clipPath id="clip0_1767_2665">
<rect width="16" height="16" fill="white" transform="translate(0 0.5)"/>
</clipPath>
</defs>
</svg>
