<svg width="49" height="48" viewBox="0 0 49 48" fill="none" xmlns="http://www.w3.org/2000/svg">
<g clip-path="url(#clip0_1700_13879)">
<rect width="48" height="48" transform="translate(0.600037 0.000213623)" fill="white" fill-opacity="0.01"/>
<path fill-rule="evenodd" clip-rule="evenodd" d="M3.7494 11.0297C3.6059 11.7105 3.6059 12.5282 3.6059 14.1599V27.2024C3.6059 34.1788 3.6059 37.6679 6.0085 39.8342C8.4111 42.0006 12.2753 42.0024 20.0059 42.0024H28.2059C35.9364 42.0024 39.8027 42.0024 42.2033 39.8342C44.6038 37.666 44.6059 34.1788 44.6059 27.2024V23.1287C44.6059 18.2595 44.6059 15.8231 43.0274 14.2413C42.8826 14.0953 42.7293 13.9564 42.5682 13.8251C40.8154 12.4024 38.1156 12.4024 32.72 12.4024H31.9533C29.5896 12.4024 28.4068 12.4024 27.3039 12.1194C26.6987 11.9632 26.1153 11.7447 25.5655 11.4682C24.5651 10.9668 23.7287 10.2102 22.0559 8.70241L20.9284 7.68491C20.3667 7.17801 20.0879 6.92641 19.7927 6.70441C18.5231 5.75469 16.9656 5.17251 15.3237 5.03386C14.9424 5.00241 14.5447 5.00241 13.7534 5.00241C11.9432 5.00241 11.0392 5.00241 10.2848 5.13191C8.66497 5.40797 7.17494 6.11821 6.00912 7.16997C4.8433 8.22172 4.05581 9.568 3.7494 11.0297ZM32.886 6.85241C33.6343 6.85241 34.0094 6.85241 34.3251 6.88941C36.412 7.14841 38.0725 8.63396 38.4538 10.5524C38.1416 10.4892 37.8262 10.4392 37.5088 10.4026C36.1968 10.2472 34.5404 10.2472 32.4863 10.2472H31.8016C29.8705 10.2472 29.1366 10.2379 28.4703 10.0603C28.0824 9.95671 27.7095 9.81202 27.3592 9.62926C26.7524 9.31476 26.2276 8.83746 24.8623 7.56096L24.1059 6.85241H32.886ZM26.1559 18.4149C25.7481 18.4149 25.3571 18.5611 25.0687 18.8213C24.7804 19.0815 24.6184 19.4344 24.6184 19.8024C24.6184 20.1704 24.7804 20.5233 25.0687 20.7835C25.3571 21.0437 25.7481 21.1899 26.1559 21.1899H36.4059C36.8137 21.1899 37.2047 21.0437 37.4931 20.7835C37.7814 20.5233 37.9434 20.1704 37.9434 19.8024C37.9434 19.4344 37.7814 19.0815 37.4931 18.8213C37.2047 18.5611 36.8137 18.4149 36.4059 18.4149H26.1559Z" fill="#CCD3E7"/>
</g>
<defs>
<clipPath id="clip0_1700_13879">
<rect width="48" height="48" fill="white" transform="translate(0.600037 0.000213623)"/>
</clipPath>
</defs>
</svg>
