 <svg
      width="20"
      height="20"
      viewBox="0 0 20 20"
      fill="none"
      xmlns="http://www.w3.org/2000/svg"
    >
      <path
        fill-rule="evenodd"
        clip-rule="evenodd"
        d="M17.5025 3.1261C17.5025 2.96034 17.4367 2.80137 17.3194 2.68416C17.2022 2.56695 17.0433 2.5011 16.8775 2.5011H9.3775C9.21174 2.5011 9.05277 2.56695 8.93556 2.68416C8.81835 2.80137 8.7525 2.96034 8.7525 3.1261C8.7525 3.29186 8.81835 3.45083 8.93556 3.56804C9.05277 3.68525 9.21174 3.7511 9.3775 3.7511H15.3687L2.685 16.4336C2.62689 16.4917 2.58079 16.5607 2.54934 16.6366C2.5179 16.7125 2.50171 16.7939 2.50171 16.8761C2.50171 16.9583 2.5179 17.0397 2.54934 17.1156C2.58079 17.1915 2.62689 17.2605 2.685 17.3186C2.74311 17.3767 2.81209 17.4228 2.88802 17.4543C2.96394 17.4857 3.04532 17.5019 3.1275 17.5019C3.20968 17.5019 3.29105 17.4857 3.36698 17.4543C3.4429 17.4228 3.51189 17.3767 3.57 17.3186L16.2525 4.63485V10.6261C16.2525 10.7919 16.3183 10.9508 16.4356 11.068C16.5528 11.1853 16.7117 11.2511 16.8775 11.2511C17.0433 11.2511 17.2022 11.1853 17.3194 11.068C17.4367 10.9508 17.5025 10.7919 17.5025 10.6261V3.1261Z"
        fill="white"></path>
    </svg>