<svg width="18" height="18" viewBox="0 0 18 18" fill="none" xmlns="http://www.w3.org/2000/svg">
<g clip-path="url(#clip0_1089_1060)">
<rect width="18" height="18" transform="translate(0.000244141)" fill="white" fill-opacity="0.01"/>
<path d="M8.99988 8.99927C9.89498 8.99927 10.7534 8.64369 11.3864 8.01075C12.0193 7.37782 12.3749 6.51937 12.3749 5.62427C12.3749 4.72916 12.0193 3.87072 11.3864 3.23778C10.7534 2.60485 9.89498 2.24927 8.99988 2.24927C8.10477 2.24927 7.24633 2.60485 6.61339 3.23778C5.98046 3.87072 5.62488 4.72916 5.62488 5.62427C5.62488 6.51937 5.98046 7.37782 6.61339 8.01075C7.24633 8.64369 8.10477 8.99927 8.99988 8.99927ZM11.2499 5.62427C11.2499 6.221 11.0128 6.7933 10.5909 7.21526C10.1689 7.63721 9.59661 7.87427 8.99988 7.87427C8.40314 7.87427 7.83084 7.63721 7.40889 7.21526C6.98693 6.7933 6.74988 6.221 6.74988 5.62427C6.74988 5.02753 6.98693 4.45523 7.40889 4.03328C7.83084 3.61132 8.40314 3.37427 8.99988 3.37427C9.59661 3.37427 10.1689 3.61132 10.5909 4.03328C11.0128 4.45523 11.2499 5.02753 11.2499 5.62427ZM15.7499 14.6243C15.7499 15.7493 14.6249 15.7493 14.6249 15.7493H3.37488C3.37488 15.7493 2.24988 15.7493 2.24988 14.6243C2.24988 13.4993 3.37488 10.1243 8.99988 10.1243C14.6249 10.1243 15.7499 13.4993 15.7499 14.6243ZM14.6249 14.6198C14.6238 14.343 14.4516 13.5105 13.6889 12.7478C12.9554 12.0143 11.575 11.2493 8.99988 11.2493C6.42363 11.2493 5.04438 12.0143 4.31088 12.7478C3.54813 13.5105 3.37713 14.343 3.37488 14.6198H14.6249Z" fill="white"/>
</g>
<defs>
<clipPath id="clip0_1089_1060">
<rect width="18" height="18" fill="white" transform="translate(0.000244141)"/>
</clipPath>
</defs>
</svg>
