<svg width="32" height="32" viewBox="0 0 32 32" fill="none" xmlns="http://www.w3.org/2000/svg">
<path fill-rule="evenodd" clip-rule="evenodd" d="M10.8787 0.87868C11.4413 0.31607 12.2044 0 13 0H19C19.7956 0 20.5587 0.31607 21.1213 0.87868C21.6839 1.44129 22 2.20435 22 3V5C22 5.79565 21.6839 6.55871 21.1213 7.12132C20.5587 7.68393 19.7956 8 19 8H13C12.2044 8 11.4413 7.68393 10.8787 7.12132C10.3161 6.55871 10 5.79565 10 5V3C10 2.20435 10.3161 1.44129 10.8787 0.87868ZM19.7071 2.29289C19.5196 2.10536 19.2652 2 19 2H13C12.7348 2 12.4804 2.10536 12.2929 2.29289C12.1054 2.48043 12 2.73478 12 3V5C12 5.26522 12.1054 5.51957 12.2929 5.70711C12.4804 5.89464 12.7348 6 13 6H19C19.2652 6 19.5196 5.89464 19.7071 5.70711C19.8946 5.51957 20 5.26522 20 5V3C20 2.73478 19.8946 2.48043 19.7071 2.29289Z" fill="#487CFB"/>
<path fill-rule="evenodd" clip-rule="evenodd" d="M6 3H8V5C8 6.32608 8.52678 7.59785 9.46447 8.53553C10.4021 9.47322 11.6739 10 13 10H19C19.6566 10 20.3068 9.87067 20.9134 9.6194C21.52 9.36812 22.0712 8.99983 22.5355 8.53553C22.9998 8.07124 23.3681 7.52005 23.6194 6.91342C23.8707 6.30679 24 5.65661 24 5V3H26C27.0609 3 28.0783 3.42143 28.8284 4.17157C29.5786 4.92172 30 5.93913 30 7V28C30 29.0609 29.5786 30.0783 28.8284 30.8284C28.0783 31.5786 27.0609 32 26 32H6C4.93913 32 3.92172 31.5786 3.17157 30.8284C2.42143 30.0783 2 29.0609 2 28V7C2 5.93913 2.42143 4.92172 3.17157 4.17157C3.92172 3.42143 4.93913 3 6 3ZM20.5858 14.5858C20.2107 14.9609 20 15.4696 20 16V26C20 26.5304 20.2107 27.0391 20.5858 27.4142C20.9609 27.7893 21.4696 28 22 28C22.5304 28 23.0391 27.7893 23.4142 27.4142C23.7893 27.0391 24 26.5304 24 26V16C24 15.4696 23.7893 14.9609 23.4142 14.5858C23.0391 14.2107 22.5304 14 22 14C21.4696 14 20.9609 14.2107 20.5858 14.5858ZM8.58579 22.5858C8.21071 22.9609 8 23.4696 8 24V26C8 26.5304 8.21071 27.0391 8.58579 27.4142C8.96086 27.7893 9.46957 28 10 28C10.5304 28 11.0391 27.7893 11.4142 27.4142C11.7893 27.0391 12 26.5304 12 26V24C12 23.4696 11.7893 22.9609 11.4142 22.5858C11.0391 22.2107 10.5304 22 10 22C9.46957 22 8.96086 22.2107 8.58579 22.5858ZM17.4142 18.5858C17.0391 18.2107 16.5304 18 16 18C15.4696 18 14.9609 18.2107 14.5858 18.5858C14.2107 18.9609 14 19.4696 14 20V26C14 26.5304 14.2107 27.0391 14.5858 27.4142C14.9609 27.7893 15.4696 28 16 28C16.5304 28 17.0391 27.7893 17.4142 27.4142C17.7893 27.0391 18 26.5304 18 26V20C18 19.4696 17.7893 18.9609 17.4142 18.5858Z" fill="#487CFB"/>
</svg>
