<svg width="16" height="17" viewBox="0 0 16 17" fill="none" xmlns="http://www.w3.org/2000/svg">
<g clip-path="url(#clip0_1701_327)">
<rect width="16" height="16" transform="translate(0 0.745483)" fill="white" fill-opacity="0.01"/>
<path d="M5.523 11.1695C5.663 11.0875 5.816 11.0075 5.982 10.9315C5.84177 11.1406 5.6916 11.3428 5.532 11.5375C5.252 11.8745 5.034 12.0535 4.897 12.1095C4.88563 12.1143 4.87393 12.1183 4.862 12.1215C4.85202 12.1076 4.84332 12.0929 4.836 12.0775C4.78 11.9675 4.782 11.8615 4.876 11.7175C4.982 11.5525 5.195 11.3635 5.523 11.1695ZM7.978 9.52248C7.859 9.54748 7.741 9.57248 7.622 9.60048C7.79831 9.25516 7.96504 8.90502 8.122 8.55048C8.27999 8.84346 8.45013 9.12971 8.632 9.40848C8.415 9.44048 8.196 9.47848 7.978 9.52248ZM10.503 10.4615C10.3477 10.3362 10.2023 10.1991 10.068 10.0515C10.296 10.0565 10.502 10.0735 10.68 10.1055C10.997 10.1625 11.146 10.2525 11.198 10.3145C11.2144 10.3318 11.2237 10.3546 11.224 10.3785C11.2205 10.449 11.1999 10.5177 11.164 10.5785C11.1438 10.6272 11.1115 10.6699 11.07 10.7025C11.0494 10.7151 11.025 10.7204 11.001 10.7175C10.911 10.7145 10.743 10.6515 10.503 10.4615ZM8.278 5.71548C8.238 5.95948 8.17 6.23948 8.078 6.54448C8.0441 6.43028 8.01442 6.31487 7.989 6.19848C7.913 5.84548 7.902 5.56848 7.943 5.37648C7.981 5.19948 8.053 5.12848 8.139 5.09348C8.18512 5.07315 8.23398 5.05968 8.284 5.05348C8.297 5.08348 8.312 5.14548 8.316 5.25148C8.321 5.37348 8.309 5.52848 8.278 5.71648V5.71548Z" fill="#7F8EBE"/>
<path fill-rule="evenodd" clip-rule="evenodd" d="M4 0.745483H12C12.5304 0.745483 13.0391 0.956197 13.4142 1.33127C13.7893 1.70634 14 2.21505 14 2.74548V14.7455C14 15.2759 13.7893 15.7846 13.4142 16.1597C13.0391 16.5348 12.5304 16.7455 12 16.7455H4C3.46957 16.7455 2.96086 16.5348 2.58579 16.1597C2.21071 15.7846 2 15.2759 2 14.7455V2.74548C2 2.21505 2.21071 1.70634 2.58579 1.33127C2.96086 0.956197 3.46957 0.745483 4 0.745483ZM4.165 12.4135C4.255 12.5935 4.395 12.7565 4.603 12.8325C4.81 12.9075 5.015 12.8725 5.183 12.8025C5.501 12.6725 5.818 12.3665 6.109 12.0165C6.442 11.6155 6.792 11.0895 7.13 10.5065C7.78252 10.313 8.45074 10.1772 9.127 10.1005C9.427 10.4835 9.737 10.8135 10.037 11.0505C10.317 11.2705 10.64 11.4535 10.971 11.4675C11.1513 11.4764 11.3298 11.4281 11.481 11.3295C11.636 11.2285 11.751 11.0825 11.835 10.9135C11.925 10.7325 11.98 10.5435 11.973 10.3505C11.9667 10.1602 11.8962 9.97765 11.773 9.83248C11.547 9.56248 11.177 9.43248 10.813 9.36748C10.3714 9.29909 9.92343 9.28231 9.478 9.31748C9.10186 8.78574 8.77389 8.2215 8.498 7.63148C8.748 6.97148 8.935 6.34748 9.018 5.83748C9.054 5.61948 9.073 5.41148 9.066 5.22348C9.06476 5.03687 9.02134 4.85295 8.939 4.68548C8.89156 4.59306 8.82414 4.51236 8.74164 4.44922C8.65913 4.38609 8.56361 4.34211 8.462 4.32048C8.26 4.27748 8.052 4.32048 7.861 4.39748C7.484 4.54748 7.285 4.86748 7.21 5.22048C7.137 5.56048 7.17 5.95648 7.256 6.35648C7.344 6.76248 7.494 7.20448 7.686 7.65148C7.37886 8.41527 7.02417 9.15906 6.624 9.87848C6.10864 10.0406 5.61188 10.2568 5.142 10.5235C4.772 10.7435 4.443 11.0035 4.245 11.3105C4.035 11.6365 3.97 12.0245 4.165 12.4135Z" fill="#7F8EBE"/>
</g>
<defs>
<clipPath id="clip0_1701_327">
<rect width="16" height="16" fill="white" transform="translate(0 0.745483)"/>
</clipPath>
</defs>
</svg>
