<svg width="24" height="25" viewBox="0 0 24 25" fill="none" xmlns="http://www.w3.org/2000/svg">
<path d="M0.75 15.35C0.948912 15.35 1.13968 15.429 1.28033 15.5697C1.42098 15.7103 1.5 15.9011 1.5 16.1V19.85C1.5 20.2478 1.65804 20.6294 1.93934 20.9107C2.22064 21.192 2.60218 21.35 3 21.35H21C21.3978 21.35 21.7794 21.192 22.0607 20.9107C22.342 20.6294 22.5 20.2478 22.5 19.85V16.1C22.5 15.9011 22.579 15.7103 22.7197 15.5697C22.8603 15.429 23.0511 15.35 23.25 15.35C23.4489 15.35 23.6397 15.429 23.7803 15.5697C23.921 15.7103 24 15.9011 24 16.1V19.85C24 20.6456 23.6839 21.4087 23.1213 21.9713C22.5587 22.5339 21.7956 22.85 21 22.85H3C2.20435 22.85 1.44129 22.5339 0.87868 21.9713C0.316071 21.4087 0 20.6456 0 19.85V16.1C0 15.9011 0.0790176 15.7103 0.21967 15.5697C0.360322 15.429 0.551088 15.35 0.75 15.35Z" fill="#487CFB"/>
<path d="M11.469 18.281C11.5387 18.3508 11.6214 18.4063 11.7125 18.4441C11.8037 18.4819 11.9013 18.5013 12 18.5013C12.0987 18.5013 12.1963 18.4819 12.2874 18.4441C12.3786 18.4063 12.4613 18.3508 12.531 18.281L17.031 13.781C17.1718 13.6402 17.2509 13.4492 17.2509 13.25C17.2509 13.0508 17.1718 12.8598 17.031 12.719C16.8902 12.5782 16.6992 12.4991 16.5 12.4991C16.3008 12.4991 16.1098 12.5782 15.969 12.719L12.75 15.9395V2.75C12.75 2.55109 12.671 2.36032 12.5303 2.21967C12.3897 2.07902 12.1989 2 12 2C11.8011 2 11.6103 2.07902 11.4697 2.21967C11.329 2.36032 11.25 2.55109 11.25 2.75V15.9395L8.031 12.719C7.89017 12.5782 7.69916 12.4991 7.5 12.4991C7.30084 12.4991 7.10983 12.5782 6.969 12.719C6.82817 12.8598 6.74905 13.0508 6.74905 13.25C6.74905 13.4492 6.82817 13.6402 6.969 13.781L11.469 18.281Z" fill="#487CFB"/>
</svg>
