<svg width="16" height="17" viewBox="0 0 16 17" fill="none" xmlns="http://www.w3.org/2000/svg">
<path fill-rule="evenodd" clip-rule="evenodd" d="M4.64604 2.146C4.69248 2.09944 4.74766 2.0625 4.80841 2.03729C4.86915 2.01208 4.93427 1.99911 5.00004 1.99911C5.06581 1.99911 5.13093 2.01208 5.19167 2.03729C5.25242 2.0625 5.30759 2.09944 5.35404 2.146L11.354 8.146C11.4006 8.19245 11.4375 8.24762 11.4628 8.30837C11.488 8.36911 11.5009 8.43423 11.5009 8.5C11.5009 8.56577 11.488 8.63089 11.4628 8.69163C11.4375 8.75238 11.4006 8.80756 11.354 8.854L5.35404 14.854C5.26015 14.9479 5.13281 15.0006 5.00004 15.0006C4.86726 15.0006 4.73993 14.9479 4.64604 14.854C4.55215 14.7601 4.49941 14.6328 4.49941 14.5C4.49941 14.3672 4.55215 14.2399 4.64604 14.146L10.293 8.5L4.64604 2.854C4.59948 2.80756 4.56253 2.75238 4.53733 2.69163C4.51212 2.63089 4.49915 2.56577 4.49915 2.5C4.49915 2.43423 4.51212 2.36911 4.53733 2.30837C4.56253 2.24762 4.59948 2.19245 4.64604 2.146Z" fill="#212529"/>
</svg>
