<svg width="33" height="32" viewBox="0 0 33 32" fill="none" xmlns="http://www.w3.org/2000/svg">
<g clip-path="url(#clip0_1339_14521)">
<rect width="32" height="32" transform="translate(0.599976)" fill="white" fill-opacity="0.01"/>
<path d="M19.1899 0.00146484H8.60388C7.54302 0.00146484 6.5256 0.422892 5.77545 1.17304C5.02531 1.92318 4.60388 2.9406 4.60388 4.00146V28.0015C4.60388 29.0623 5.02531 30.0797 5.77545 30.8299C6.5256 31.58 7.54302 32.0015 8.60388 32.0015H24.6039C25.6647 32.0015 26.6822 31.58 27.4323 30.8299C28.1825 30.0797 28.6039 29.0623 28.6039 28.0015V9.41546C28.6038 8.88507 28.393 8.37645 28.0179 8.00146L20.6039 0.587465C20.2289 0.212366 19.7203 0.00157812 19.1899 0.00146484ZM19.6039 7.00146V3.00146L25.6039 9.00146H21.6039C21.0734 9.00146 20.5647 8.79075 20.1897 8.41568C19.8146 8.04061 19.6039 7.5319 19.6039 7.00146ZM9.60388 18.0015C9.33867 18.0015 9.08431 17.8961 8.89678 17.7086C8.70924 17.521 8.60388 17.2667 8.60388 17.0015C8.60388 16.7362 8.70924 16.4819 8.89678 16.2944C9.08431 16.1068 9.33867 16.0015 9.60388 16.0015H23.6039C23.8691 16.0015 24.1235 16.1068 24.311 16.2944C24.4985 16.4819 24.6039 16.7362 24.6039 17.0015C24.6039 17.2667 24.4985 17.521 24.311 17.7086C24.1235 17.8961 23.8691 18.0015 23.6039 18.0015H9.60388ZM8.60388 21.0015C8.60388 20.7362 8.70924 20.4819 8.89678 20.2944C9.08431 20.1068 9.33867 20.0015 9.60388 20.0015H23.6039C23.8691 20.0015 24.1235 20.1068 24.311 20.2944C24.4985 20.4819 24.6039 20.7362 24.6039 21.0015C24.6039 21.2667 24.4985 21.521 24.311 21.7086C24.1235 21.8961 23.8691 22.0015 23.6039 22.0015H9.60388C9.33867 22.0015 9.08431 21.8961 8.89678 21.7086C8.70924 21.521 8.60388 21.2667 8.60388 21.0015ZM9.60388 26.0015C9.33867 26.0015 9.08431 25.8961 8.89678 25.7086C8.70924 25.521 8.60388 25.2667 8.60388 25.0015C8.60388 24.7362 8.70924 24.4819 8.89678 24.2944C9.08431 24.1068 9.33867 24.0015 9.60388 24.0015H17.6039C17.8691 24.0015 18.1235 24.1068 18.311 24.2944C18.4985 24.4819 18.6039 24.7362 18.6039 25.0015C18.6039 25.2667 18.4985 25.521 18.311 25.7086C18.1235 25.8961 17.8691 26.0015 17.6039 26.0015H9.60388Z" fill="#487CFB"/>
</g>
<defs>
<clipPath id="clip0_1339_14521">
<rect width="32" height="32" fill="white" transform="translate(0.599976)"/>
</clipPath>
</defs>
</svg>
