<svg width="24" height="24" viewBox="0 0 24 24" fill="none" xmlns="http://www.w3.org/2000/svg">
<path fill-rule="evenodd" clip-rule="evenodd" d="M6.96888 2.47266C7.03854 2.40282 7.12131 2.3474 7.21243 2.30959C7.30354 2.27178 7.40122 2.25232 7.49988 2.25232C7.59853 2.25232 7.69621 2.27178 7.78733 2.30959C7.87844 2.3474 7.96121 2.40282 8.03088 2.47266L17.0309 11.4727C17.1007 11.5423 17.1561 11.6251 17.1939 11.7162C17.2318 11.8073 17.2512 11.905 17.2512 12.0037C17.2512 12.1023 17.2318 12.2 17.1939 12.2911C17.1561 12.3822 17.1007 12.465 17.0309 12.5347L8.03088 21.5347C7.89005 21.6755 7.69904 21.7546 7.49988 21.7546C7.30071 21.7546 7.10971 21.6755 6.96888 21.5347C6.82805 21.3938 6.74893 21.2028 6.74893 21.0037C6.74893 20.8045 6.82805 20.6135 6.96888 20.4727L15.4394 12.0037L6.96888 3.53466C6.89903 3.46499 6.84362 3.38223 6.80581 3.29111C6.768 3.19999 6.74854 3.10231 6.74854 3.00366C6.74854 2.90501 6.768 2.80733 6.80581 2.71621C6.84362 2.62509 6.89903 2.54233 6.96888 2.47266V2.47266Z" fill="#487CFB"/>
</svg>
