<svg width="16" height="16" viewBox="0 0 16 16" fill="none" xmlns="http://www.w3.org/2000/svg">
<g clip-path="url(#clip0_1_129401)">
<path d="M12.8541 0.146027C12.7603 0.0522915 12.6331 -0.000366211 12.5006 -0.000366211C12.368 -0.000366211 12.2408 0.0522915 12.1471 0.146027L10.5001 1.79303L14.2071 5.50003L15.8541 3.85403C15.9006 3.80758 15.9376 3.75241 15.9628 3.69166C15.988 3.63092 16.0009 3.56579 16.0009 3.50003C16.0009 3.43426 15.988 3.36914 15.9628 3.30839C15.9376 3.24765 15.9006 3.19247 15.8541 3.14603L12.8541 0.146027ZM13.5001 6.20703L9.79305 2.50003L3.29305 9.00003H3.50005C3.63266 9.00003 3.75984 9.0527 3.8536 9.14647C3.94737 9.24024 4.00005 9.36742 4.00005 9.50003V10H4.50005C4.63266 10 4.75984 10.0527 4.8536 10.1465C4.94737 10.2402 5.00005 10.3674 5.00005 10.5V11H5.50005C5.63266 11 5.75984 11.0527 5.8536 11.1465C5.94737 11.2402 6.00005 11.3674 6.00005 11.5V12H6.50005C6.63266 12 6.75984 12.0527 6.8536 12.1465C6.94737 12.2402 7.00005 12.3674 7.00005 12.5V12.707L13.5001 6.20703ZM6.03205 13.675C6.01101 13.6191 6.00017 13.5598 6.00005 13.5V13H5.50005C5.36744 13 5.24026 12.9473 5.1465 12.8536C5.05273 12.7598 5.00005 12.6326 5.00005 12.5V12H4.50005C4.36744 12 4.24026 11.9473 4.1465 11.8536C4.05273 11.7598 4.00005 11.6326 4.00005 11.5V11H3.50005C3.36744 11 3.24027 10.9473 3.1465 10.8536C3.05273 10.7598 3.00005 10.6326 3.00005 10.5V10H2.50005C2.44027 9.99993 2.381 9.98909 2.32505 9.96803L2.14605 10.146C2.0984 10.194 2.06098 10.2512 2.03605 10.314L0.0360502 15.314C-0.000320453 15.4049 -0.00922396 15.5044 0.0104435 15.6003C0.030111 15.6962 0.0774845 15.7842 0.146691 15.8534C0.215897 15.9226 0.303893 15.97 0.39977 15.9896C0.495646 16.0093 0.595186 16.0004 0.68605 15.964L5.68605 13.964C5.74891 13.9391 5.80607 13.9017 5.85405 13.854L6.03205 13.676V13.675Z" fill="#487CFB"/>
</g>
<defs>
<clipPath id="clip0_1_129401">
<rect width="16" height="16" fill="white"/>
</clipPath>
</defs>
</svg>
