<svg width="16" height="17" viewBox="0 0 16 17" fill="none" xmlns="http://www.w3.org/2000/svg">
<g clip-path="url(#clip0_812_1936)">
<path d="M6.956 2.24504C7.021 1.31004 7.908 0.58704 8.864 0.82504L9.125 0.89104C9.588 1.00704 9.999 1.34704 10.137 1.85604C10.357 2.67204 10.67 4.36704 10.199 6.36604C10.3463 6.3457 10.494 6.32869 10.642 6.31504C11.355 6.25004 12.311 6.24304 13.158 6.52504C13.676 6.69804 14.152 7.20604 14.358 7.79804C14.542 8.33004 14.518 8.96004 14.124 9.53104C14.182 9.65004 14.227 9.77304 14.262 9.89404C14.339 10.164 14.375 10.461 14.375 10.75C14.375 11.039 14.339 11.336 14.262 11.606C14.223 11.741 14.172 11.879 14.102 12.01C14.271 12.397 14.209 12.829 14.099 13.158C13.9864 13.4829 13.8216 13.7872 13.611 14.059C13.665 14.211 13.687 14.371 13.687 14.524C13.687 14.829 13.598 15.149 13.434 15.436C13.1 16.022 12.437 16.5 11.5 16.5H8C7.395 16.5 6.93 16.419 6.534 16.282C6.1935 16.1577 5.8681 15.9953 5.564 15.798L5.516 15.768C5.012 15.461 4.517 15.159 3.448 15.046C2.682 14.964 2 14.346 2 13.5V9.50004C2 8.65004 2.685 8.06804 3.357 7.88504C4.206 7.65304 4.931 7.09804 5.489 6.47504C6.049 5.84804 6.403 5.19504 6.528 4.83604C6.727 4.26104 6.884 3.29704 6.956 2.24604V2.24504Z" fill="#198754"/>
</g>
<defs>
<clipPath id="clip0_812_1936">
<rect width="16" height="16" fill="white" transform="translate(0 0.5)"/>
</clipPath>
</defs>
</svg>
