<svg width="36" height="36" viewBox="0 0 36 36" fill="none" xmlns="http://www.w3.org/2000/svg">
<g opacity="0.3">
<path fill-rule="evenodd" clip-rule="evenodd" d="M21.8787 6.87893L23.5607 8.56091C23.842 8.84221 24.2235 9.00024 24.6213 9.00024H28.5C30.1569 9.00024 31.5 10.3434 31.5 12.0002V25.5002C31.5 27.1571 30.1569 28.5002 28.5 28.5002H7.5C5.84315 28.5002 4.5 27.1571 4.5 25.5002V12.0002C4.5 10.3434 5.84315 9.00024 7.5 9.00024H11.3787C11.7765 9.00024 12.158 8.84221 12.4393 8.56091L14.1213 6.87893C14.6839 6.31632 15.447 6.00024 16.2426 6.00024H19.7574C20.553 6.00024 21.3161 6.31632 21.8787 6.87893Z" stroke="#323232" stroke-width="2.25" stroke-linecap="round" stroke-linejoin="round"/>
<circle cx="18" cy="18.0002" r="6" stroke="#323232" stroke-width="2.25" stroke-linecap="round" stroke-linejoin="round"/>
<path d="M27.075 13.5003C27.0749 13.5417 27.0414 13.5753 27 13.5752C26.9586 13.5752 26.925 13.5417 26.925 13.5003C26.925 13.4589 26.9585 13.4253 26.9999 13.4252C27.0198 13.4252 27.039 13.4331 27.053 13.4472C27.0671 13.4613 27.075 13.4804 27.075 13.5003" stroke="#323232" stroke-width="2.25" stroke-linecap="round" stroke-linejoin="round"/>
</g>
</svg>
