<svg width="24" height="24" viewBox="0 0 24 24" fill="none" xmlns="http://www.w3.org/2000/svg">
<path d="M6 20.0876H8.61029C8.95063 20.0876 9.28888 20.1281 9.61881 20.2091L12.3769 20.8794C12.9753 21.0252 13.5988 21.0393 14.2035 20.9219L17.253 20.3286C18.0585 20.1717 18.7996 19.7859 19.3803 19.221L21.5379 17.1222C22.154 16.5239 22.154 15.5529 21.5379 14.9536C20.9832 14.4139 20.1047 14.3532 19.4771 14.8108L16.9626 16.6453C16.6025 16.9086 16.1643 17.0503 15.7137 17.0503H13.2855L14.8311 17.0503C15.7022 17.0503 16.4079 16.3638 16.4079 15.5164V15.2096C16.4079 14.506 15.9156 13.8925 15.2141 13.7224L12.8286 13.1422C12.4404 13.0481 12.0428 13.0005 11.6431 13.0005C10.6783 13.0005 8.93189 13.7993 8.93189 13.7993L6 15.0254M2 14.6005L2 20.4005C2 20.9605 2 21.2406 2.10899 21.4545C2.20487 21.6426 2.35785 21.7956 2.54601 21.8915C2.75992 22.0005 3.03995 22.0005 3.6 22.0005H4.4C4.96005 22.0005 5.24008 22.0005 5.45399 21.8915C5.64215 21.7956 5.79513 21.6426 5.89101 21.4545C6 21.2406 6 20.9605 6 20.4005V14.6005C6 14.0404 6 13.7604 5.89101 13.5465C5.79513 13.3583 5.64215 13.2054 5.45399 13.1095C5.24008 13.0005 4.96005 13.0005 4.4 13.0005H3.6C3.03995 13.0005 2.75992 13.0005 2.54601 13.1095C2.35785 13.2054 2.20487 13.3583 2.10899 13.5465C2 13.7604 2 14.0404 2 14.6005ZM17.1914 3.59275C16.5946 2.34389 15.2186 1.68227 13.8804 2.32086C12.5423 2.95945 11.9722 4.47387 12.5325 5.80332C12.8787 6.62495 13.8707 8.22049 14.5781 9.31952C14.8394 9.7256 14.9701 9.92864 15.161 10.0474C15.3247 10.1493 15.5297 10.2042 15.7224 10.1978C15.9471 10.1904 16.1618 10.0799 16.5911 9.85892C17.7532 9.2608 19.4101 8.37504 20.1208 7.83661C21.2707 6.96541 21.5556 5.36407 20.6947 4.14673C19.8337 2.92939 18.3327 2.80961 17.1914 3.59275Z" stroke="#487CFB" stroke-width="2" stroke-linecap="round" stroke-linejoin="round"/>
</svg>
