<svg width="16" height="16" viewBox="0 0 16 16" fill="none" xmlns="http://www.w3.org/2000/svg">
    <g clip-path="url(#clip0_265_7800)">
        <path d="M10.0672 0.869951C9.798 0.594492 9.47649 0.375612 9.12152 0.226174C8.76656 0.0767365 8.38531 -0.000244141 8.00017 -0.000244141C7.61503 -0.000244141 7.23378 0.0767365 6.87882 0.226174C6.52386 0.375612 6.20234 0.594492 5.93317 0.869951L5.31117 1.50795L4.42117 1.49695C4.03592 1.49239 3.65365 1.56491 3.29683 1.71024C2.94002 1.85557 2.61586 2.07078 2.34343 2.34321C2.071 2.61564 1.85579 2.9398 1.71046 3.29661C1.56513 3.65343 1.49261 4.0357 1.49717 4.42095L1.50717 5.31095L0.871172 5.93295C0.595712 6.20212 0.376832 6.52364 0.227395 6.8786C0.0779572 7.23356 0.000976563 7.61481 0.000976562 7.99995C0.000976563 8.38509 0.0779572 8.76634 0.227395 9.1213C0.376832 9.47627 0.595712 9.79778 0.871172 10.067L1.50817 10.689L1.49717 11.579C1.49261 11.9642 1.56513 12.3465 1.71046 12.7033C1.85579 13.0601 2.071 13.3843 2.34343 13.6567C2.61586 13.9291 2.94002 14.1443 3.29683 14.2897C3.65365 14.435 4.03592 14.5075 4.42117 14.503L5.31117 14.493L5.93317 15.129C6.20234 15.4044 6.52386 15.6233 6.87882 15.7727C7.23378 15.9222 7.61503 15.9991 8.00017 15.9991C8.38531 15.9991 8.76656 15.9222 9.12152 15.7727C9.47649 15.6233 9.798 15.4044 10.0672 15.129L10.6892 14.492L11.5792 14.503C11.9644 14.5075 12.3467 14.435 12.7035 14.2897C13.0603 14.1443 13.3845 13.9291 13.6569 13.6567C13.9293 13.3843 14.1446 13.0601 14.2899 12.7033C14.4352 12.3465 14.5077 11.9642 14.5032 11.579L14.4932 10.689L15.1292 10.067C15.4046 9.79778 15.6235 9.47627 15.7729 9.1213C15.9224 8.76634 15.9994 8.38509 15.9994 7.99995C15.9994 7.61481 15.9224 7.23356 15.7729 6.8786C15.6235 6.52364 15.4046 6.20212 15.1292 5.93295L14.4922 5.31095L14.5032 4.42095C14.5077 4.0357 14.4352 3.65343 14.2899 3.29661C14.1446 2.9398 13.9293 2.61564 13.6569 2.34321C13.3845 2.07078 13.0603 1.85557 12.7035 1.71024C12.3467 1.56491 11.9644 1.49239 11.5792 1.49695L10.6892 1.50695L10.0672 0.870951V0.869951ZM10.3542 6.85395L7.35417 9.85395C7.30773 9.90051 7.25255 9.93746 7.19181 9.96266C7.13106 9.98787 7.06594 10.0008 7.00017 10.0008C6.9344 10.0008 6.86928 9.98787 6.80854 9.96266C6.74779 9.93746 6.69262 9.90051 6.64617 9.85395L5.14617 8.35395C5.09968 8.30746 5.06281 8.25227 5.03765 8.19153C5.01249 8.1308 4.99954 8.06569 4.99954 7.99995C4.99954 7.93421 5.01249 7.86911 5.03765 7.80837C5.06281 7.74763 5.09968 7.69244 5.14617 7.64595C5.19266 7.59946 5.24785 7.56259 5.30859 7.53743C5.36933 7.51227 5.43443 7.49932 5.50017 7.49932C5.56592 7.49932 5.63102 7.51227 5.69176 7.53743C5.75249 7.56259 5.80768 7.59946 5.85417 7.64595L7.00017 8.79295L9.64617 6.14595C9.74006 6.05206 9.8674 5.99932 10.0002 5.99932C10.1329 5.99932 10.2603 6.05206 10.3542 6.14595C10.4481 6.23984 10.5008 6.36718 10.5008 6.49995C10.5008 6.63273 10.4481 6.76006 10.3542 6.85395Z"
              fill="#487CFB"/>
    </g>
    <defs>
        <clipPath id="clip0_265_7800">
            <rect width="16" height="16" fill="white"/>
        </clipPath>
    </defs>
</svg>
