<svg width="16" height="17" viewBox="0 0 16 17" fill="none" xmlns="http://www.w3.org/2000/svg">
<g clip-path="url(#clip0_1_129409)">
<path fill-rule="evenodd" clip-rule="evenodd" d="M1.88498 1.01102C2.05996 0.836313 2.27006 0.700783 2.50138 0.613415C2.7327 0.526046 2.97994 0.488835 3.22672 0.504248C3.47351 0.51966 3.7142 0.587343 3.93285 0.702813C4.15149 0.818282 4.34311 0.978901 4.49498 1.17402L6.28998 3.48002C6.61898 3.90302 6.73498 4.45402 6.60498 4.97402L6.05798 7.16402C6.0297 7.27745 6.03123 7.39627 6.06242 7.50893C6.09361 7.6216 6.1534 7.72429 6.23598 7.80702L8.69298 10.264C8.77582 10.3468 8.87868 10.4067 8.99153 10.4379C9.10439 10.4691 9.22341 10.4705 9.33698 10.442L11.526 9.89503C11.7826 9.83086 12.0504 9.82588 12.3093 9.88045C12.5681 9.93502 12.8111 10.0477 13.02 10.21L15.326 12.004C16.155 12.649 16.231 13.874 15.489 14.615L14.455 15.649C13.715 16.389 12.609 16.714 11.578 16.351C8.93917 15.4226 6.54325 13.9119 4.56798 11.931C2.58727 9.95604 1.07659 7.56048 0.147983 4.92202C-0.214017 3.89202 0.110983 2.78502 0.850983 2.04502L1.88498 1.01102Z" fill="#487CFB"/>
</g>
<defs>
<clipPath id="clip0_1_129409">
<rect width="16" height="16" fill="white" transform="translate(0 0.5)"/>
</clipPath>
</defs>
</svg>
