<svg width="73" height="72" viewBox="0 0 73 72" fill="none" xmlns="http://www.w3.org/2000/svg">
<path d="M0.400024 36C0.400024 16.1178 16.5178 0 36.4 0C56.2823 0 72.4 16.1178 72.4 36C72.4 55.8823 56.2823 72 36.4 72C16.5178 72 0.400024 55.8823 0.400024 36Z" fill="#F5F7FC"/>
<g clip-path="url(#clip0_1339_14517)">
<rect width="32" height="32" transform="translate(20.4 20)" fill="white" fill-opacity="0.01"/>
<path d="M38.9899 20.0015H28.4039C27.3431 20.0015 26.3256 20.4229 25.5755 21.173C24.8254 21.9232 24.4039 22.9406 24.4039 24.0015V48.0015C24.4039 49.0623 24.8254 50.0797 25.5755 50.8299C26.3256 51.58 27.3431 52.0015 28.4039 52.0015H44.4039C45.4648 52.0015 46.4822 51.58 47.2324 50.8299C47.9825 50.0797 48.4039 49.0623 48.4039 48.0015V29.4155C48.4038 28.8851 48.193 28.3765 47.8179 28.0015L40.4039 20.5875C40.0289 20.2124 39.5203 20.0016 38.9899 20.0015ZM39.4039 27.0015V23.0015L45.4039 29.0015H41.4039C40.8735 29.0015 40.3648 28.7908 39.9897 28.4157C39.6146 28.0406 39.4039 27.5319 39.4039 27.0015ZM33.4039 31.0015V32.2695L34.5019 31.6355C34.6157 31.5688 34.7415 31.5252 34.8722 31.5074C35.0029 31.4895 35.1358 31.4977 35.2633 31.5314C35.3908 31.5651 35.5103 31.6237 35.6151 31.7038C35.7199 31.7839 35.8078 31.8839 35.8737 31.9981C35.9396 32.1123 35.9823 32.2385 35.9993 32.3693C36.0163 32.5 36.0073 32.6329 35.9727 32.7602C35.9382 32.8874 35.8788 33.0066 35.798 33.1108C35.7172 33.2151 35.6166 33.3023 35.5019 33.3675L34.4039 34.0015L35.5019 34.6355C35.6166 34.7006 35.7172 34.7879 35.798 34.8921C35.8788 34.9963 35.9382 35.1155 35.9727 35.2428C36.0073 35.37 36.0163 35.5029 35.9993 35.6337C35.9823 35.7645 35.9396 35.8906 35.8737 36.0048C35.8078 36.119 35.7199 36.219 35.6151 36.2992C35.5103 36.3793 35.3908 36.4379 35.2633 36.4716C35.1358 36.5053 35.0029 36.5134 34.8722 36.4956C34.7415 36.4777 34.6157 36.4342 34.5019 36.3675L33.4039 35.7335V37.0015C33.4039 37.2667 33.2986 37.521 33.111 37.7086C32.9235 37.8961 32.6691 38.0015 32.4039 38.0015C32.1387 38.0015 31.8844 37.8961 31.6968 37.7086C31.5093 37.521 31.4039 37.2667 31.4039 37.0015V35.7335L30.3059 36.3675C30.1922 36.4342 30.0663 36.4777 29.9357 36.4956C29.805 36.5134 29.6721 36.5053 29.5446 36.4716C29.4171 36.4379 29.2975 36.3793 29.1928 36.2992C29.088 36.219 29.0001 36.119 28.9342 36.0048C28.8682 35.8906 28.8255 35.7645 28.8085 35.6337C28.7915 35.5029 28.8006 35.37 28.8351 35.2428C28.8697 35.1155 28.9291 34.9963 29.0099 34.8921C29.0907 34.7879 29.1913 34.7006 29.3059 34.6355L30.4039 34.0015L29.3059 33.3675C29.0781 33.2339 28.9124 33.0157 28.8449 32.7604C28.7774 32.5051 28.8136 32.2335 28.9457 32.0048C29.0777 31.7761 29.2948 31.6089 29.5497 31.5397C29.8045 31.4705 30.0764 31.5049 30.3059 31.6355L31.4039 32.2695V31.0015C31.4039 30.7362 31.5093 30.4819 31.6968 30.2944C31.8844 30.1068 32.1387 30.0015 32.4039 30.0015C32.6691 30.0015 32.9235 30.1068 33.111 30.2944C33.2986 30.4819 33.4039 30.7362 33.4039 31.0015ZM29.4039 40.0015H39.4039C39.6691 40.0015 39.9235 40.1068 40.111 40.2944C40.2986 40.4819 40.4039 40.7362 40.4039 41.0015C40.4039 41.2667 40.2986 41.521 40.111 41.7086C39.9235 41.8961 39.6691 42.0015 39.4039 42.0015H29.4039C29.1387 42.0015 28.8844 41.8961 28.6968 41.7086C28.5093 41.521 28.4039 41.2667 28.4039 41.0015C28.4039 40.7362 28.5093 40.4819 28.6968 40.2944C28.8844 40.1068 29.1387 40.0015 29.4039 40.0015ZM29.4039 44.0015H39.4039C39.6691 44.0015 39.9235 44.1068 40.111 44.2944C40.2986 44.4819 40.4039 44.7362 40.4039 45.0015C40.4039 45.2667 40.2986 45.521 40.111 45.7086C39.9235 45.8961 39.6691 46.0015 39.4039 46.0015H29.4039C29.1387 46.0015 28.8844 45.8961 28.6968 45.7086C28.5093 45.521 28.4039 45.2667 28.4039 45.0015C28.4039 44.7362 28.5093 44.4819 28.6968 44.2944C28.8844 44.1068 29.1387 44.0015 29.4039 44.0015Z" fill="#487CFB"/>
</g>
<defs>
<clipPath id="clip0_1339_14517">
<rect width="32" height="32" fill="white" transform="translate(20.4 20)"/>
</clipPath>
</defs>
</svg>
