<svg width="72" height="72" viewBox="0 0 72 72" fill="none" xmlns="http://www.w3.org/2000/svg">
<path d="M0 36C0 16.1178 16.1178 0 36 0C55.8823 0 72 16.1178 72 36C72 55.8823 55.8823 72 36 72C16.1178 72 0 55.8823 0 36Z" fill="#F5F7FC"/>
<g clip-path="url(#clip0_1339_14503)">
<rect width="32" height="32" transform="translate(20 20)" fill="white" fill-opacity="0.01"/>
<path d="M36.0039 26.0015C36.2691 26.0015 36.5235 26.1068 36.711 26.2944C36.8986 26.4819 37.0039 26.7362 37.0039 27.0015V31.0015C37.0039 31.2667 36.8986 31.521 36.711 31.7086C36.5235 31.8961 36.2691 32.0015 36.0039 32.0015C35.7387 32.0015 35.4843 31.8961 35.2968 31.7086C35.1093 31.521 35.0039 31.2667 35.0039 31.0015V27.0015C35.0039 26.7362 35.1093 26.4819 35.2968 26.2944C35.4843 26.1068 35.7387 26.0015 36.0039 26.0015ZM52.0039 42.0015C52.0039 42.2667 51.8986 42.521 51.711 42.7086C51.5235 42.8961 51.2691 43.0015 51.0039 43.0015H47.0039C46.7387 43.0015 46.4843 42.8961 46.2968 42.7086C46.1093 42.521 46.0039 42.2667 46.0039 42.0015C46.0039 41.7362 46.1093 41.4819 46.2968 41.2944C46.4843 41.1068 46.7387 41.0015 47.0039 41.0015H51.0039C51.2691 41.0015 51.5235 41.1068 51.711 41.2944C51.8986 41.4819 52.0039 41.7362 52.0039 42.0015ZM25.0039 43.0015C25.2691 43.0015 25.5235 42.8961 25.711 42.7086C25.8985 42.521 26.0039 42.2667 26.0039 42.0015C26.0039 41.7362 25.8985 41.4819 25.711 41.2944C25.5235 41.1068 25.2691 41.0015 25.0039 41.0015H21.0039C20.7387 41.0015 20.4843 41.1068 20.2968 41.2944C20.1093 41.4819 20.0039 41.7362 20.0039 42.0015C20.0039 42.2667 20.1093 42.521 20.2968 42.7086C20.4843 42.8961 20.7387 43.0015 21.0039 43.0015H25.0039ZM47.3179 30.6875C47.5054 30.875 47.6107 31.1293 47.6107 31.3945C47.6107 31.6596 47.5054 31.9139 47.3179 32.1015L44.4899 34.9295C44.3977 35.025 44.2873 35.1012 44.1653 35.1536C44.0433 35.206 43.9121 35.2336 43.7793 35.2347C43.6465 35.2359 43.5148 35.2106 43.392 35.1603C43.2691 35.11 43.1574 35.0358 43.0635 34.9419C42.9696 34.848 42.8954 34.7363 42.8451 34.6134C42.7948 34.4905 42.7695 34.3588 42.7707 34.2261C42.7718 34.0933 42.7994 33.9621 42.8518 33.8401C42.9042 33.7181 42.9804 33.6077 43.0759 33.5155L45.9039 30.6875C46.0914 30.5 46.3457 30.3947 46.6109 30.3947C46.8761 30.3947 47.1304 30.5 47.3179 30.6875ZM27.5179 34.9295C27.7065 35.1116 27.9591 35.2124 28.2213 35.2101C28.4835 35.2079 28.7343 35.1027 28.9197 34.9173C29.1051 34.7319 29.2103 34.4811 29.2126 34.2189C29.2149 33.9567 29.1141 33.7041 28.9319 33.5155L26.1039 30.6875C26.0117 30.592 25.9013 30.5158 25.7793 30.4634C25.6573 30.411 25.5261 30.3834 25.3933 30.3822C25.2605 30.3811 25.1288 30.4064 25.006 30.4566C24.8831 30.5069 24.7714 30.5812 24.6775 30.6751C24.5836 30.769 24.5094 30.8806 24.4591 31.0035C24.4088 31.1264 24.3835 31.2581 24.3847 31.3909C24.3858 31.5236 24.4134 31.6549 24.4658 31.7769C24.5182 31.8989 24.5944 32.0092 24.6899 32.1015L27.5179 34.9295ZM36.0039 34.0015C33.8822 34.0015 31.8473 34.8443 30.3471 36.3446C28.8468 37.8449 28.0039 39.8797 28.0039 42.0015C28.0039 42.2667 28.1093 42.521 28.2968 42.7086C28.4843 42.8961 28.7387 43.0015 29.0039 43.0015H43.0039C43.2691 43.0015 43.5235 42.8961 43.711 42.7086C43.8986 42.521 44.0039 42.2667 44.0039 42.0015C44.0039 39.8797 43.1611 37.8449 41.6608 36.3446C40.1605 34.8443 38.1256 34.0015 36.0039 34.0015Z" fill="#487CFB"/>
</g>
<defs>
<clipPath id="clip0_1339_14503">
<rect width="32" height="32" fill="white" transform="translate(20 20)"/>
</clipPath>
</defs>
</svg>
