<svg width="73" height="72" viewBox="0 0 73 72" fill="none" xmlns="http://www.w3.org/2000/svg">
<path d="M0.199951 36C0.199951 16.1178 16.3177 0 36.2 0C56.0822 0 72.2 16.1178 72.2 36C72.2 55.8823 56.0822 72 36.2 72C16.3177 72 0.199951 55.8823 0.199951 36Z" fill="#F5F7FC"/>
<g clip-path="url(#clip0_1339_14519)">
<rect width="32" height="32" transform="translate(20.2 20)" fill="white" fill-opacity="0.01"/>
<path d="M40.2039 38.1015C41.5299 38.1015 42.8017 37.5747 43.7394 36.637C44.6771 35.6993 45.2039 34.4275 45.2039 33.1015C45.2039 31.7754 44.6771 30.5036 43.7394 29.5659C42.8017 28.6282 41.5299 28.1015 40.2039 28.1015C38.8778 28.1015 37.606 28.6282 36.6683 29.5659C35.7306 30.5036 35.2039 31.7754 35.2039 33.1015C35.2039 34.4275 35.7306 35.6993 36.6683 36.637C37.606 37.5747 38.8778 38.1015 40.2039 38.1015Z" fill="#487CFB"/>
<path d="M24.2039 22.0015C23.143 22.0015 22.1256 22.4229 21.3754 23.173C20.6253 23.9232 20.2039 24.9406 20.2039 26.0015V44.0015C20.2039 45.0623 20.6253 46.0797 21.3754 46.8299C22.1256 47.58 23.143 48.0015 24.2039 48.0015H48.2039C49.2647 48.0015 50.2821 47.58 51.0323 46.8299C51.7824 46.0797 52.2039 45.0623 52.2039 44.0015V26.0015C52.2039 24.9406 51.7824 23.9232 51.0323 23.173C50.2821 22.4229 49.2647 22.0015 48.2039 22.0015H24.2039ZM22.2039 26.0015C22.2039 25.471 22.4146 24.9623 22.7896 24.5873C23.1647 24.2122 23.6734 24.0015 24.2039 24.0015H28.2039V28.0015H22.2039V26.0015ZM30.2039 46.0015V24.0015H48.2039C48.7343 24.0015 49.243 24.2122 49.6181 24.5873C49.9931 24.9623 50.2039 25.471 50.2039 26.0015V44.0015C50.2039 44.5715 49.9639 45.0875 49.5839 45.4515C48.5039 42.9895 45.8479 40.0015 40.2039 40.0015C34.1299 40.0015 31.5139 43.4615 30.6079 46.0015H30.2039ZM22.2039 42.0015H28.2039V46.0015H24.2039C23.6734 46.0015 23.1647 45.7908 22.7896 45.4157C22.4146 45.0406 22.2039 44.5319 22.2039 44.0015V42.0015ZM28.2039 40.0015H22.2039V36.0015H28.2039V40.0015ZM28.2039 34.0015H22.2039V30.0015H28.2039V34.0015Z" fill="#487CFB"/>
</g>
<defs>
<clipPath id="clip0_1339_14519">
<rect width="32" height="32" fill="white" transform="translate(20.2 20)"/>
</clipPath>
</defs>
</svg>
