<svg width="26" height="25" viewBox="0 0 26 25" fill="none" xmlns="http://www.w3.org/2000/svg">
<path fill-rule="evenodd" clip-rule="evenodd" d="M19.7394 3.80646C19.4075 3.39929 18.9987 3.06148 18.5363 2.8123C18.0738 2.56313 17.5669 2.40748 17.0443 2.35424C16.5217 2.301 15.9938 2.35121 15.4906 2.50201C14.9874 2.6528 14.5188 2.90123 14.1117 3.23311C13.7045 3.56498 13.3667 3.97381 13.1175 4.43623C12.8684 4.89866 12.7127 5.40564 12.6595 5.92822C12.6062 6.4508 12.6564 6.97876 12.8072 7.48193C12.958 7.98511 13.2065 8.45366 13.5383 8.86083C13.8702 9.268 14.279 9.60581 14.7415 9.85498C15.2039 10.1042 15.7109 10.2598 16.2334 10.313C16.756 10.3663 17.284 10.3161 17.7872 10.1653C18.2903 10.0145 18.7589 9.76606 19.1661 9.43418C19.5732 9.10231 19.911 8.69348 20.1602 8.23105C20.4094 7.76863 20.565 7.26165 20.6183 6.73906C20.6715 6.21648 20.6213 5.68853 20.4705 5.18535C20.3197 4.68217 20.0713 4.21363 19.7394 3.80646Z" fill="#487CFB"/>
<path fill-rule="evenodd" clip-rule="evenodd" d="M8.70578 14.5287C8.89246 14.0377 8.9806 13.5147 8.96518 12.9897C8.94975 12.4646 8.83106 11.9477 8.61588 11.4685C8.40069 10.9893 8.09323 10.5572 7.71105 10.1969C7.32887 9.8365 6.87945 9.55494 6.38845 9.36826C5.89746 9.18158 5.3745 9.09343 4.84944 9.10886C4.32438 9.12428 3.8075 9.24298 3.32831 9.45816C2.84912 9.67334 2.41701 9.9808 2.05664 10.363C1.69627 10.7452 1.41471 11.1946 1.22803 11.6856C1.04135 12.1766 0.953204 12.6995 0.96863 13.2246C0.984055 13.7497 1.10275 14.2665 1.31793 14.7457C1.53311 15.2249 1.84057 15.657 2.22276 16.0174C2.60494 16.3778 3.05436 16.6593 3.54535 16.846C4.03635 17.0327 4.55931 17.1208 5.08437 17.1054C5.60943 17.09 6.12631 16.9713 6.6055 16.7561C7.08469 16.5409 7.5168 16.2335 7.87717 15.8513C8.23754 15.4691 8.5191 15.0197 8.70578 14.5287Z" fill="#487CFB"/>
<path fill-rule="evenodd" clip-rule="evenodd" d="M14.1577 17.4663C14.4651 17.0404 14.8534 16.6791 15.3004 16.4032C15.7474 16.1274 16.2443 15.9422 16.7629 15.8584C17.2814 15.7746 17.8114 15.7937 18.3226 15.9147C18.8338 16.0357 19.3161 16.2562 19.742 16.5636C20.168 16.871 20.5292 17.2593 20.8051 17.7063C21.081 18.1533 21.2661 18.6502 21.35 19.1688C21.4338 19.6873 21.4147 20.2173 21.2937 20.7285C21.1727 21.2397 20.9522 21.722 20.6448 22.1479C20.3374 22.5739 19.9491 22.9351 19.5021 23.211C19.0551 23.4869 18.5581 23.672 18.0396 23.7559C17.521 23.8397 16.991 23.8206 16.4799 23.6996C15.9687 23.5786 15.4864 23.3581 15.0604 23.0507C14.6345 22.7433 14.2732 22.355 13.9973 21.908C13.7215 21.461 13.5363 20.964 13.4525 20.4455C13.3687 19.9269 13.3878 19.3969 13.5088 18.8857C13.6298 18.3746 13.8503 17.8923 14.1577 17.4663Z" fill="#487CFB"/>
<path fill-rule="evenodd" clip-rule="evenodd" d="M13.2798 6.39016C13.339 6.18279 13.4206 5.98192 13.5234 5.79115C13.7103 5.44433 13.9636 5.13771 14.269 4.88881C14.4143 4.77041 14.5699 4.66617 14.7339 4.57724C14.4117 4.50804 14.0853 4.45646 13.7562 4.42293C12.5804 4.30314 11.3925 4.41611 10.2603 4.7554C9.12818 5.0947 8.07395 5.65366 7.15782 6.40038C6.24169 7.14709 5.48161 8.06695 4.92097 9.10741C4.57696 9.74585 4.31218 10.422 4.13125 11.1209C4.28424 11.0142 4.44722 10.9218 4.61819 10.845C4.97758 10.6836 5.36525 10.5946 5.75904 10.583C5.97565 10.5767 6.19178 10.5938 6.40371 10.6338C6.48734 10.4374 6.58005 10.2447 6.68164 10.0561C7.11769 9.24687 7.70887 8.53142 8.42141 7.95064C9.13396 7.36986 9.95392 6.93511 10.8345 6.67122C11.6273 6.43363 12.4552 6.33872 13.2798 6.39016ZM18.4391 9.17012C18.9356 9.83053 19.3117 10.5742 19.5494 11.3671C19.8132 12.2476 19.9011 13.1715 19.8079 14.0861C19.7148 15.0006 19.4424 15.8878 19.0063 16.6971C18.9047 16.8856 18.7947 17.0691 18.6767 17.2469C18.8266 17.4019 18.9598 17.573 19.0736 17.7573C19.2805 18.0926 19.4193 18.4653 19.4822 18.8542C19.5121 19.0393 19.5246 19.2263 19.5196 19.4128C20.0038 18.8773 20.423 18.2843 20.767 17.6458C21.3276 16.6053 21.6779 15.4646 21.7976 14.2888C21.9174 13.113 21.8045 11.9251 21.4652 10.7929C21.1259 9.66078 20.5669 8.60654 19.8202 7.69041C19.6111 7.43394 19.3885 7.18969 19.1535 6.95863C19.1694 7.14447 19.1679 7.33183 19.149 7.51827C19.109 7.91021 18.9923 8.29044 18.8054 8.63727C18.7026 8.82802 18.5797 9.0066 18.4391 9.17012ZM15.2479 22.0496C15.0788 21.9704 14.9171 21.8754 14.765 21.7656C14.4456 21.5351 14.1747 21.2439 13.9677 20.9086C13.854 20.7243 13.7608 20.5287 13.6895 20.3253C13.1746 20.388 12.653 20.3934 12.1345 20.3405C11.22 20.2474 10.3328 19.975 9.52352 19.5389C8.71427 19.1029 7.99883 18.5117 7.41805 17.7992C7.08873 17.3951 6.80636 16.9566 6.57547 16.492C6.36637 16.5443 6.15173 16.5741 5.93524 16.5804C5.54144 16.592 5.14922 16.5259 4.78097 16.3859C4.60569 16.3192 4.43746 16.2365 4.27838 16.1389C4.62164 17.2033 5.16048 18.195 5.86778 19.0628C6.6145 19.9789 7.53435 20.739 8.57481 21.2996C9.61528 21.8602 10.756 22.2104 11.9318 22.3302C13.0455 22.4437 14.1701 22.3483 15.2479 22.0496Z" fill="#487CFB"/>
</svg>
