<svg width="24" height="24" viewBox="0 0 24 24" fill="none" xmlns="http://www.w3.org/2000/svg">
<g clip-path="url(#clip0_1791_50498)">
<path d="M7 19.0005V5.00049C7 4.07052 7 3.60553 7.10222 3.22403C7.37962 2.18876 8.18827 1.38011 9.22354 1.10271C9.60504 1.00049 9.57003 1.00049 10.5 1.00049C11.43 1.00049 14.1185 1.00049 14.5 1.10271C15.5353 1.38011 16.3439 2.18876 16.6213 3.22403C16.7235 3.60553 16.7235 4.07052 16.7235 5.00049V19.0005M5.7 19.0005H18.8C19.9201 19.0005 20.4802 19.0005 20.908 18.7825C21.2843 18.5908 21.5903 18.2848 21.782 17.9085C22 17.4806 22 16.9206 22 15.8005V8.20049C22 7.08038 22 6.52033 21.782 6.09251C21.5903 5.71618 21.2843 5.41022 20.908 5.21848C20.4802 5.00049 19.9201 5.00049 18.8 5.00049H5.7C4.57989 5.00049 3.51984 5.00049 3.09202 5.21848C2.71569 5.41022 2.40973 5.71618 2.21799 6.09251C2 6.52033 2 7.08038 2 8.20049V15.8005C2 16.9206 2 17.4806 2.21799 17.9085C2.40973 18.2848 2.71569 18.5908 3.09202 18.7825C3.51984 19.0005 4.5799 19.0005 5.7 19.0005Z" stroke="#487CFB" stroke-width="2" stroke-linecap="round" stroke-linejoin="round"/>
</g>
<defs>
<clipPath id="clip0_1791_50498">
<rect width="24" height="24" fill="white" transform="translate(0 0.000488281)"/>
</clipPath>
</defs>
</svg>
