<svg width="24" height="24" viewBox="0 0 24 24" fill="none" xmlns="http://www.w3.org/2000/svg">
<g clip-path="url(#clip0_147_27448)">
<rect width="24" height="24" fill="white" fill-opacity="0.01"/>
<path d="M12.7529 18.0011V19.7021C13.0389 19.8672 13.2624 20.122 13.3887 20.4271C13.5151 20.7322 13.5373 21.0704 13.4518 21.3894C13.3664 21.7083 13.178 21.9902 12.9161 22.1912C12.6541 22.3922 12.3331 22.5011 12.0029 22.5011C11.6727 22.5011 11.3518 22.3922 11.0898 22.1912C10.8278 21.9902 10.6395 21.7083 10.554 21.3894C10.4686 21.0704 10.4907 20.7322 10.6171 20.4271C10.7435 20.122 10.967 19.8672 11.2529 19.7021V18.0011H3.75293C3.15619 18.0011 2.5839 17.764 2.16194 17.3421C1.73998 16.9201 1.50293 16.3478 1.50293 15.7511V4.5011H22.5029V15.7511C22.5029 16.3478 22.2659 16.9201 21.8439 17.3421C21.422 17.764 20.8497 18.0011 20.2529 18.0011H12.7529ZM23.2529 3.0011C23.4518 3.0011 23.6426 2.92208 23.7833 2.78143C23.9239 2.64078 24.0029 2.45001 24.0029 2.2511C24.0029 2.05219 23.9239 1.86142 23.7833 1.72077C23.6426 1.58012 23.4518 1.5011 23.2529 1.5011H0.75293C0.554017 1.5011 0.363252 1.58012 0.2226 1.72077C0.0819473 1.86142 0.00292969 2.05219 0.00292969 2.2511C0.00292969 2.45001 0.0819473 2.64078 0.2226 2.78143C0.363252 2.92208 0.554017 3.0011 0.75293 3.0011H23.2529Z" fill="#CCD3E7"/>
</g>
<defs>
<clipPath id="clip0_147_27448">
<rect width="24" height="24" fill="white"/>
</clipPath>
</defs>
</svg>
