<svg width="16" height="16" viewBox="0 0 16 16" fill="none" xmlns="http://www.w3.org/2000/svg">
    <path d="M9.82797 3H13.81C14.0879 2.99997 14.3628 3.05787 14.6171 3.16999C14.8714 3.28212 15.0995 3.44601 15.2869 3.65122C15.4744 3.85643 15.617 4.09845 15.7056 4.36184C15.7943 4.62524 15.8271 4.90422 15.802 5.181L15.165 12.181C15.1198 12.6779 14.8905 13.14 14.5222 13.4766C14.1538 13.8131 13.6729 13.9998 13.174 14H2.82497C2.32601 13.9998 1.84514 13.8131 1.47677 13.4766C1.10839 13.14 0.879125 12.6779 0.833969 12.181L0.196969 5.181C0.154356 4.71778 0.275363 4.25427 0.538969 3.871L0.499969 3C0.499969 2.46957 0.710683 1.96086 1.08576 1.58579C1.46083 1.21071 1.96954 1 2.49997 1H6.17197C6.70236 1.00011 7.21098 1.2109 7.58597 1.586L8.41397 2.414C8.78895 2.7891 9.29758 2.99989 9.82797 3ZM1.50597 3.12C1.71997 3.042 1.94997 3 2.18997 3H7.58597L6.87897 2.293C6.69148 2.10545 6.43716 2.00006 6.17197 2H2.49997C2.23801 1.99995 1.9865 2.1027 1.7995 2.28614C1.6125 2.46959 1.50495 2.71909 1.49997 2.981L1.50597 3.12Z"
          fill="#A6B1D2"/>
</svg>
