<svg width="49" height="48" viewBox="0 0 49 48" fill="none" xmlns="http://www.w3.org/2000/svg">
<g clip-path="url(#clip0_1700_13823)">
<rect width="48" height="48" transform="translate(0.400024 0.000213623)" fill="white" fill-opacity="0.01"/>
<path d="M18.1058 35.503H41.2059C42.3655 35.503 43.3059 34.3275 43.3059 32.878C43.3059 22.7297 36.7243 14.5026 28.6058 14.5026V9.25251H40.1559C40.736 9.25251 41.2059 8.66516 41.2059 7.93999V5.31494C41.2059 4.58977 40.736 4.00241 40.1559 4.00241H12.8558C12.2756 4.00241 11.8057 4.58977 11.8057 5.31494V7.93999C11.8057 8.66516 12.2756 9.25251 12.8558 9.25251H24.4058V14.5026H10.7557L7.92073 9.77752C7.72254 9.44693 7.41082 9.25251 7.08073 9.25251H4.45637C3.77321 9.25251 3.27183 10.0548 3.43787 10.8833L5.50572 19.7527L11.8057 23.6903L16.4258 34.453C16.6214 34.779 16.875 35.0436 17.1666 35.2259C17.4582 35.4081 17.7798 35.503 18.1058 35.503ZM30.7058 20.0407C34.8107 21.0899 38.0578 25.1209 38.8952 30.2529H30.7058V20.0407ZM45.102 39.6399L43.6484 37.8188C43.2383 37.3052 42.5827 37.3184 42.1627 37.8196C41.6974 38.375 41.2544 38.7425 40.5457 38.7425H6.03072C5.45059 38.7425 4.98072 39.3315 4.98072 40.0575V42.6874C4.98072 43.4134 5.45059 44.0024 6.03072 44.0024H40.5457C41.5222 44.0024 42.8623 43.9639 45.0377 41.5808C45.4984 41.0771 45.5345 40.1821 45.102 39.6399Z" fill="#CCD3E7"/>
</g>
<defs>
<clipPath id="clip0_1700_13823">
<rect width="48" height="48" fill="white" transform="translate(0.400024 0.000213623)"/>
</clipPath>
</defs>
</svg>
