<svg width="25" height="25" viewBox="0 0 25 25" fill="none" xmlns="http://www.w3.org/2000/svg">
<rect width="24" height="24" transform="translate(0.555664 0.556015)" fill="white" fill-opacity="0.01"/>
<path d="M11.6989 2.67339C12.0875 2.02757 13.0238 2.02757 13.4125 2.67339L16.4517 7.72356C16.5914 7.95557 16.8191 8.12104 17.0829 8.18213L22.8251 9.51203C23.5594 9.6821 23.8487 10.5726 23.3546 11.1418L19.4908 15.5929C19.3133 15.7973 19.2263 16.0651 19.2497 16.3349L19.7593 22.2069C19.8245 22.9579 19.067 23.5082 18.373 23.2142L12.9458 20.9149C12.6964 20.8093 12.4149 20.8093 12.1656 20.9149L6.73839 23.2142C6.04435 23.5082 5.28687 22.9579 5.35204 22.2069L5.86166 16.3349C5.88507 16.0651 5.79808 15.7973 5.62057 15.5929L1.75675 11.1418C1.26264 10.5726 1.55197 9.6821 2.28629 9.51203L8.02846 8.18213C8.29227 8.12104 8.52001 7.95557 8.65964 7.72356L11.6989 2.67339Z" fill="#487CFB"/>
</svg>
