<svg width="24" height="24" viewBox="0 0 24 24" fill="none" xmlns="http://www.w3.org/2000/svg">
<g clip-path="url(#clip0_1791_50325)">
<path d="M21.507 2.48049L15.5492 1.77063C15.0008 1.70529 14.5032 2.0969 14.4379 2.6453L14.2959 3.83687C14.2306 4.38528 14.6222 4.88282 15.1706 4.94816L16.9579 5.16112L16.0588 12.7077L14.2714 12.4948C13.723 12.4294 13.2255 12.821 13.1601 13.3695L13.0182 14.561C12.9528 15.1094 13.3444 15.607 13.8928 15.6723L19.8507 16.3822C20.3991 16.4475 20.8966 16.0559 20.962 15.5075L21.104 14.3159C21.1693 13.7675 20.7777 13.27 20.2293 13.2046L18.8391 13.039L19.7383 5.49238L21.1284 5.65801C21.6768 5.72335 22.1744 5.33175 22.2397 4.78335L22.3817 3.59177C22.447 3.04337 22.0554 2.54583 21.507 2.48049Z" stroke="#487CFB" stroke-width="2" stroke-linejoin="round"/>
<path d="M8.24577 7.13978L2.46368 8.74211C1.93145 8.8896 1.61956 9.44062 1.76706 9.97285L2.08752 11.1293C2.23501 11.6615 2.78603 11.9734 3.31826 11.8259L5.05288 11.3452L7.0825 18.6692L5.34788 19.1499C4.81565 19.2974 4.50376 19.8484 4.65125 20.3806L4.97172 21.537C5.11921 22.0692 5.67023 22.3811 6.20245 22.2336L11.9845 20.6313C12.5168 20.4838 12.8287 19.9328 12.6812 19.4006L12.3607 18.2442C12.2132 17.7119 11.6622 17.4 11.13 17.5475L9.78081 17.9214L7.75119 10.5974L9.10035 10.2236C9.63257 10.0761 9.94446 9.52505 9.79697 8.99282L9.4765 7.8364C9.32901 7.30418 8.77799 6.99229 8.24577 7.13978Z" stroke="#487CFB" stroke-width="2" stroke-linejoin="round"/>
</g>
<defs>
<clipPath id="clip0_1791_50325">
<rect width="24" height="24" fill="white" transform="translate(0 0.000488281)"/>
</clipPath>
</defs>
</svg>
