<svg width="25" height="24" viewBox="0 0 25 24" fill="none" xmlns="http://www.w3.org/2000/svg">
<g clip-path="url(#clip0_147_27458)">
<rect width="24" height="24" transform="translate(0.5)" fill="white" fill-opacity="0.01"/>
<path fill-rule="evenodd" clip-rule="evenodd" d="M15.5029 2.2511C15.5029 2.05219 15.4239 1.86142 15.2833 1.72077C15.1426 1.58012 14.9518 1.5011 14.7529 1.5011H10.2529C10.054 1.5011 9.86325 1.58012 9.7226 1.72077C9.58195 1.86142 9.50293 2.05219 9.50293 2.2511V3.7511C9.50293 3.95001 9.58195 4.14078 9.7226 4.28143C9.86325 4.42208 10.054 4.5011 10.2529 4.5011H14.7529C14.9518 4.5011 15.1426 4.42208 15.2833 4.28143C15.4239 4.14078 15.5029 3.95001 15.5029 3.7511V2.2511ZM8.00293 2.2511C8.00293 1.65436 8.23998 1.08207 8.66194 0.660108C9.0839 0.238152 9.65619 0.00109863 10.2529 0.00109863H14.7529C15.3497 0.00109863 15.922 0.238152 16.3439 0.660108C16.7659 1.08207 17.0029 1.65436 17.0029 2.2511V3.7511C17.0029 4.34784 16.7659 4.92013 16.3439 5.34209C15.922 5.76405 15.3497 6.0011 14.7529 6.0011H10.2529C9.65619 6.0011 9.0839 5.76405 8.66194 5.34209C8.23998 4.92013 8.00293 4.34784 8.00293 3.7511V2.2511ZM5.00293 2.2511H6.50293V3.7511C6.50293 4.74566 6.89802 5.69949 7.60128 6.40275C8.30454 7.10601 9.25837 7.5011 10.2529 7.5011H14.7529C15.2454 7.5011 15.733 7.4041 16.188 7.21565C16.643 7.02719 17.0564 6.75097 17.4046 6.40275C17.7528 6.05453 18.029 5.64113 18.2175 5.18616C18.4059 4.73119 18.5029 4.24356 18.5029 3.7511V2.2511H20.0029C20.7986 2.2511 21.5616 2.56717 22.1242 3.12978C22.6869 3.69239 23.0029 4.45545 23.0029 5.2511V21.0011C23.0029 21.7967 22.6869 22.5598 22.1242 23.1224C21.5616 23.685 20.7986 24.0011 20.0029 24.0011H5.00293C4.20728 24.0011 3.44422 23.685 2.88161 23.1224C2.319 22.5598 2.00293 21.7967 2.00293 21.0011V5.2511C2.00293 4.45545 2.319 3.69239 2.88161 3.12978C3.44422 2.56717 4.20728 2.2511 5.00293 2.2511Z" fill="#CCD3E7"/>
</g>
<defs>
<clipPath id="clip0_147_27458">
<rect width="24" height="24" fill="white" transform="translate(0.5)"/>
</clipPath>
</defs>
</svg>
