<svg width="25" height="25" viewBox="0 0 25 25" fill="none" xmlns="http://www.w3.org/2000/svg">
<path fill-rule="evenodd" clip-rule="evenodd" d="M2 5.46451C2 5.15201 2.31113 4.00322 2.86495 3.47577C3.41877 2.94832 4.16991 2.65201 4.95312 2.65201H20.0469C20.8301 2.65201 21.5812 2.94832 22.135 3.47577C22.6889 4.00322 23 4.71859 23 5.46451V16.0895C23 16.8354 22.6889 17.5508 22.135 18.0782C21.5812 18.6057 20.8301 18.902 20.0469 18.902H15.9716C16.2278 19.7199 16.7297 20.4486 17.4153 20.9983C17.5695 21.1223 17.68 21.2885 17.7317 21.4743C17.7834 21.6602 17.7739 21.8567 17.7044 22.0372C17.6349 22.2177 17.5089 22.3735 17.3433 22.4835C17.1777 22.5934 16.9806 22.6523 16.7788 22.652H8.22125C8.01949 22.652 7.8226 22.593 7.65723 22.4829C7.49186 22.3729 7.366 22.2171 7.29668 22.0366C7.22736 21.8561 7.21794 21.6598 7.26969 21.474C7.32144 21.2883 7.43186 21.1222 7.586 20.9983C8.27117 20.4484 8.77256 19.7198 9.02844 18.902H4.95312C4.16991 18.902 3.41877 18.6057 2.86495 18.0782C2.31113 17.5508 2 16.485 2 15.7391V5.46451ZM4.21168 6.12742C4.21168 5.87878 4.31539 5.64032 4.5 5.46451C4.68461 5.28869 4.93499 5.18992 5.19606 5.18992H19.8039C20.065 5.18992 20.3154 5.28869 20.5 5.46451C20.6846 5.64032 20.7883 5.87878 20.7883 6.12742V14.2145C20.7883 14.4631 20.6846 14.7016 20.5 14.8774C20.3154 15.0532 20.065 15.152 19.8039 15.152H5.19606C4.93499 15.152 4.68461 15.0532 4.5 14.8774C4.31539 14.7016 4.21168 14.4631 4.21168 14.2145V6.12742Z" fill="#487CFB"/>
</svg>
