<svg width="73" height="72" viewBox="0 0 73 72" fill="none" xmlns="http://www.w3.org/2000/svg">
<path d="M0.599976 36C0.599976 16.1178 16.7177 0 36.6 0C56.4822 0 72.6 16.1178 72.6 36C72.6 55.8823 56.4822 72 36.6 72C16.7177 72 0.599976 55.8823 0.599976 36Z" fill="#F5F7FC"/>
<g clip-path="url(#clip0_1339_14510)">
<rect width="32" height="32" transform="translate(20.6 20)" fill="white" fill-opacity="0.01"/>
<path d="M24.6039 24.0015C24.6039 23.471 24.8146 22.9623 25.1897 22.5873C25.5647 22.2122 26.0734 22.0015 26.6039 22.0015H35.7759C36.3063 22.0016 36.8149 22.2124 37.1899 22.5875L51.1899 36.5875C51.5648 36.9625 51.7755 37.4711 51.7755 38.0015C51.7755 38.5318 51.5648 39.0404 51.1899 39.4155L42.0179 48.5875C41.6428 48.9624 41.1342 49.173 40.6039 49.173C40.0736 49.173 39.5649 48.9624 39.1899 48.5875L25.1899 34.5875C24.8148 34.2125 24.604 33.7039 24.6039 33.1735V24.0015ZM31.6039 32.0015C32.3995 32.0015 33.1626 31.6854 33.7252 31.1228C34.2878 30.5602 34.6039 29.7971 34.6039 29.0015C34.6039 28.2058 34.2878 27.4428 33.7252 26.8801C33.1626 26.3175 32.3995 26.0015 31.6039 26.0015C30.8082 26.0015 30.0452 26.3175 29.4826 26.8801C28.92 27.4428 28.6039 28.2058 28.6039 29.0015C28.6039 29.7971 28.92 30.5602 29.4826 31.1228C30.0452 31.6854 30.8082 32.0015 31.6039 32.0015Z" fill="#487CFB"/>
<path d="M23.1899 35.5875C22.8148 35.2125 22.604 34.7039 22.6039 34.1735V24.0015C22.0734 24.0015 21.5647 24.2122 21.1897 24.5873C20.8146 24.9623 20.6039 25.471 20.6039 26.0015V35.1735C20.604 35.7039 20.8148 36.2125 21.1899 36.5875L35.1899 50.5875C35.5649 50.9624 36.0736 51.173 36.6039 51.173C37.1342 51.173 37.6428 50.9624 38.0179 50.5875L38.1039 50.5015L23.1899 35.5875Z" fill="#487CFB"/>
</g>
<defs>
<clipPath id="clip0_1339_14510">
<rect width="32" height="32" fill="white" transform="translate(20.6 20)"/>
</clipPath>
</defs>
</svg>
