<svg width="16" height="16" viewBox="0 0 16 16" fill="none" xmlns="http://www.w3.org/2000/svg">
<path d="M9.82785 3H13.8098C14.0878 2.99997 14.3626 3.05787 14.6169 3.16999C14.8712 3.28212 15.0994 3.44601 15.2868 3.65122C15.4742 3.85643 15.6168 4.09845 15.7055 4.36184C15.7942 4.62524 15.827 4.90422 15.8018 5.181L15.1648 12.181C15.1197 12.6779 14.8904 13.14 14.522 13.4766C14.1537 13.8131 13.6728 13.9998 13.1738 14H2.82485C2.32589 13.9998 1.84502 13.8131 1.47664 13.4766C1.10827 13.14 0.879003 12.6779 0.833847 12.181L0.196847 5.181C0.154234 4.71778 0.275241 4.25427 0.538847 3.871L0.499847 3C0.499847 2.46957 0.710561 1.96086 1.08563 1.58579C1.46071 1.21071 1.96941 1 2.49985 1H6.17185C6.70224 1.00011 7.21086 1.2109 7.58585 1.586L8.41385 2.414C8.78883 2.7891 9.29746 2.99989 9.82785 3ZM1.50585 3.12C1.71985 3.042 1.94985 3 2.18985 3H7.58585L6.87885 2.293C6.69135 2.10545 6.43704 2.00006 6.17185 2H2.49985C2.23789 1.99995 1.98637 2.1027 1.79937 2.28614C1.61237 2.46959 1.50482 2.71909 1.49985 2.981L1.50585 3.12Z" fill="#487CFB"/>
</svg>
