<svg width="48" height="48" viewBox="0 0 48 48" fill="none" xmlns="http://www.w3.org/2000/svg">
<g clip-path="url(#clip0_1700_13871)">
<rect width="48" height="48" fill="white" fill-opacity="0.01"/>
<path d="M7.20586 9.75241C7.20586 7.13249 9.35836 5.00241 12.0059 5.00241H19.9784C21.9434 5.00241 23.7059 6.18249 24.4334 7.986L28.0334 16.8774H36.0059V14.3688C36.0059 12.5282 36.4409 10.7098 37.2734 9.05475L37.4609 8.68366C38.0534 7.511 39.4934 7.036 40.6784 7.62233C41.8634 8.20866 42.3434 9.63366 41.7509 10.8063L41.5634 11.1774C41.0609 12.1645 40.8059 13.2555 40.8059 14.3614V16.87H45.0059C46.6634 16.87 48.0059 18.1985 48.0059 19.8387V23.2083C48.0059 24.4329 47.3684 25.5758 46.3109 26.229L43.0634 28.2403C41.9984 27.8024 40.8284 27.5575 39.6059 27.5575C36.6584 27.5575 34.0484 28.9602 32.4059 31.12H26.4059C26.4059 32.4337 25.3334 33.495 24.0059 33.495H23.3909C23.2634 33.8512 23.1134 34.2001 22.9559 34.5415L23.3909 34.9719C24.3284 35.8997 24.3284 37.4063 23.3909 38.3341L21.6959 40.0114C20.7584 40.9391 19.2359 40.9391 18.2984 40.0114L17.8634 39.5809C17.5184 39.7442 17.1659 39.8852 16.8059 40.0114V40.62C16.8059 41.9337 15.7334 42.995 14.4059 42.995H12.0059C10.6784 42.995 9.60586 41.9337 9.60586 40.62V40.0114C9.24586 39.8852 8.89336 39.7368 8.54836 39.5809L8.11336 40.0114C7.17586 40.9391 5.65336 40.9391 4.71586 40.0114L3.02086 38.3341C2.08336 37.4063 2.08336 35.8997 3.02086 34.9719L3.45586 34.5415C3.29086 34.2001 3.14836 33.8512 3.02086 33.495L2.40586 33.5024C1.07836 33.5024 0.00585938 32.4411 0.00585938 31.1274V28.7524C0.00585938 27.4387 1.07836 26.3774 2.40586 26.3774H3.02086C3.14836 26.0212 3.29836 25.6723 3.45586 25.3309L3.02086 24.9005C2.08336 23.9727 2.08336 22.4661 3.02086 21.5383L4.71586 19.861C5.39086 19.193 6.35836 19.0075 7.19836 19.2969V9.75241H7.20586ZM19.9784 9.75241H12.0059V16.8774H22.8584L19.9784 9.75241ZM13.2059 24.0024C11.6146 24.0024 10.0884 24.628 8.96322 25.7415C7.838 26.855 7.20586 28.3652 7.20586 29.9399C7.20586 31.5146 7.838 33.0249 8.96322 34.1384C10.0884 35.2519 11.6146 35.8774 13.2059 35.8774C14.7972 35.8774 16.3233 35.2519 17.4485 34.1384C18.5737 33.0249 19.2059 31.5146 19.2059 29.9399C19.2059 28.3652 18.5737 26.855 17.4485 25.7415C16.3233 24.628 14.7972 24.0024 13.2059 24.0024ZM39.6059 38.2524C40.0833 38.2524 40.5411 38.0647 40.8787 37.7307C41.2162 37.3966 41.4059 36.9436 41.4059 36.4712C41.4059 35.9987 41.2162 35.5457 40.8787 35.2116C40.5411 34.8776 40.0833 34.6899 39.6059 34.6899C39.1285 34.6899 38.6706 34.8776 38.3331 35.2116C37.9955 35.5457 37.8059 35.9987 37.8059 36.4712C37.8059 36.9436 37.9955 37.3966 38.3331 37.7307C38.6706 38.0647 39.1285 38.2524 39.6059 38.2524ZM39.6059 43.0024C35.9609 43.0024 33.0059 40.0782 33.0059 36.4712C33.0059 34.2594 34.1159 32.3075 35.8109 31.1274C36.8834 30.3778 38.1959 29.9399 39.6059 29.9399C39.8084 29.9399 40.0034 29.9473 40.1984 29.9622C43.5659 30.2591 46.2059 33.0571 46.2059 36.4712C46.2059 40.0782 43.2509 43.0024 39.6059 43.0024Z" fill="#CCD3E7"/>
</g>
<defs>
<clipPath id="clip0_1700_13871">
<rect width="48" height="48" fill="white"/>
</clipPath>
</defs>
</svg>
