<svg width="25" height="25" viewBox="0 0 25 25" fill="none" xmlns="http://www.w3.org/2000/svg">
<path fill-rule="evenodd" clip-rule="evenodd" d="M3 10.4827C3 7.91672 3 6.63373 3.48442 5.65365C3.91052 4.79155 4.59043 4.09064 5.42671 3.65138C6.37743 3.15201 7.62199 3.15201 10.1111 3.15201H15.8889C18.378 3.15201 19.6226 3.15201 20.5733 3.65138C21.4096 4.09064 22.0895 4.79155 22.5156 5.65365C23 6.63373 23 7.91672 23 10.4827V11.8572C23 14.4232 23 15.7062 22.5156 16.6863C22.0895 17.5484 21.4096 18.2493 20.5733 18.6885C19.6226 19.1879 18.378 19.1879 15.8889 19.1879H7.90468C7.61 19.1879 7.32738 19.3086 7.11901 19.5234L4.89678 21.8142C4.19682 22.5358 3 22.0248 3 21.0043V19.1879V13.4608V10.4827ZM9.66667 7.73369C9.05302 7.73369 8.55556 8.24651 8.55556 8.87911C8.55556 9.51171 9.05302 10.0245 9.66667 10.0245H16.3333C16.947 10.0245 17.4444 9.51171 17.4444 8.87911C17.4444 8.24651 16.947 7.73369 16.3333 7.73369H9.66667ZM9.66667 12.3154C9.05302 12.3154 8.55556 12.8282 8.55556 13.4608C8.55556 14.0934 9.05302 14.6062 9.66667 14.6062H13C13.6136 14.6062 14.1111 14.0934 14.1111 13.4608C14.1111 12.8282 13.6136 12.3154 13 12.3154H9.66667Z" fill="#487CFB"/>
</svg>
