<svg width="16" height="17" viewBox="0 0 16 17" fill="none" xmlns="http://www.w3.org/2000/svg">
<g clip-path="url(#clip0_1_3968)">
<path d="M12.643 15.5C13.979 15.5 15 14.345 15 13V5.5H1V13C1 14.345 2.021 15.5 3.357 15.5H12.643ZM5.5 7.5H10.5C10.6326 7.5 10.7598 7.55268 10.8536 7.64645C10.9473 7.74021 11 7.86739 11 8C11 8.13261 10.9473 8.25979 10.8536 8.35355C10.7598 8.44732 10.6326 8.5 10.5 8.5H5.5C5.36739 8.5 5.24021 8.44732 5.14645 8.35355C5.05268 8.25979 5 8.13261 5 8C5 7.86739 5.05268 7.74021 5.14645 7.64645C5.24021 7.55268 5.36739 7.5 5.5 7.5ZM0.8 1.5C0.587827 1.5 0.384344 1.58429 0.234315 1.73431C0.0842855 1.88434 0 2.08783 0 2.3L0 3.5C0 3.71217 0.0842855 3.91566 0.234315 4.06569C0.384344 4.21571 0.587827 4.3 0.8 4.3H15.2C15.4122 4.3 15.6157 4.21571 15.7657 4.06569C15.9157 3.91566 16 3.71217 16 3.5V2.3C16 2.08783 15.9157 1.88434 15.7657 1.73431C15.6157 1.58429 15.4122 1.5 15.2 1.5H0.8Z" fill="#A6B1D2"/>
</g>
<defs>
<clipPath id="clip0_1_3968">
<rect width="16" height="16" fill="white" transform="translate(0 0.5)"/>
</clipPath>
</defs>
</svg>
