<svg width="24" height="24" viewBox="0 0 24 24" fill="none" xmlns="http://www.w3.org/2000/svg">
<path d="M22 21.0005V19.0005C22 17.1366 20.7252 15.5705 19 15.1265M15.5 3.29125C16.9659 3.88463 18 5.3218 18 7.00049C18 8.67918 16.9659 10.1163 15.5 10.7097M17 21.0005C17 19.1367 17 18.2048 16.6955 17.4698C16.2895 16.4896 15.5108 15.7109 14.5307 15.305C13.7956 15.0005 12.8638 15.0005 11 15.0005H8C6.13623 15.0005 5.20435 15.0005 4.46927 15.305C3.48915 15.7109 2.71046 16.4896 2.30448 17.4698C2 18.2048 2 19.1367 2 21.0005M13.5 7.00049C13.5 9.20963 11.7091 11.0005 9.5 11.0005C7.29086 11.0005 5.5 9.20963 5.5 7.00049C5.5 4.79135 7.29086 3.00049 9.5 3.00049C11.7091 3.00049 13.5 4.79135 13.5 7.00049Z" stroke="#487CFB" stroke-width="2" stroke-linecap="round" stroke-linejoin="round"/>
</svg>
