<svg width="24" height="24" viewBox="0 0 24 24" fill="none" xmlns="http://www.w3.org/2000/svg">
<path d="M6.5 20.0005H5C3.89543 20.0005 3 19.1051 3 18.0005V4.00049C3 2.89592 3.89543 2.00049 5 2.00049H19C20.1046 2.00049 21 2.89592 21 4.00049V18.0005C21 19.1051 20.1046 20.0005 19 20.0005H17.5M12 19.0005C13.6569 19.0005 15 17.6573 15 16.0005C15 14.3436 13.6569 13.0005 12 13.0005C10.3431 13.0005 9 14.3436 9 16.0005C9 17.6573 10.3431 19.0005 12 19.0005ZM12 19.0005L12.0214 19.0003L8.82867 22.1931L6.00024 19.3646L9.01965 16.3452M12 19.0005L15.1928 22.1931L18.0212 19.3646L15.0018 16.3452M9 6.00049H15M7 9.50049H17" stroke="#487CFB" stroke-width="2" stroke-linecap="round" stroke-linejoin="round"/>
</svg>
