<svg width="73" height="72" viewBox="0 0 73 72" fill="none" xmlns="http://www.w3.org/2000/svg">
<path d="M0.199951 36C0.199951 16.1178 16.3177 0 36.2 0C56.0822 0 72.2 16.1178 72.2 36C72.2 55.8823 56.0822 72 36.2 72C16.3177 72 0.199951 55.8823 0.199951 36Z" fill="#F5F7FC"/>
<g clip-path="url(#clip0_1339_14512)">
<rect width="32" height="32" transform="translate(20.2 20)" fill="white" fill-opacity="0.01"/>
<path d="M24.2039 24.0015C24.2039 22.9406 24.6253 21.9232 25.3754 21.173C26.1256 20.4229 27.143 20.0015 28.2039 20.0015H44.2039C45.2647 20.0015 46.2821 20.4229 47.0323 21.173C47.7824 21.9232 48.2039 22.9406 48.2039 24.0015V48.0015C48.2039 49.0623 47.7824 50.0797 47.0323 50.8299C46.2821 51.58 45.2647 52.0015 44.2039 52.0015H28.2039C27.143 52.0015 26.1256 51.58 25.3754 50.8299C24.6253 50.0797 24.2039 49.0623 24.2039 48.0015V24.0015ZM33.2039 24.0015C32.9386 24.0015 32.6843 24.1068 32.4968 24.2944C32.3092 24.4819 32.2039 24.7362 32.2039 25.0015C32.2039 25.2667 32.3092 25.521 32.4968 25.7086C32.6843 25.8961 32.9386 26.0015 33.2039 26.0015H39.2039C39.4691 26.0015 39.7234 25.8961 39.911 25.7086C40.0985 25.521 40.2039 25.2667 40.2039 25.0015C40.2039 24.7362 40.0985 24.4819 39.911 24.2944C39.7234 24.1068 39.4691 24.0015 39.2039 24.0015H33.2039ZM36.2039 42.0015C37.7952 42.0015 39.3213 41.3693 40.4465 40.2441C41.5717 39.1189 42.2039 37.5928 42.2039 36.0015C42.2039 34.4102 41.5717 32.884 40.4465 31.7588C39.3213 30.6336 37.7952 30.0015 36.2039 30.0015C34.6126 30.0015 33.0864 30.6336 31.9612 31.7588C30.836 32.884 30.2039 34.4102 30.2039 36.0015C30.2039 37.5928 30.836 39.1189 31.9612 40.2441C33.0864 41.3693 34.6126 42.0015 36.2039 42.0015ZM46.2039 47.5115C44.4959 45.6515 41.4499 44.0015 36.2039 44.0015C30.9579 44.0015 27.9119 45.6535 26.2039 47.5115V48.0015C26.2039 48.5319 26.4146 49.0406 26.7896 49.4157C27.1647 49.7908 27.6734 50.0015 28.2039 50.0015H44.2039C44.7343 50.0015 45.243 49.7908 45.6181 49.4157C45.9931 49.0406 46.2039 48.5319 46.2039 48.0015V47.5115Z" fill="#487CFB"/>
</g>
<defs>
<clipPath id="clip0_1339_14512">
<rect width="32" height="32" fill="white" transform="translate(20.2 20)"/>
</clipPath>
</defs>
</svg>
