<svg width="10" height="10" viewBox="0 0 10 10" fill="none" xmlns="http://www.w3.org/2000/svg">
<path d="M4.92904 7.16172L1.93154 3.73547C1.57779 3.33234 1.86529 2.69922 2.40217 2.69922H8.39717C8.51732 2.69912 8.63495 2.73365 8.73599 2.79868C8.83702 2.86372 8.91716 2.95649 8.96682 3.0659C9.01648 3.17531 9.03355 3.29672 9.01599 3.41558C8.99842 3.53444 8.94697 3.64572 8.86779 3.73609L5.87029 7.16109C5.81163 7.22822 5.73928 7.28203 5.65811 7.31889C5.57694 7.35576 5.48882 7.37483 5.39967 7.37483C5.31051 7.37483 5.22239 7.35576 5.14122 7.31889C5.06005 7.28203 4.9877 7.22822 4.92904 7.16109V7.16172Z" fill="#222222"/>
</svg>
