<svg width="16" height="16" viewBox="0 0 16 16" fill="none" xmlns="http://www.w3.org/2000/svg">
<g clip-path="url(#clip0_1119_4499)">
<rect width="16" height="16" fill="white" fill-opacity="0.01"/>
<path fill-rule="evenodd" clip-rule="evenodd" d="M14.0021 2.50098C14.0021 2.36837 13.9494 2.24119 13.8556 2.14742C13.7619 2.05366 13.6347 2.00098 13.5021 2.00098H7.5021C7.36949 2.00098 7.24231 2.05366 7.14854 2.14742C7.05478 2.24119 7.0021 2.36837 7.0021 2.50098C7.0021 2.63358 7.05478 2.76076 7.14854 2.85453C7.24231 2.9483 7.36949 3.00098 7.5021 3.00098H12.2951L2.1481 13.147C2.10161 13.1935 2.06473 13.2487 2.03957 13.3094C2.01441 13.3701 2.00146 13.4352 2.00146 13.501C2.00146 13.5667 2.01441 13.6318 2.03957 13.6926C2.06473 13.7533 2.10161 13.8085 2.1481 13.855C2.19458 13.9015 2.24977 13.9383 2.31051 13.9635C2.37125 13.9887 2.43635 14.0016 2.5021 14.0016C2.56784 14.0016 2.63294 13.9887 2.69368 13.9635C2.75442 13.9383 2.80961 13.9015 2.8561 13.855L13.0021 3.70798V8.50098C13.0021 8.63358 13.0548 8.76076 13.1485 8.85453C13.2423 8.9483 13.3695 9.00098 13.5021 9.00098C13.6347 9.00098 13.7619 8.9483 13.8556 8.85453C13.9494 8.76076 14.0021 8.63358 14.0021 8.50098V2.50098Z" fill="#487CFB"/>
</g>
<defs>
<clipPath id="clip0_1119_4499">
<rect width="16" height="16" fill="white"/>
</clipPath>
</defs>
</svg>
