<svg width="32" height="32" viewBox="0 0 32 32" fill="none" xmlns="http://www.w3.org/2000/svg">
<path d="M13 2C12.2044 2 11.4413 2.31607 10.8787 2.87868C10.3161 3.44129 10 4.20435 10 5V6H3C2.20435 6 1.44129 6.31607 0.87868 6.87868C0.31607 7.44129 0 8.20435 0 9V11.768L15.228 15.828C15.7339 15.9627 16.2661 15.9627 16.772 15.828L32 11.768V9C32 8.20435 31.6839 7.44129 31.1213 6.87868C30.5587 6.31607 29.7956 6 29 6H22V5C22 4.20435 21.6839 3.44129 21.1213 2.87868C20.5587 2.31607 19.7956 2 19 2H13ZM13 4H19C19.2652 4 19.5196 4.10536 19.7071 4.29289C19.8946 4.48043 20 4.73478 20 5V6H12V5C12 4.73478 12.1054 4.48043 12.2929 4.29289C12.4804 4.10536 12.7348 4 13 4Z" fill="#487CFB"/>
<path d="M0 25C0 25.7956 0.31607 26.5587 0.87868 27.1213C1.44129 27.6839 2.20435 28 3 28H29C29.7956 28 30.5587 27.6839 31.1213 27.1213C31.6839 26.5587 32 25.7956 32 25V13.7L16.258 17.894C16.089 17.9391 15.911 17.9391 15.742 17.894L0 13.7V25Z" fill="#487CFB"/>
</svg>
