<svg width="16" height="14" viewBox="0 0 16 14" fill="none" xmlns="http://www.w3.org/2000/svg">
<path fill-rule="evenodd" clip-rule="evenodd" d="M0 6.9998C0 6.73458 0.105357 6.48023 0.292893 6.29269C0.48043 6.10516 0.734784 5.9998 1 5.9998H12.586L8.292 1.7078C8.10423 1.52003 7.99874 1.26535 7.99874 0.999799C7.99874 0.734247 8.10423 0.479572 8.292 0.291799C8.47977 0.104025 8.73445 -0.00146484 9 -0.00146484C9.26555 -0.00146484 9.52023 0.104025 9.708 0.291799L15.708 6.2918C15.8011 6.38469 15.875 6.49504 15.9254 6.61653C15.9758 6.73802 16.0018 6.86826 16.0018 6.9998C16.0018 7.13133 15.9758 7.26157 15.9254 7.38307C15.875 7.50456 15.8011 7.61491 15.708 7.7078L9.708 13.7078C9.52023 13.8956 9.26555 14.0011 9 14.0011C8.73445 14.0011 8.47977 13.8956 8.292 13.7078C8.10423 13.52 7.99874 13.2654 7.99874 12.9998C7.99874 12.7342 8.10423 12.4796 8.292 12.2918L12.586 7.9998H1C0.734784 7.9998 0.48043 7.89444 0.292893 7.70691C0.105357 7.51937 0 7.26502 0 6.9998Z" fill="#487CFB"/>
</svg>
