<svg width="16" height="17" viewBox="0 0 16 17" fill="none" xmlns="http://www.w3.org/2000/svg">
<g clip-path="url(#clip0_504_1668)">
<path d="M9.40463 1.79237C8.99163 0.392371 7.00763 0.392371 6.59463 1.79237L6.49463 2.13237C6.43293 2.34197 6.32509 2.53509 6.17903 2.69758C6.03296 2.86008 5.85238 2.98782 5.65053 3.07143C5.44867 3.15505 5.23066 3.19243 5.01248 3.18083C4.7943 3.16922 4.58148 3.10893 4.38963 3.00437L4.07963 2.83437C2.79663 2.13637 1.39363 3.53937 2.09263 4.82137L2.26163 5.13237C2.70763 5.95237 2.28463 6.97337 1.38963 7.23737L1.04963 7.33737C-0.350366 7.75037 -0.350366 9.73437 1.04963 10.1474L1.38963 10.2474C1.59923 10.3091 1.79235 10.4169 1.95485 10.563C2.11734 10.709 2.24508 10.8896 2.3287 11.0915C2.41232 11.2933 2.44969 11.5113 2.43809 11.7295C2.42649 11.9477 2.36619 12.1605 2.26163 12.3524L2.09163 12.6624C1.39363 13.9454 2.79663 15.3484 4.07863 14.6494L4.38963 14.4804C4.58148 14.3758 4.7943 14.3155 5.01248 14.3039C5.23066 14.2923 5.44867 14.3297 5.65053 14.4133C5.85238 14.4969 6.03296 14.6247 6.17903 14.7872C6.32509 14.9497 6.43293 15.1428 6.49463 15.3524L6.59463 15.6924C7.00763 17.0924 8.99163 17.0924 9.40463 15.6924L9.50463 15.3524C9.56634 15.1428 9.67418 14.9497 9.82024 14.7872C9.9663 14.6247 10.1469 14.4969 10.3487 14.4133C10.5506 14.3297 10.7686 14.2923 10.9868 14.3039C11.205 14.3155 11.4178 14.3758 11.6096 14.4804L11.9196 14.6504C13.2026 15.3484 14.6056 13.9454 13.9066 12.6634L13.7376 12.3524C13.6331 12.1605 13.5728 11.9477 13.5612 11.7295C13.5496 11.5113 13.587 11.2933 13.6706 11.0915C13.7542 10.8896 13.8819 10.709 14.0444 10.563C14.2069 10.4169 14.4 10.3091 14.6096 10.2474L14.9496 10.1474C16.3496 9.73437 16.3496 7.75037 14.9496 7.33737L14.6096 7.23737C14.4 7.17566 14.2069 7.06782 14.0444 6.92176C13.8819 6.7757 13.7542 6.59512 13.6706 6.39327C13.587 6.19141 13.5496 5.9734 13.5612 5.75522C13.5728 5.53703 13.6331 5.32422 13.7376 5.13237L13.9076 4.82237C14.6056 3.53937 13.2026 2.13637 11.9206 2.83537L11.6096 3.00437C11.4178 3.10893 11.205 3.16922 10.9868 3.18083C10.7686 3.19243 10.5506 3.15505 10.3487 3.07143C10.1469 2.98782 9.9663 2.86008 9.82024 2.69758C9.67418 2.53509 9.56634 2.34197 9.50463 2.13237L9.40463 1.79237ZM7.99963 11.6724C7.22255 11.6724 6.47729 11.3637 5.92781 10.8142C5.37833 10.2647 5.06963 9.51945 5.06963 8.74237C5.06963 7.96529 5.37833 7.22003 5.92781 6.67055C6.47729 6.12107 7.22255 5.81237 7.99963 5.81237C8.77645 5.81237 9.52145 6.12096 10.0707 6.67025C10.62 7.21955 10.9286 7.96455 10.9286 8.74137C10.9286 9.51819 10.62 10.2632 10.0707 10.8125C9.52145 11.3618 8.77645 11.6704 7.99963 11.6704V11.6724Z" fill="#212529"/>
</g>
<defs>
<clipPath id="clip0_504_1668">
<rect width="16" height="16" fill="white" transform="translate(0 0.743164)"/>
</clipPath>
</defs>
</svg>
