<svg width="16" height="17" viewBox="0 0 16 17" fill="none" xmlns="http://www.w3.org/2000/svg">
<g clip-path="url(#clip0_653_9648)">
<path d="M16 8.50098C16 12.367 12.418 15.501 8 15.501C7.20765 15.502 6.41859 15.3992 5.653 15.195C5.069 15.491 3.728 16.059 1.472 16.429C1.272 16.461 1.12 16.253 1.199 16.067C1.553 15.231 1.873 14.117 1.969 13.101C0.744 11.871 0 10.261 0 8.50098C0 4.63498 3.582 1.50098 8 1.50098C12.418 1.50098 16 4.63498 16 8.50098ZM5 8.50098C5 8.23576 4.89464 7.98141 4.70711 7.79387C4.51957 7.60633 4.26522 7.50098 4 7.50098C3.73478 7.50098 3.48043 7.60633 3.29289 7.79387C3.10536 7.98141 3 8.23576 3 8.50098C3 8.76619 3.10536 9.02055 3.29289 9.20808C3.48043 9.39562 3.73478 9.50098 4 9.50098C4.26522 9.50098 4.51957 9.39562 4.70711 9.20808C4.89464 9.02055 5 8.76619 5 8.50098ZM9 8.50098C9 8.23576 8.89464 7.98141 8.70711 7.79387C8.51957 7.60633 8.26522 7.50098 8 7.50098C7.73478 7.50098 7.48043 7.60633 7.29289 7.79387C7.10536 7.98141 7 8.23576 7 8.50098C7 8.76619 7.10536 9.02055 7.29289 9.20808C7.48043 9.39562 7.73478 9.50098 8 9.50098C8.26522 9.50098 8.51957 9.39562 8.70711 9.20808C8.89464 9.02055 9 8.76619 9 8.50098ZM12 9.50098C12.2652 9.50098 12.5196 9.39562 12.7071 9.20808C12.8946 9.02055 13 8.76619 13 8.50098C13 8.23576 12.8946 7.98141 12.7071 7.79387C12.5196 7.60633 12.2652 7.50098 12 7.50098C11.7348 7.50098 11.4804 7.60633 11.2929 7.79387C11.1054 7.98141 11 8.23576 11 8.50098C11 8.76619 11.1054 9.02055 11.2929 9.20808C11.4804 9.39562 11.7348 9.50098 12 9.50098Z" fill="#7F8EBE"/>
</g>
<defs>
<clipPath id="clip0_653_9648">
<rect width="16" height="16" fill="white" transform="translate(0 0.500977)"/>
</clipPath>
</defs>
</svg>
