<svg width="12" height="13" viewBox="0 0 12 13" fill="none" xmlns="http://www.w3.org/2000/svg">
<g clip-path="url(#clip0_812_1917)">
<rect width="12" height="12" transform="translate(0.000183105 0.501953)" fill="white" fill-opacity="0.01"/>
<g clip-path="url(#clip1_812_1917)">
<path d="M6.64782 12.2567C5.93082 12.4367 5.26557 11.8937 5.21682 11.1917C5.16282 10.4042 5.04432 9.68047 4.89582 9.24922C4.80207 8.97922 4.53657 8.49022 4.11582 8.02072C3.69807 7.55272 3.15432 7.13647 2.51757 6.96322C2.01357 6.82522 1.49982 6.38872 1.49982 5.75122V2.75122C1.49982 2.11747 2.01132 1.65322 2.58582 1.59172C3.38832 1.50697 3.75882 1.28047 4.13682 1.04947L4.17282 1.02772C4.37682 0.903221 4.60632 0.765971 4.90032 0.664721C5.19807 0.561221 5.54607 0.501221 5.99982 0.501221H8.62482C9.32757 0.501221 9.82407 0.859721 10.0753 1.29922C10.1983 1.51447 10.2658 1.75447 10.2658 1.98397C10.2658 2.09797 10.2486 2.21797 10.2081 2.33197C10.3588 2.52847 10.4931 2.76472 10.5741 3.00697C10.6566 3.25447 10.7031 3.57847 10.5771 3.86947C10.6288 3.96697 10.6671 4.07047 10.6963 4.17172C10.7541 4.37422 10.7811 4.59697 10.7811 4.81372C10.7811 5.03047 10.7541 5.25322 10.6963 5.45572C10.6701 5.54572 10.6363 5.63872 10.5928 5.72797C10.8883 6.15622 10.9063 6.62797 10.7683 7.02772C10.6138 7.47172 10.2568 7.85272 9.86832 7.98172C9.23307 8.19397 8.51607 8.18872 7.98132 8.13997C7.8703 8.12997 7.75952 8.11747 7.64907 8.10247C7.9094 9.21692 7.89344 10.3781 7.60257 11.485C7.49907 11.866 7.19007 12.121 6.84357 12.208L6.64782 12.2567ZM8.62482 1.25122H5.99982C5.61732 1.25122 5.35257 1.30222 5.14482 1.37347C4.93407 1.44622 4.76532 1.54522 4.56282 1.66822L4.53282 1.68697C4.11657 1.94047 3.63432 2.23447 2.66532 2.33797C2.41557 2.36422 2.24982 2.55547 2.24982 2.75047V5.75122C2.24982 5.94247 2.41932 6.15847 2.71482 6.23872C3.53607 6.46372 4.19757 6.98647 4.67532 7.52047C5.15157 8.05297 5.47332 8.62672 5.60382 9.00322C5.78607 9.52822 5.90907 10.3292 5.96532 11.1407C5.98407 11.4122 6.23532 11.587 6.46557 11.5292L6.66207 11.4805C6.78207 11.4505 6.85557 11.3725 6.87807 11.2892C7.1845 10.122 7.14674 8.89099 6.76932 7.74472C6.74814 7.68102 6.74445 7.61281 6.75863 7.5472C6.77281 7.48159 6.80434 7.42099 6.84993 7.37172C6.89552 7.32245 6.9535 7.28632 7.01781 7.26711C7.08213 7.24789 7.15042 7.24629 7.21557 7.26247H7.21782L7.22832 7.26547L7.27182 7.27522C7.52828 7.32968 7.78773 7.36899 8.04882 7.39297C8.54607 7.43797 9.14157 7.43347 9.63132 7.27072C9.76257 7.22647 9.96882 7.04497 10.0588 6.78247C10.1391 6.55147 10.1241 6.27997 9.85932 6.01672L9.59457 5.75122L9.85932 5.48572C9.89157 5.45422 9.93807 5.38072 9.97482 5.24947C10.0108 5.12422 10.0311 4.97197 10.0311 4.81372C10.0311 4.65547 10.0108 4.50322 9.97482 4.37797C9.93732 4.24747 9.89157 4.17322 9.85932 4.14172L9.59457 3.87622L9.85932 3.61072C9.89457 3.57547 9.94107 3.47872 9.86307 3.24472C9.78169 3.0188 9.6525 2.81311 9.48432 2.64172L9.21957 2.37622L9.48432 2.11072C9.48882 2.10697 9.51507 2.07322 9.51507 1.98322C9.51161 1.87347 9.48039 1.76638 9.42432 1.67197C9.29982 1.45522 9.04707 1.25122 8.62482 1.25122Z" fill="#CCD3E7"/>
</g>
</g>
<defs>
<clipPath id="clip0_812_1917">
<rect width="12" height="12" fill="white" transform="translate(0.000183105 0.501953)"/>
</clipPath>
<clipPath id="clip1_812_1917">
<rect width="12" height="12" fill="white" transform="translate(0.000183105 0.501953)"/>
</clipPath>
</defs>
</svg>
