<svg width="12" height="13" viewBox="0 0 12 13" fill="none" xmlns="http://www.w3.org/2000/svg">
<g clip-path="url(#clip0_812_1902)">
<rect width="12" height="12" transform="translate(0.000183105 0.501953)" fill="white" fill-opacity="0.01"/>
<g clip-path="url(#clip1_812_1902)">
<path d="M6.64785 0.53554C5.93085 0.35629 5.26485 0.89854 5.21685 1.60054C5.16285 2.38879 5.04435 3.11254 4.89585 3.54304C4.8021 3.81304 4.5366 4.30279 4.11585 4.77229C3.6981 5.23954 3.15435 5.65579 2.5176 5.82979C2.0136 5.96704 1.49985 6.40354 1.49985 7.04104V10.0418C1.49985 10.6755 2.01135 11.1398 2.58585 11.2005C3.38835 11.286 3.75885 11.5118 4.13685 11.7428L4.17285 11.7653C4.37685 11.889 4.60635 12.0263 4.90035 12.1283C5.1981 12.2303 5.5461 12.291 5.99985 12.291H8.62485C9.3276 12.291 9.8241 11.9333 10.0753 11.493C10.1968 11.2853 10.2624 11.0497 10.2658 10.809C10.2658 10.695 10.2486 10.575 10.2081 10.461C10.3588 10.2638 10.4931 10.0275 10.5741 9.78529C10.6566 9.53779 10.7031 9.21379 10.5771 8.92354C10.6288 8.82604 10.6671 8.72179 10.6963 8.62129C10.7541 8.41879 10.7811 8.19529 10.7811 7.97854C10.7811 7.76254 10.7541 7.53979 10.6963 7.33654C10.6701 7.2431 10.6355 7.15223 10.5928 7.06504C10.7242 6.87819 10.8087 6.66252 10.8392 6.43619C10.8698 6.20987 10.8454 5.97951 10.7683 5.76454C10.6138 5.32054 10.2568 4.93954 9.86835 4.81054C9.2331 4.59904 8.5161 4.60354 7.98135 4.65229C7.87033 4.66228 7.75955 4.67478 7.6491 4.68979C7.90928 3.57558 7.89331 2.41468 7.6026 1.30804C7.55202 1.13073 7.45499 0.970154 7.32156 0.842912C7.18812 0.71567 7.02311 0.626385 6.8436 0.58429L6.64785 0.53554ZM8.62485 11.5418H5.99985C5.61735 11.5418 5.3526 11.49 5.14485 11.4188C4.9341 11.346 4.76535 11.2478 4.56285 11.124L4.53285 11.106C4.1166 10.8518 3.63435 10.5578 2.66535 10.455C2.4156 10.428 2.24985 10.2375 2.24985 10.0425V7.04104C2.24985 6.85054 2.41935 6.63379 2.71485 6.55354C3.5361 6.32854 4.1976 5.80654 4.67535 5.27254C5.1516 4.74004 5.47335 4.16629 5.60385 3.78904C5.7861 3.26404 5.9091 2.46304 5.96535 1.65154C5.9841 1.38004 6.23535 1.20604 6.4656 1.26304L6.6621 1.31254C6.7821 1.34254 6.8556 1.41979 6.8781 1.50379C7.18439 2.67081 7.14662 3.9015 6.76935 5.04754C6.74799 5.11128 6.74416 5.17959 6.75826 5.24532C6.77236 5.31104 6.80387 5.37177 6.84949 5.42115C6.8951 5.47052 6.95315 5.50673 7.01756 5.52597C7.08197 5.54522 7.15037 5.54679 7.2156 5.53054L7.21785 5.52979L7.22835 5.52754L7.27185 5.51704C7.52831 5.46258 7.78776 5.42326 8.04885 5.39929C8.5461 5.35429 9.1416 5.35879 9.63135 5.52229C9.7626 5.56579 9.96885 5.74729 10.0588 6.00979C10.1391 6.24079 10.1241 6.51229 9.85935 6.77629L9.5946 7.04104L9.85935 7.30654C9.8916 7.33879 9.9381 7.41229 9.97485 7.54279C10.0108 7.66804 10.0311 7.82029 10.0311 7.97854C10.0311 8.13754 10.0108 8.28904 9.97485 8.41504C9.93735 8.54554 9.8916 8.61904 9.85935 8.65129L9.5946 8.91604L9.85935 9.18154C9.8946 9.21679 9.9411 9.31429 9.8631 9.54754C9.78182 9.77373 9.65262 9.97968 9.48435 10.1513L9.2196 10.416L9.48435 10.6815C9.48885 10.6853 9.5151 10.719 9.5151 10.809C9.51177 10.919 9.48054 11.0264 9.42435 11.121C9.3006 11.337 9.0471 11.541 8.62485 11.541V11.5418Z" fill="#CCD3E7"/>
</g>
</g>
<defs>
<clipPath id="clip0_812_1902">
<rect width="12" height="12" fill="white" transform="translate(0.000183105 0.501953)"/>
</clipPath>
<clipPath id="clip1_812_1902">
<rect width="12" height="12" fill="white" transform="translate(0.000183105 0.501953)"/>
</clipPath>
</defs>
</svg>
