<svg width="17" height="16" viewBox="0 0 17 16" fill="none" xmlns="http://www.w3.org/2000/svg">
<path d="M12.3492 4.55029C12.4669 4.66799 12.5331 4.82763 12.5331 4.99408C12.5331 5.16053 12.4669 5.32017 12.3492 5.43787L9.68652 8.10059L12.3492 10.7633C12.4669 10.881 12.5331 11.0406 12.5331 11.2071C12.5331 11.3735 12.4669 11.5332 12.3492 11.6509C12.2315 11.7686 12.0719 11.8347 11.9055 11.8347C11.739 11.8347 11.5794 11.7686 11.4617 11.6509L8.79895 8.98816L6.13623 11.6509C6.01853 11.7686 5.8589 11.8347 5.69244 11.8347C5.52599 11.8347 5.36636 11.7686 5.24866 11.6509C5.13096 11.5332 5.06483 11.3735 5.06483 11.2071C5.06483 11.0406 5.13096 10.881 5.24866 10.7633L7.91138 8.10059L5.24866 5.43787C5.13096 5.32017 5.06483 5.16053 5.06483 4.99408C5.06483 4.82763 5.13096 4.66799 5.24866 4.55029C5.36636 4.43259 5.52599 4.36647 5.69244 4.36647C5.8589 4.36647 6.01853 4.43259 6.13623 4.55029L8.79895 7.21301L11.4617 4.55029C11.5794 4.43259 11.739 4.36647 11.9055 4.36647C12.0719 4.36647 12.2315 4.43259 12.3492 4.55029Z" fill="#323232"/>
</svg>
