<svg width="40" height="40" viewBox="0 0 40 40" fill="none" xmlns="http://www.w3.org/2000/svg">
<rect width="40" height="40" fill="white" fill-opacity="0.01"/>
<path d="M13.8075 26.06C14.1575 25.855 14.54 25.655 14.955 25.465C14.6044 25.9877 14.229 26.4933 13.83 26.98C13.13 27.8225 12.585 28.27 12.2425 28.41C12.2141 28.422 12.1848 28.432 12.155 28.44C12.13 28.4054 12.1083 28.3686 12.09 28.33C11.95 28.055 11.955 27.79 12.19 27.43C12.455 27.0175 12.9875 26.545 13.8075 26.06ZM19.945 21.9425C19.6475 22.005 19.3525 22.0675 19.055 22.1375C19.4958 21.2742 19.9126 20.3989 20.305 19.5125C20.7 20.2449 21.1253 20.9606 21.58 21.6575C21.0375 21.7375 20.49 21.8325 19.945 21.9425ZM26.2575 24.29C25.8692 23.9767 25.5057 23.6341 25.17 23.265C25.74 23.2775 26.255 23.32 26.7 23.4C27.4925 23.5425 27.865 23.7675 27.995 23.9225C28.036 23.9658 28.0592 24.0229 28.06 24.0825C28.0512 24.2589 27.9998 24.4304 27.91 24.5825C27.8596 24.7043 27.7787 24.8111 27.675 24.8925C27.6234 24.9242 27.5626 24.9374 27.5025 24.93C27.2775 24.9225 26.8575 24.765 26.2575 24.29ZM20.695 12.425C20.595 13.035 20.425 13.735 20.195 14.4975C20.1103 14.212 20.036 13.9235 19.9725 13.6325C19.7825 12.75 19.755 12.0575 19.8575 11.5775C19.9525 11.135 20.1325 10.9575 20.3475 10.87C20.4628 10.8192 20.5849 10.7855 20.71 10.77C20.7425 10.845 20.78 11 20.79 11.265C20.8025 11.57 20.7725 11.9575 20.695 12.4275V12.425Z" fill="#7F8EBE"/>
<path fill-rule="evenodd" clip-rule="evenodd" d="M10 0H30C31.3261 0 32.5979 0.526784 33.5355 1.46447C34.4732 2.40215 35 3.67392 35 5V35C35 36.3261 34.4732 37.5979 33.5355 38.5355C32.5979 39.4732 31.3261 40 30 40H10C8.67392 40 7.40215 39.4732 6.46447 38.5355C5.52678 37.5979 5 36.3261 5 35V5C5 3.67392 5.52678 2.40215 6.46447 1.46447C7.40215 0.526784 8.67392 0 10 0ZM10.4125 29.17C10.6375 29.62 10.9875 30.0275 11.5075 30.2175C12.025 30.405 12.5375 30.3175 12.9575 30.1425C13.7525 29.8175 14.545 29.0525 15.2725 28.1775C16.105 27.175 16.98 25.86 17.825 24.4025C19.4563 23.9189 21.1269 23.5792 22.8175 23.3875C23.5675 24.345 24.3425 25.17 25.0925 25.7625C25.7925 26.3125 26.6 26.77 27.4275 26.805C27.8782 26.8273 28.3245 26.7066 28.7025 26.46C29.09 26.2075 29.3775 25.8425 29.5875 25.42C29.8125 24.9675 29.95 24.495 29.9325 24.0125C29.9167 23.5368 29.7405 23.0804 29.4325 22.7175C28.8675 22.0425 27.9425 21.7175 27.0325 21.555C25.9286 21.384 24.8086 21.3421 23.695 21.43C22.7546 20.1006 21.9347 18.69 21.245 17.215C21.87 15.565 22.3375 14.005 22.545 12.73C22.635 12.185 22.6825 11.665 22.665 11.195C22.6619 10.7285 22.5534 10.2687 22.3475 9.85C22.2289 9.61894 22.0604 9.41718 21.8541 9.25935C21.6478 9.10152 21.409 8.99158 21.155 8.9375C20.65 8.83 20.13 8.9375 19.6525 9.13C18.71 9.505 18.2125 10.305 18.025 11.1875C17.8425 12.0375 17.925 13.0275 18.14 14.0275C18.36 15.0425 18.735 16.1475 19.215 17.265C18.4472 19.1745 17.5604 21.0339 16.56 22.8325C15.2716 23.2379 14.0297 23.7784 12.855 24.445C11.93 24.995 11.1075 25.645 10.6125 26.4125C10.0875 27.2275 9.925 28.1975 10.4125 29.17Z" fill="#7F8EBE"/>
</svg>
