<svg width="16" height="17" viewBox="0 0 16 17" fill="none" xmlns="http://www.w3.org/2000/svg">
<g clip-path="url(#clip0_504_1114)">
<path d="M3.99963 0.499176H9.29263C9.55783 0.499233 9.81214 0.604627 9.99963 0.792176L13.7066 4.49918C13.8942 4.68667 13.9996 4.94098 13.9996 5.20618V14.4992C13.9996 15.0296 13.7889 15.5383 13.4138 15.9134C13.0388 16.2885 12.5301 16.4992 11.9996 16.4992H3.99963C3.4692 16.4992 2.96049 16.2885 2.58542 15.9134C2.21035 15.5383 1.99963 15.0296 1.99963 14.4992V2.49918C1.99963 1.96874 2.21035 1.46004 2.58542 1.08496C2.96049 0.70989 3.4692 0.499176 3.99963 0.499176ZM9.49963 1.99918V3.99918C9.49963 4.26439 9.60499 4.51875 9.79253 4.70628C9.98006 4.89382 10.2344 4.99918 10.4996 4.99918H12.4996L9.49963 1.99918Z" fill="#7F8EBE"/>
</g>
<defs>
<clipPath id="clip0_504_1114">
<rect width="16" height="16" fill="white" transform="translate(0 0.5)"/>
</clipPath>
</defs>
</svg>
