<svg width="32" height="32" viewBox="0 0 32 32" fill="none" xmlns="http://www.w3.org/2000/svg">
<g clip-path="url(#clip0_240_222649)">
<path fill-rule="evenodd" clip-rule="evenodd" d="M28 9V28C28 29.0609 27.5786 30.0783 26.8284 30.8284C26.0783 31.5786 25.0609 32 24 32V30C24.5304 30 25.0391 29.7893 25.4142 29.4142C25.7893 29.0391 26 28.5304 26 28V9H22C21.2044 9 20.4413 8.68393 19.8787 8.12132C19.3161 7.55871 19 6.79565 19 6V2H8C7.46957 2 6.96086 2.21071 6.58579 2.58579C6.21071 2.96086 6 3.46957 6 4V22H4V4C4 2.93913 4.42143 1.92172 5.17157 1.17157C5.92172 0.421427 6.93913 0 8 0L19 0L28 9ZM12.322 27.332V28.376C12.322 28.888 12.244 29.316 12.088 29.658C11.9552 29.9744 11.731 30.2439 11.444 30.432C11.1613 30.6026 10.8362 30.69 10.506 30.684C10.1746 30.6901 9.84813 30.6027 9.564 30.432C9.27937 30.2432 9.05675 29.9747 8.924 29.66C8.75577 29.2535 8.676 28.8158 8.69 28.376V27.332C8.69 26.818 8.77 26.39 8.924 26.05C9.05641 25.7346 9.27907 25.4653 9.564 25.276C9.84684 25.1016 10.1738 25.0121 10.506 25.018C10.858 25.018 11.17 25.104 11.444 25.278C11.7307 25.4655 11.9549 25.7343 12.088 26.05C12.244 26.39 12.322 26.818 12.322 27.332V27.332ZM13.928 28.37V27.344C13.928 26.59 13.792 25.944 13.518 25.4C13.2612 24.871 12.8506 24.4318 12.34 24.14C11.832 23.846 11.22 23.7 10.506 23.7C9.796 23.7 9.182 23.846 8.666 24.14C8.15481 24.4283 7.74383 24.8658 7.488 25.394C7.216 25.936 7.078 26.586 7.078 27.344V28.37C7.078 29.12 7.216 29.77 7.488 30.316C7.762 30.858 8.154 31.276 8.668 31.57C9.182 31.858 9.796 32.002 10.508 32.002C11.222 32.002 11.832 31.858 12.34 31.57C12.852 31.276 13.244 30.858 13.52 30.316C13.792 29.768 13.928 29.12 13.928 28.37V28.37ZM0 23.852V31.852H2.918C3.722 31.852 4.388 31.692 4.916 31.376C5.45031 31.0563 5.86755 30.5732 6.106 29.998C6.366 29.398 6.498 28.674 6.498 27.83C6.498 26.99 6.368 26.274 6.106 25.68C5.86984 25.1111 5.45587 24.634 4.926 24.32C4.4 24.008 3.73 23.852 2.918 23.852H0V23.852ZM1.582 25.142H2.708C3.204 25.142 3.608 25.242 3.926 25.446C4.25608 25.6619 4.50511 25.9813 4.634 26.354C4.792 26.756 4.87 27.258 4.87 27.86C4.8762 28.2589 4.83048 28.6569 4.734 29.044C4.66269 29.3493 4.52925 29.6366 4.342 29.888C4.16799 30.1123 3.93743 30.2862 3.674 30.392C3.36533 30.5075 3.03749 30.5632 2.708 30.556H1.58V25.14L1.582 25.142ZM16.426 26.108C16.2791 26.5135 16.2093 26.9429 16.22 27.374V28.364C16.22 28.856 16.288 29.274 16.426 29.618C16.5409 29.9341 16.7486 30.2081 17.022 30.404C17.3073 30.5849 17.6403 30.6762 17.978 30.666C18.2556 30.6723 18.5306 30.612 18.78 30.49C19.0031 30.3765 19.1917 30.2052 19.326 29.994C19.4617 29.7738 19.542 29.524 19.56 29.266H21.09V29.418C21.0709 29.9012 20.9141 30.369 20.638 30.766C20.364 31.154 19.998 31.456 19.538 31.674C19.0452 31.8996 18.5079 32.0117 17.966 32.002C17.246 32.002 16.638 31.858 16.138 31.57C15.6388 31.2777 15.2405 30.8403 14.996 30.316C14.736 29.772 14.608 29.122 14.608 28.364V27.368C14.608 26.61 14.74 25.958 15.002 25.412C15.262 24.864 15.644 24.442 16.144 24.146C16.648 23.848 17.256 23.7 17.966 23.7C18.404 23.7 18.808 23.764 19.18 23.894C19.554 24.018 19.88 24.2 20.158 24.438C20.4388 24.6769 20.6668 24.9718 20.8273 25.3037C20.9877 25.6357 21.0772 25.9975 21.09 26.366V26.512H19.56C19.5414 26.2432 19.4591 25.9827 19.32 25.752C19.1893 25.5313 19.0004 25.3507 18.774 25.23C18.5299 25.0975 18.2557 25.0307 17.978 25.036C17.6404 25.0272 17.3084 25.1237 17.028 25.312C16.7537 25.5127 16.5444 25.7895 16.426 26.108V26.108Z" fill="#487CFB"/>
</g>
<defs>
<clipPath id="clip0_240_222649">
<rect width="32" height="32" fill="white"/>
</clipPath>
</defs>
</svg>
