<svg width="16" height="16" viewBox="0 0 16 16" fill="none" xmlns="http://www.w3.org/2000/svg">
<g clip-path="url(#clip0_977_1338)">
<rect width="16" height="16" transform="translate(0 0.00360107)" fill="white" fill-opacity="0.01"/>
<path d="M0.502197 9.9047C0.634806 9.9047 0.761983 9.95738 0.855751 10.0511C0.949519 10.1449 1.0022 10.2721 1.0022 10.4047V12.9047C1.0022 13.1699 1.10755 13.4243 1.29509 13.6118C1.48263 13.7993 1.73698 13.9047 2.0022 13.9047H14.0022C14.2674 13.9047 14.5218 13.7993 14.7093 13.6118C14.8968 13.4243 15.0022 13.1699 15.0022 12.9047V10.4047C15.0022 10.2721 15.0549 10.1449 15.1486 10.0511C15.2424 9.95738 15.3696 9.9047 15.5022 9.9047C15.6348 9.9047 15.762 9.95738 15.8558 10.0511C15.9495 10.1449 16.0022 10.2721 16.0022 10.4047V12.9047C16.0022 13.4351 15.7915 13.9438 15.4164 14.3189C15.0413 14.694 14.5326 14.9047 14.0022 14.9047H2.0022C1.47176 14.9047 0.963056 14.694 0.587984 14.3189C0.212911 13.9438 0.00219727 13.4351 0.00219727 12.9047V10.4047C0.00219727 10.2721 0.0548757 10.1449 0.148644 10.0511C0.242412 9.95738 0.369589 9.9047 0.502197 9.9047Z" fill="#487CFB"/>
<path d="M7.6482 11.8587C7.69464 11.9053 7.74982 11.9422 7.81056 11.9674C7.87131 11.9926 7.93643 12.0056 8.0022 12.0056C8.06796 12.0056 8.13309 11.9926 8.19383 11.9674C8.25458 11.9422 8.30975 11.9053 8.3562 11.8587L11.3562 8.8587C11.4501 8.76481 11.5028 8.63748 11.5028 8.5047C11.5028 8.37192 11.4501 8.24459 11.3562 8.1507C11.2623 8.05681 11.135 8.00407 11.0022 8.00407C10.8694 8.00407 10.7421 8.05681 10.6482 8.1507L8.5022 10.2977V1.5047C8.5022 1.37209 8.44952 1.24491 8.35575 1.15115C8.26198 1.05738 8.13481 1.0047 8.0022 1.0047C7.86959 1.0047 7.74241 1.05738 7.64864 1.15115C7.55488 1.24491 7.5022 1.37209 7.5022 1.5047V10.2977L5.3562 8.1507C5.26231 8.05681 5.13497 8.00407 5.0022 8.00407C4.86942 8.00407 4.74208 8.05681 4.6482 8.1507C4.55431 8.24459 4.50157 8.37192 4.50157 8.5047C4.50157 8.63748 4.55431 8.76481 4.6482 8.8587L7.6482 11.8587Z" fill="#487CFB"/>
</g>
<defs>
<clipPath id="clip0_977_1338">
<rect width="16" height="16" fill="white" transform="translate(0 0.00360107)"/>
</clipPath>
</defs>
</svg>
