<svg width="16" height="14" viewBox="0 0 16 14" fill="none" xmlns="http://www.w3.org/2000/svg">
<path fill-rule="evenodd" clip-rule="evenodd" d="M0 7.00364C0 6.73843 0.105357 6.48407 0.292893 6.29654C0.48043 6.109 0.734784 6.00364 1 6.00364H12.586L8.292 1.71164C8.10423 1.52387 7.99874 1.2692 7.99874 1.00364C7.99874 0.738092 8.10423 0.483417 8.292 0.295644C8.47977 0.107871 8.73445 0.00238037 9 0.00238037C9.26555 0.00238037 9.52023 0.107871 9.708 0.295644L15.708 6.29564C15.8011 6.38854 15.875 6.49889 15.9254 6.62038C15.9758 6.74187 16.0018 6.87211 16.0018 7.00364C16.0018 7.13518 15.9758 7.26542 15.9254 7.38691C15.875 7.5084 15.8011 7.61875 15.708 7.71164L9.708 13.7116C9.52023 13.8994 9.26555 14.0049 9 14.0049C8.73445 14.0049 8.47977 13.8994 8.292 13.7116C8.10423 13.5239 7.99874 13.2692 7.99874 13.0036C7.99874 12.7381 8.10423 12.4834 8.292 12.2956L12.586 8.00364H1C0.734784 8.00364 0.48043 7.89829 0.292893 7.71075C0.105357 7.52322 0 7.26886 0 7.00364Z" fill="#487CFB"/>
</svg>
