<svg width="16" height="16" viewBox="0 0 16 16" fill="none" xmlns="http://www.w3.org/2000/svg">
<path fill-rule="evenodd" clip-rule="evenodd" d="M8.00002 15C8.13263 15 8.25981 14.9473 8.35357 14.8536C8.44734 14.7598 8.50002 14.6326 8.50002 14.5V2.707L11.646 5.854C11.7399 5.94789 11.8672 6.00063 12 6.00063C12.1328 6.00063 12.2601 5.94789 12.354 5.854C12.4479 5.76011 12.5007 5.63277 12.5007 5.5C12.5007 5.36722 12.4479 5.23989 12.354 5.146L8.35402 1.146C8.30758 1.09944 8.2524 1.06249 8.19165 1.03729C8.13091 1.01208 8.06579 0.999105 8.00002 0.999105C7.93425 0.999105 7.86913 1.01208 7.80839 1.03729C7.74764 1.06249 7.69247 1.09944 7.64602 1.146L3.64602 5.146C3.59953 5.19249 3.56266 5.24768 3.5375 5.30842C3.51234 5.36915 3.49939 5.43426 3.49939 5.5C3.49939 5.63277 3.55213 5.76011 3.64602 5.854C3.73991 5.94789 3.86725 6.00063 4.00002 6.00063C4.1328 6.00063 4.26013 5.94789 4.35402 5.854L7.50002 2.707V14.5C7.50002 14.6326 7.5527 14.7598 7.64647 14.8536C7.74024 14.9473 7.86741 15 8.00002 15Z" fill="#212529"/>
</svg>
