<svg width="17" height="16" viewBox="0 0 17 16" fill="none" xmlns="http://www.w3.org/2000/svg">
<path fill-rule="evenodd" clip-rule="evenodd" d="M14.8537 4.6461C14.9003 4.69255 14.9373 4.74772 14.9625 4.80847C14.9877 4.86921 15.0006 4.93433 15.0006 5.0001C15.0006 5.06587 14.9877 5.13099 14.9625 5.19173C14.9373 5.25248 14.9003 5.30765 14.8537 5.3541L8.85375 11.3541C8.8073 11.4007 8.75213 11.4376 8.69138 11.4628C8.63063 11.488 8.56551 11.501 8.49975 11.501C8.43398 11.501 8.36886 11.488 8.30811 11.4628C8.24737 11.4376 8.19219 11.4007 8.14575 11.3541L2.14575 5.3541C2.05186 5.26021 1.99912 5.13288 1.99912 5.0001C1.99912 4.86732 2.05186 4.73999 2.14575 4.6461C2.23963 4.55221 2.36697 4.49947 2.49975 4.49947C2.63252 4.49947 2.75986 4.55221 2.85375 4.6461L8.49975 10.2931L14.1457 4.6461C14.1922 4.59954 14.2474 4.56259 14.3081 4.53739C14.3689 4.51218 14.434 4.49921 14.4997 4.49921C14.5655 4.49921 14.6306 4.51218 14.6914 4.53739C14.7521 4.56259 14.8073 4.59954 14.8537 4.6461Z" fill="#212529"/>
</svg>
