<svg width="16" height="16" viewBox="0 0 16 16" fill="none" xmlns="http://www.w3.org/2000/svg">
<rect width="16" height="16" fill="white" fill-opacity="0.01"/>
<path d="M5.523 10.424C5.663 10.342 5.816 10.262 5.982 10.186C5.84177 10.3951 5.6916 10.5973 5.532 10.792C5.252 11.129 5.034 11.308 4.897 11.364C4.88563 11.3688 4.87393 11.3728 4.862 11.376C4.85202 11.3622 4.84332 11.3474 4.836 11.332C4.78 11.222 4.782 11.116 4.876 10.972C4.982 10.807 5.195 10.618 5.523 10.424ZM7.978 8.777C7.859 8.802 7.741 8.827 7.622 8.855C7.79831 8.50967 7.96504 8.15954 8.122 7.805C8.27999 8.09797 8.45013 8.38422 8.632 8.663C8.415 8.695 8.196 8.733 7.978 8.777ZM10.503 9.716C10.3477 9.5907 10.2023 9.45363 10.068 9.306C10.296 9.311 10.502 9.328 10.68 9.36C10.997 9.417 11.146 9.507 11.198 9.569C11.2144 9.58632 11.2237 9.60916 11.224 9.633C11.2205 9.70354 11.1999 9.77218 11.164 9.833C11.1438 9.88172 11.1115 9.92443 11.07 9.957C11.0494 9.96966 11.025 9.97495 11.001 9.972C10.911 9.969 10.743 9.906 10.503 9.716ZM8.278 4.97C8.238 5.214 8.17 5.494 8.078 5.799C8.0441 5.6848 8.01442 5.56939 7.989 5.453C7.913 5.1 7.902 4.823 7.943 4.631C7.981 4.454 8.053 4.383 8.139 4.348C8.18512 4.32767 8.23398 4.31419 8.284 4.308C8.297 4.338 8.312 4.4 8.316 4.506C8.321 4.628 8.309 4.783 8.278 4.971V4.97Z" fill="#7F8EBE"/>
<path fill-rule="evenodd" clip-rule="evenodd" d="M4 0H12C12.5304 0 13.0391 0.210714 13.4142 0.585786C13.7893 0.960859 14 1.46957 14 2V14C14 14.5304 13.7893 15.0391 13.4142 15.4142C13.0391 15.7893 12.5304 16 12 16H4C3.46957 16 2.96086 15.7893 2.58579 15.4142C2.21071 15.0391 2 14.5304 2 14V2C2 1.46957 2.21071 0.960859 2.58579 0.585786C2.96086 0.210714 3.46957 0 4 0ZM4.165 11.668C4.255 11.848 4.395 12.011 4.603 12.087C4.81 12.162 5.015 12.127 5.183 12.057C5.501 11.927 5.818 11.621 6.109 11.271C6.442 10.87 6.792 10.344 7.13 9.761C7.78252 9.56754 8.45074 9.43169 9.127 9.355C9.427 9.738 9.737 10.068 10.037 10.305C10.317 10.525 10.64 10.708 10.971 10.722C11.1513 10.7309 11.3298 10.6826 11.481 10.584C11.636 10.483 11.751 10.337 11.835 10.168C11.925 9.987 11.98 9.798 11.973 9.605C11.9667 9.41472 11.8962 9.23217 11.773 9.087C11.547 8.817 11.177 8.687 10.813 8.622C10.3714 8.55361 9.92343 8.53683 9.478 8.572C9.10186 8.04025 8.77389 7.47602 8.498 6.886C8.748 6.226 8.935 5.602 9.018 5.092C9.054 4.874 9.073 4.666 9.066 4.478C9.06476 4.29139 9.02134 4.10747 8.939 3.94C8.89156 3.84758 8.82414 3.76687 8.74164 3.70374C8.65913 3.64061 8.56361 3.59663 8.462 3.575C8.26 3.532 8.052 3.575 7.861 3.652C7.484 3.802 7.285 4.122 7.21 4.475C7.137 4.815 7.17 5.211 7.256 5.611C7.344 6.017 7.494 6.459 7.686 6.906C7.37886 7.66979 7.02417 8.41358 6.624 9.133C6.10864 9.29515 5.61188 9.51135 5.142 9.778C4.772 9.998 4.443 10.258 4.245 10.565C4.035 10.891 3.97 11.279 4.165 11.668Z" fill="#7F8EBE"/>
</svg>
