<svg width="16" height="17" viewBox="0 0 16 17" fill="none" xmlns="http://www.w3.org/2000/svg">
<g clip-path="url(#clip0_812_638)">
<path d="M6.956 15.034C7.021 15.97 7.908 16.693 8.864 16.454L9.125 16.389C9.36444 16.3331 9.58455 16.2141 9.7625 16.0444C9.94045 15.8747 10.0698 15.6605 10.137 15.424C10.357 14.608 10.67 12.912 10.199 10.914C10.335 10.934 10.484 10.951 10.642 10.965C11.355 11.03 12.311 11.036 13.158 10.754C13.676 10.581 14.152 10.074 14.358 9.48203C14.4611 9.19546 14.4937 8.88825 14.453 8.58642C14.4123 8.28459 14.2994 7.99701 14.124 7.74803C14.182 7.63003 14.227 7.50603 14.262 7.38603C14.339 7.11603 14.375 6.81803 14.375 6.53003C14.375 6.24003 14.339 5.94403 14.262 5.67303C14.2228 5.53352 14.1691 5.39846 14.102 5.27003C14.271 4.88303 14.209 4.45003 14.099 4.12103C13.9863 3.79651 13.8215 3.49253 13.611 3.22103C13.665 3.06803 13.687 2.90803 13.687 2.75603C13.6827 2.4353 13.5956 2.12113 13.434 1.84403C13.1 1.25703 12.437 0.780029 11.5 0.780029H8C7.395 0.780029 6.93 0.860029 6.534 0.997029C6.19346 1.12171 5.86807 1.28441 5.564 1.48203L5.516 1.51103C5.012 1.81903 4.517 2.12103 3.448 2.23403C2.682 2.31503 2 2.93403 2 3.77903V7.77903C2 8.63003 2.685 9.21203 3.357 9.39503C4.206 9.62703 4.931 10.182 5.489 10.805C6.049 11.431 6.403 12.085 6.528 12.443C6.727 13.018 6.884 13.983 6.956 15.034Z" fill="#DC3545"/>
</g>
<defs>
<clipPath id="clip0_812_638">
<rect width="16" height="16" fill="white" transform="translate(0 0.5)"/>
</clipPath>
</defs>
</svg>
