<svg width="16" height="16" viewBox="0 0 16 16" fill="none" xmlns="http://www.w3.org/2000/svg">
<g clip-path="url(#clip0_109_2671)">
<rect width="16" height="16" fill="white" fill-opacity="0.01"/>
<path d="M0.501953 9.9011C0.634561 9.9011 0.761738 9.95378 0.855507 10.0475C0.949275 10.1413 1.00195 10.2685 1.00195 10.4011V12.9011C1.00195 13.1663 1.10731 13.4207 1.29485 13.6082C1.48238 13.7957 1.73674 13.9011 2.00195 13.9011H14.002C14.2672 13.9011 14.5215 13.7957 14.7091 13.6082C14.8966 13.4207 15.002 13.1663 15.002 12.9011V10.4011C15.002 10.2685 15.0546 10.1413 15.1484 10.0475C15.2422 9.95378 15.3693 9.9011 15.502 9.9011C15.6346 9.9011 15.7617 9.95378 15.8555 10.0475C15.9493 10.1413 16.002 10.2685 16.002 10.4011V12.9011C16.002 13.4315 15.7912 13.9402 15.4162 14.3153C15.0411 14.6904 14.5324 14.9011 14.002 14.9011H2.00195C1.47152 14.9011 0.962812 14.6904 0.58774 14.3153C0.212667 13.9402 0.00195313 13.4315 0.00195312 12.9011V10.4011C0.00195313 10.2685 0.0546316 10.1413 0.1484 10.0475C0.242168 9.95378 0.369345 9.9011 0.501953 9.9011Z" fill="#487CFB"/>
<path d="M7.64795 11.8551C7.6944 11.9017 7.74957 11.9386 7.81032 11.9638C7.87106 11.989 7.93619 12.002 8.00195 12.002C8.06772 12.002 8.13284 11.989 8.19359 11.9638C8.25433 11.9386 8.30951 11.9017 8.35595 11.8551L11.356 8.8551C11.4498 8.76121 11.5026 8.63387 11.5026 8.5011C11.5026 8.36832 11.4498 8.24099 11.356 8.1471C11.2621 8.05321 11.1347 8.00047 11.002 8.00047C10.8692 8.00047 10.7418 8.05321 10.648 8.1471L8.50195 10.2941V1.5011C8.50195 1.36849 8.44928 1.24131 8.35551 1.14755C8.26174 1.05378 8.13456 1.0011 8.00195 1.0011C7.86934 1.0011 7.74217 1.05378 7.6484 1.14755C7.55463 1.24131 7.50195 1.36849 7.50195 1.5011V10.2941L5.35595 8.1471C5.26207 8.05321 5.13473 8.00047 5.00195 8.00047C4.86918 8.00047 4.74184 8.05321 4.64795 8.1471C4.55407 8.24099 4.50132 8.36832 4.50132 8.5011C4.50132 8.63387 4.55407 8.76121 4.64795 8.8551L7.64795 11.8551Z" fill="#487CFB"/>
</g>
<defs>
<clipPath id="clip0_109_2671">
<rect width="16" height="16" fill="white"/>
</clipPath>
</defs>
</svg>
