<svg width="24" height="25" viewBox="0 0 24 25" fill="none" xmlns="http://www.w3.org/2000/svg">
    <path opacity="0.6"
          d="M22.2073 21.2933L16.3145 15.4003C17.5659 13.7892 18.1561 11.7618 17.9651 9.73074C17.7741 7.69973 16.8162 5.81788 15.2864 4.46835C13.7566 3.11881 11.77 2.40305 9.73098 2.46681C7.69201 2.53056 5.75399 3.36904 4.31151 4.81151C2.86904 6.25399 2.03056 8.19201 1.96681 10.231C1.90305 12.27 2.61881 14.2566 3.96835 15.7864C5.31788 17.3162 7.19973 18.2741 9.23074 18.4651C11.2618 18.6561 13.2892 18.0659 14.9003 16.8145L20.7933 22.7073L22.2073 21.2933ZM10.0003 16.5003C8.81361 16.5003 7.65358 16.1484 6.66688 15.4892C5.68019 14.8299 4.91115 13.8928 4.45703 12.7964C4.0029 11.7001 3.88408 10.4937 4.11559 9.32976C4.3471 8.16587 4.91855 7.09678 5.75766 6.25766C6.59678 5.41855 7.66587 4.8471 8.82976 4.61559C9.99365 4.38408 11.2001 4.5029 12.2964 4.95703C13.3928 5.41115 14.3299 6.18019 14.9892 7.16688C15.6484 8.15358 16.0003 9.31361 16.0003 10.5003C15.9985 12.0911 15.3658 13.6162 14.241 14.741C13.1162 15.8658 11.5911 16.4985 10.0003 16.5003Z"
          fill="#7F8EBE"/>
</svg>
