<svg width="16" height="14" viewBox="0 0 16 14" fill="none" xmlns="http://www.w3.org/2000/svg">
<path fill-rule="evenodd" clip-rule="evenodd" d="M0 7.00004C0 6.73483 0.105357 6.48047 0.292893 6.29294C0.48043 6.1054 0.734784 6.00004 1 6.00004H12.586L8.292 1.70804C8.10423 1.52027 7.99874 1.26559 7.99874 1.00004C7.99874 0.734491 8.10423 0.479816 8.292 0.292043C8.47977 0.104269 8.73445 -0.0012207 9 -0.0012207C9.26555 -0.0012207 9.52023 0.104269 9.708 0.292043L15.708 6.29204C15.8011 6.38493 15.875 6.49529 15.9254 6.61678C15.9758 6.73827 16.0018 6.86851 16.0018 7.00004C16.0018 7.13158 15.9758 7.26182 15.9254 7.38331C15.875 7.5048 15.8011 7.61515 15.708 7.70804L9.708 13.708C9.52023 13.8958 9.26555 14.0013 9 14.0013C8.73445 14.0013 8.47977 13.8958 8.292 13.708C8.10423 13.5203 7.99874 13.2656 7.99874 13C7.99874 12.7345 8.10423 12.4798 8.292 12.292L12.586 8.00004H1C0.734784 8.00004 0.48043 7.89469 0.292893 7.70715C0.105357 7.51961 0 7.26526 0 7.00004Z" fill="white"/>
</svg>
