<svg width="16" height="16" viewBox="0 0 16 16" fill="none" xmlns="http://www.w3.org/2000/svg">
<path d="M8 6.493C9.664 4.782 13.825 7.776 8 11.625C2.175 7.775 6.336 4.782 8 6.493Z" fill="#487CFB"/>
<path d="M4.07322 3.07322C4.12011 3.02634 4.1837 3 4.25 3H5.75C5.8163 3 5.87989 3.02634 5.92678 3.07322C5.97366 3.12011 6 3.1837 6 3.25C6 3.3163 5.97366 3.37989 5.92678 3.42678C5.87989 3.47366 5.8163 3.5 5.75 3.5H4.5V4.75C4.5 4.8163 4.47366 4.87989 4.42678 4.92678C4.37989 4.97366 4.3163 5 4.25 5C4.1837 5 4.12011 4.97366 4.07322 4.92678C4.02634 4.87989 4 4.8163 4 4.75V3.25C4 3.1837 4.02634 3.12011 4.07322 3.07322Z" fill="#487CFB"/>
<path d="M10.0732 3.07322C10.1201 3.02634 10.1837 3 10.25 3H11.75C11.8163 3 11.8799 3.02634 11.9268 3.07322C11.9737 3.12011 12 3.1837 12 3.25V4.75C12 4.8163 11.9737 4.87989 11.9268 4.92678C11.8799 4.97366 11.8163 5 11.75 5C11.6837 5 11.6201 4.97366 11.5732 4.92678C11.5263 4.87989 11.5 4.8163 11.5 4.75V3.5H10.25C10.1837 3.5 10.1201 3.47366 10.0732 3.42678C10.0263 3.37989 10 3.3163 10 3.25C10 3.1837 10.0263 3.12011 10.0732 3.07322Z" fill="#487CFB"/>
<path d="M4.42678 12.0732C4.47366 12.1201 4.5 12.1837 4.5 12.25V13.5H5.75C5.8163 13.5 5.87989 13.5263 5.92678 13.5732C5.97366 13.6201 6 13.6837 6 13.75C6 13.8163 5.97366 13.8799 5.92678 13.9268C5.87989 13.9737 5.8163 14 5.75 14H4.25C4.112 14 4 13.888 4 13.75V12.25C4 12.1837 4.02634 12.1201 4.07322 12.0732C4.12011 12.0263 4.1837 12 4.25 12C4.3163 12 4.37989 12.0263 4.42678 12.0732Z" fill="#487CFB"/>
<path d="M11.9268 12.0732C11.9737 12.1201 12 12.1837 12 12.25V13.75C12 13.8163 11.9737 13.8799 11.9268 13.9268C11.8799 13.9737 11.8163 14 11.75 14H10.25C10.1837 14 10.1201 13.9737 10.0732 13.9268C10.0263 13.8799 10 13.8163 10 13.75C10 13.6837 10.0263 13.6201 10.0732 13.5732C10.1201 13.5263 10.1837 13.5 10.25 13.5H11.5V12.25C11.5 12.1837 11.5263 12.1201 11.5732 12.0732C11.6201 12.0263 11.6837 12 11.75 12C11.8163 12 11.8799 12.0263 11.9268 12.0732Z" fill="#487CFB"/>
<path fill-rule="evenodd" clip-rule="evenodd" d="M2 1.95191V14.9999C2 15.2651 2.10536 15.5195 2.29289 15.707C2.48043 15.8945 2.73478 15.9999 3 15.9999H13C13.2652 15.9999 13.5196 15.8945 13.7071 15.707C13.8946 15.5195 14 15.2651 14 14.9999V1.99991C14 1.73469 13.8946 1.48034 13.7071 1.2928C13.5196 1.10526 13.2652 0.999907 13 0.999907C12.993 0.864588 12.9585 0.73211 12.8987 0.610513C12.8389 0.488917 12.7551 0.38074 12.6522 0.29255C12.5493 0.20436 12.4296 0.137996 12.3003 0.0974887C12.171 0.0569811 12.0348 0.0431743 11.9 0.0569066L2.9 0.956907C2.65334 0.981697 2.42467 1.09723 2.25838 1.28108C2.09208 1.46493 2 1.704 2 1.95191ZM3 14.9999V1.99991H13V14.9999H3Z" fill="#487CFB"/>
</svg>
