<svg width="73" height="72" viewBox="0 0 73 72" fill="none" xmlns="http://www.w3.org/2000/svg">
<path d="M0.599976 36C0.599976 16.1178 16.7177 0 36.6 0C56.4822 0 72.6 16.1178 72.6 36C72.6 55.8823 56.4822 72 36.6 72C16.7177 72 0.599976 55.8823 0.599976 36Z" fill="#F5F7FC"/>
<g clip-path="url(#clip0_1339_14511)">
<rect width="32" height="32" transform="translate(20.6 20)" fill="white" fill-opacity="0.01"/>
<path d="M30.7479 21.1215C32.9179 20.5315 35.2239 20.0015 36.6039 20.0015C37.9839 20.0015 40.2899 20.5315 42.4599 21.1215C44.6799 21.7215 46.9179 22.4315 48.2339 22.8615C48.7841 23.0432 49.2719 23.3764 49.6413 23.8229C50.0106 24.2693 50.2465 24.8109 50.3219 25.3855C51.5139 34.3395 48.7479 40.9755 45.3919 45.3655C43.9688 47.2434 42.2719 48.8972 40.3579 50.2715C39.6961 50.747 38.9949 51.1652 38.2619 51.5215C37.7019 51.7855 37.0999 52.0015 36.6039 52.0015C36.1079 52.0015 35.5079 51.7855 34.9459 51.5215C34.2129 51.1652 33.5117 50.747 32.8499 50.2715C30.9359 48.8971 29.2391 47.2434 27.8159 45.3655C24.4599 40.9755 21.6939 34.3395 22.8859 25.3855C22.9613 24.8109 23.1972 24.2693 23.5665 23.8229C23.9359 23.3764 24.4237 23.0432 24.9739 22.8615C26.8843 22.2351 28.8095 21.6549 30.7479 21.1215Z" fill="#487CFB"/>
</g>
<defs>
<clipPath id="clip0_1339_14511">
<rect width="32" height="32" fill="white" transform="translate(20.6 20)"/>
</clipPath>
</defs>
</svg>
