<svg width="48" height="48" viewBox="0 0 48 48" fill="none" xmlns="http://www.w3.org/2000/svg">
<g clip-path="url(#clip0_1700_13887)">
<rect width="48" height="48" fill="white" fill-opacity="0.01"/>
<path fill-rule="evenodd" clip-rule="evenodd" d="M10.9982 2.93802C10.0954 3.4392 9.77864 4.58296 10.2949 5.47717L32.9412 44.7017C33.4453 45.5749 34.5565 45.8826 35.438 45.3932C36.3408 44.8921 36.6576 43.7483 36.1413 42.8541L13.495 3.62958C12.9909 2.75637 11.8797 2.44861 10.9982 2.93802ZM10.53 10.4067C10.3689 10.5462 10.218 10.6985 10.0786 10.8625C9.43403 11.6213 9.0804 12.5833 9.0806 13.5775V20.7864L4.80758 22.2063C4.43774 22.3291 4.09986 22.5322 3.8183 22.8009C3.53675 23.0696 3.31853 23.3972 3.1794 23.7601C3.04026 24.1229 2.98366 24.5121 3.01369 24.8994C3.04371 25.2867 3.15961 25.6625 3.35303 25.9998L8.95623 35.7692L11.6335 34.4332C12.8044 33.8498 14.0956 33.5461 15.4048 33.5461C16.7139 33.5461 18.0051 33.8498 19.1761 34.4332L21.9503 35.8175C22.5357 36.1092 23.1813 36.2611 23.8359 36.2611C24.3386 36.2611 24.836 36.1715 25.305 35.9978L15.3258 18.7133L13.2967 19.3874V15.1988L10.53 10.4067ZM23.3951 16.1365C23.99 16.0742 24.5951 16.1384 25.1693 16.3291L34.3772 19.3874V13.5775L23.837 11.8278L21.1636 12.2715L18.9201 8.38569L19.6209 8.26953V5.49688C19.6209 4.9398 19.843 4.40553 20.2383 4.01161C20.6336 3.61769 21.1698 3.39639 21.7289 3.39639H25.945C26.5041 3.39639 27.0403 3.61769 27.4356 4.01161C27.831 4.40553 28.0531 4.9398 28.0531 5.49688V8.26953L35.0708 9.4332C36.0548 9.59723 36.9486 10.1037 37.5932 10.8625C38.2378 11.6213 38.5914 12.5833 38.5912 13.5775V20.7864L42.9338 22.2273C43.2797 22.3423 43.5978 22.5275 43.8681 22.7713C44.1385 23.015 44.3551 23.3121 44.5043 23.6435C44.6535 23.975 44.732 24.3337 44.7349 24.697C44.7378 25.0603 44.665 25.4202 44.5212 25.754L39.9488 36.3825L36.0405 34.4332C35.2385 34.0337 34.3802 33.7653 33.4983 33.6358L23.3951 16.1365ZM26.2589 37.65L25.7216 37.918L25.3611 38.0776C24.8128 38.2895 24.2261 38.3847 23.6387 38.3572C23.0513 38.3297 22.4762 38.1801 21.9503 37.918L19.1761 36.5358L18.7249 36.3258C17.5987 35.845 16.3809 35.6146 15.1562 35.6505C13.9315 35.6864 12.7293 35.9878 11.6335 36.5337L6.03025 39.3253L5.81523 39.4492C5.36287 39.742 5.04035 40.1964 4.91407 40.719C4.78778 41.2415 4.86734 41.7924 5.13636 42.2583C5.40538 42.7242 5.8434 43.0695 6.36026 43.2234C6.87711 43.3772 7.43348 43.3277 7.91485 43.0852L13.5181 40.2915L13.8806 40.1319C14.4286 39.9203 15.0149 39.8252 15.6019 39.8527C16.189 39.8802 16.7637 40.0297 17.2894 40.2915L20.0657 41.6757L20.5147 41.8816C21.641 42.363 22.8592 42.594 24.0843 42.5584C25.3094 42.5229 26.5119 42.2217 27.6083 41.6757L28.3651 41.2981L26.2589 37.65ZM38.6272 42.5194L34.902 36.067C35.1343 36.1432 35.3637 36.2294 35.5894 36.3258L36.0405 36.5358L41.6437 39.3253C42.125 39.5647 42.4962 39.9785 42.6813 40.4818C42.8664 40.9851 42.8514 41.5399 42.6394 42.0325C42.4273 42.5251 42.0343 42.9184 41.5408 43.1316C41.0472 43.3449 40.4905 43.3621 39.9846 43.1797L39.7591 43.0831L38.6272 42.5194ZM25.1919 46.5184L25.1699 46.5224L25.0279 46.5924L24.9879 46.6004L24.9599 46.5924L24.8179 46.5224C24.7965 46.5157 24.7805 46.5191 24.7699 46.5324L24.7619 46.5524L24.7279 47.4084L24.7379 47.4484L24.7579 47.4744L24.9659 47.6224L24.9959 47.6304L25.0199 47.6224L25.2279 47.4744L25.2519 47.4424L25.2599 47.4084L25.2259 46.5544C25.2205 46.5331 25.2092 46.5211 25.1919 46.5184ZM25.7219 46.2924L25.6959 46.2964L25.3259 46.4824L25.3059 46.5024L25.2999 46.5244L25.3359 47.3844L25.3459 47.4084L25.3619 47.4224L25.7639 47.6084C25.7892 47.6151 25.8085 47.6097 25.8219 47.5924L25.8299 47.5644L25.7619 46.3364C25.7552 46.3124 25.7419 46.2977 25.7219 46.2924ZM24.2919 46.2964C24.283 46.2911 24.2725 46.2893 24.2625 46.2916C24.2524 46.2938 24.2436 46.2998 24.2379 46.3084L24.2259 46.3364L24.1579 47.5644C24.1592 47.5884 24.1705 47.6044 24.1919 47.6124L24.2219 47.6084L24.6239 47.4224L24.6439 47.4064L24.6519 47.3844L24.6859 46.5244L24.6799 46.5004L24.6599 46.4804L24.2919 46.2964Z" fill="#CCD3E7"/>
</g>
<defs>
<clipPath id="clip0_1700_13887">
<rect width="48" height="48" fill="white"/>
</clipPath>
</defs>
</svg>
