<svg width="72" height="72" viewBox="0 0 72 72" fill="none" xmlns="http://www.w3.org/2000/svg">
<path d="M0 36C0 16.1178 16.1178 0 36 0C55.8823 0 72 16.1178 72 36C72 55.8823 55.8823 72 36 72C16.1178 72 0 55.8823 0 36Z" fill="#F5F7FC"/>
<g clip-path="url(#clip0_1339_14516)">
<rect width="32" height="32" transform="translate(20 20)" fill="white" fill-opacity="0.01"/>
<path d="M34.0039 34.0015C34.0039 33.471 34.2146 32.9623 34.5897 32.5873C34.9648 32.2122 35.4735 32.0015 36.0039 32.0015C36.5343 32.0015 37.043 32.2122 37.4181 32.5873C37.7932 32.9623 38.0039 33.471 38.0039 34.0015V36.0015H34.0039V34.0015Z" fill="#487CFB"/>
<path d="M38.5899 20.0015H28.0039C26.943 20.0015 25.9256 20.4229 25.1755 21.173C24.4253 21.9232 24.0039 22.9406 24.0039 24.0015V48.0015C24.0039 49.0623 24.4253 50.0797 25.1755 50.8299C25.9256 51.58 26.943 52.0015 28.0039 52.0015H44.0039C45.0648 52.0015 46.0822 51.58 46.8323 50.8299C47.5825 50.0797 48.0039 49.0623 48.0039 48.0015V29.4155C48.0038 28.8851 47.793 28.3765 47.4179 28.0015L40.0039 20.5875C39.6289 20.2124 39.1203 20.0016 38.5899 20.0015ZM39.0039 27.0015V23.0015L45.0039 29.0015H41.0039C40.4735 29.0015 39.9648 28.7908 39.5897 28.4157C39.2146 28.0406 39.0039 27.5319 39.0039 27.0015ZM40.0039 34.0015V36.1535C41.0839 36.4855 42.0039 37.3475 42.0039 38.6015V43.4015C42.0039 45.0335 40.4419 46.0015 39.0039 46.0015H33.0039C31.5659 46.0015 30.0039 45.0335 30.0039 43.4015V38.6015C30.0039 37.3475 30.9239 36.4855 32.0039 36.1535V34.0015C32.0039 32.9406 32.4253 31.9232 33.1755 31.173C33.9256 30.4229 34.943 30.0015 36.0039 30.0015C37.0648 30.0015 38.0822 30.4229 38.8323 31.173C39.5825 31.9232 40.0039 32.9406 40.0039 34.0015Z" fill="#487CFB"/>
</g>
<defs>
<clipPath id="clip0_1339_14516">
<rect width="32" height="32" fill="white" transform="translate(20 20)"/>
</clipPath>
</defs>
</svg>
