<svg width="16" height="17" viewBox="0 0 16 17" fill="none" xmlns="http://www.w3.org/2000/svg">
<path d="M4.50195 9.5C4.89978 9.5 5.28131 9.34196 5.56261 9.06066C5.84392 8.77936 6.00195 8.39782 6.00195 8C6.00195 7.60218 5.84392 7.22064 5.56261 6.93934C5.28131 6.65804 4.89978 6.5 4.50195 6.5C4.10413 6.5 3.7226 6.65804 3.44129 6.93934C3.15999 7.22064 3.00195 7.60218 3.00195 8C3.00195 8.39782 3.15999 8.77936 3.44129 9.06066C3.7226 9.34196 4.10413 9.5 4.50195 9.5Z" fill="#A6B1D2"/>
<path d="M14.002 13.5C14.002 14.0304 13.7912 14.5391 13.4162 14.9142C13.0411 15.2893 12.5324 15.5 12.002 15.5H2.00195C1.47152 15.5 0.962812 15.2893 0.58774 14.9142C0.212667 14.5391 0.00195313 14.0304 0.00195313 13.5V5.5C0.00195286 4.96991 0.212392 4.46151 0.587032 4.08649C0.961673 3.71148 1.46987 3.50053 1.99995 3.5C1.99995 2.96957 2.21067 2.46086 2.58574 2.08579C2.96081 1.71071 3.46952 1.5 3.99995 1.5H14C14.5304 1.5 15.0391 1.71071 15.4142 2.08579C15.7892 2.46086 16 2.96957 16 3.5V11.5C16 12.0301 15.7895 12.5385 15.4149 12.9135C15.0402 13.2885 14.532 13.4995 14.002 13.5ZM2.00195 4.5C1.73674 4.5 1.48238 4.60536 1.29485 4.79289C1.10731 4.98043 1.00195 5.23478 1.00195 5.5V13.5L3.64795 11.146C3.72969 11.0646 3.83707 11.0139 3.95189 11.0026C4.06672 10.9913 4.18191 11.0201 4.27795 11.084L6.93795 12.857L10.648 9.147C10.7221 9.07277 10.8177 9.02376 10.9213 9.00689C11.0248 8.99002 11.1311 9.00615 11.225 9.053L13.002 11V5.5C13.002 5.23478 12.8966 4.98043 12.7091 4.79289C12.5215 4.60536 12.2672 4.5 12.002 4.5H2.00195Z" fill="#A6B1D2"/>
</svg>
