<svg width="73" height="72" viewBox="0 0 73 72" fill="none" xmlns="http://www.w3.org/2000/svg">
<path d="M0.799988 36C0.799988 16.1178 16.9177 0 36.8 0C56.6822 0 72.8 16.1178 72.8 36C72.8 55.8823 56.6822 72 36.8 72C16.9177 72 0.799988 55.8823 0.799988 36Z" fill="#F5F7FC"/>
<g clip-path="url(#clip0_1339_14518)">
<rect width="32" height="32" transform="translate(20.8 20)" fill="white" fill-opacity="0.01"/>
<path d="M20.8079 26.0015C20.8079 24.9406 21.2293 23.9232 21.9794 23.173C22.7296 22.4229 23.747 22.0015 24.8079 22.0015H48.8079C49.8687 22.0015 50.8861 22.4229 51.6363 23.173C52.3864 23.9232 52.8079 24.9406 52.8079 26.0015V46.0015C52.8079 47.0623 52.3864 48.0797 51.6363 48.8299C50.8861 49.58 49.8687 50.0015 48.8079 50.0015H24.8079C23.747 50.0015 22.7296 49.58 21.9794 48.8299C21.2293 48.0797 20.8079 47.0623 20.8079 46.0015V26.0015ZM22.8079 44.0015V46.0015C22.8079 46.5319 23.0186 47.0406 23.3936 47.4157C23.7687 47.7908 24.2774 48.0015 24.8079 48.0015H48.8079C49.3383 48.0015 49.847 47.7908 50.2221 47.4157C50.5971 47.0406 50.8079 46.5319 50.8079 46.0015V39.0015L43.2539 35.1075C43.0663 35.0135 42.854 34.9809 42.6469 35.0143C42.4398 35.0477 42.2484 35.1453 42.0999 35.2935L34.6799 42.7135L29.3599 39.1695C29.1678 39.0416 28.9374 38.9841 28.7077 39.0067C28.4781 39.0293 28.2633 39.1306 28.0999 39.2935L22.8079 44.0015ZM32.8079 31.0015C32.8079 30.2058 32.4918 29.4428 31.9292 28.8801C31.3666 28.3175 30.6035 28.0015 29.8079 28.0015C29.0122 28.0015 28.2491 28.3175 27.6865 28.8801C27.1239 29.4428 26.8079 30.2058 26.8079 31.0015C26.8079 31.7971 27.1239 32.5602 27.6865 33.1228C28.2491 33.6854 29.0122 34.0015 29.8079 34.0015C30.6035 34.0015 31.3666 33.6854 31.9292 33.1228C32.4918 32.5602 32.8079 31.7971 32.8079 31.0015Z" fill="#487CFB"/>
</g>
<defs>
<clipPath id="clip0_1339_14518">
<rect width="32" height="32" fill="white" transform="translate(20.8 20)"/>
</clipPath>
</defs>
</svg>
