<svg width="73" height="72" viewBox="0 0 73 72" fill="none" xmlns="http://www.w3.org/2000/svg">
<path d="M0.599976 36C0.599976 16.1178 16.7177 0 36.6 0C56.4822 0 72.6 16.1178 72.6 36C72.6 55.8823 56.4822 72 36.6 72C16.7177 72 0.599976 55.8823 0.599976 36Z" fill="#F5F7FC"/>
<g clip-path="url(#clip0_1339_14520)">
<rect width="32" height="32" transform="translate(20.6 20)" fill="white" fill-opacity="0.01"/>
<path d="M39.1899 20.0015H28.6039C27.543 20.0015 26.5256 20.4229 25.7755 21.173C25.0253 21.9232 24.6039 22.9406 24.6039 24.0015V48.0015C24.6039 49.0623 25.0253 50.0797 25.7755 50.8299C26.5256 51.58 27.543 52.0015 28.6039 52.0015H44.6039C45.6647 52.0015 46.6822 51.58 47.4323 50.8299C48.1825 50.0797 48.6039 49.0623 48.6039 48.0015V29.4155C48.6038 28.8851 48.393 28.3765 48.0179 28.0015L40.6039 20.5875C40.2289 20.2124 39.7203 20.0016 39.1899 20.0015ZM39.6039 27.0015V23.0015L45.6039 29.0015H41.6039C41.0734 29.0015 40.5647 28.7908 40.1897 28.4157C39.8146 28.0406 39.6039 27.5319 39.6039 27.0015ZM29.6039 38.0015C29.3387 38.0015 29.0843 37.8961 28.8968 37.7086C28.7092 37.521 28.6039 37.2667 28.6039 37.0015C28.6039 36.7362 28.7092 36.4819 28.8968 36.2944C29.0843 36.1068 29.3387 36.0015 29.6039 36.0015H43.6039C43.8691 36.0015 44.1235 36.1068 44.311 36.2944C44.4985 36.4819 44.6039 36.7362 44.6039 37.0015C44.6039 37.2667 44.4985 37.521 44.311 37.7086C44.1235 37.8961 43.8691 38.0015 43.6039 38.0015H29.6039ZM28.6039 41.0015C28.6039 40.7362 28.7092 40.4819 28.8968 40.2944C29.0843 40.1068 29.3387 40.0015 29.6039 40.0015H43.6039C43.8691 40.0015 44.1235 40.1068 44.311 40.2944C44.4985 40.4819 44.6039 40.7362 44.6039 41.0015C44.6039 41.2667 44.4985 41.521 44.311 41.7086C44.1235 41.8961 43.8691 42.0015 43.6039 42.0015H29.6039C29.3387 42.0015 29.0843 41.8961 28.8968 41.7086C28.7092 41.521 28.6039 41.2667 28.6039 41.0015ZM29.6039 46.0015C29.3387 46.0015 29.0843 45.8961 28.8968 45.7086C28.7092 45.521 28.6039 45.2667 28.6039 45.0015C28.6039 44.7362 28.7092 44.4819 28.8968 44.2944C29.0843 44.1068 29.3387 44.0015 29.6039 44.0015H37.6039C37.8691 44.0015 38.1235 44.1068 38.311 44.2944C38.4985 44.4819 38.6039 44.7362 38.6039 45.0015C38.6039 45.2667 38.4985 45.521 38.311 45.7086C38.1235 45.8961 37.8691 46.0015 37.6039 46.0015H29.6039Z" fill="#487CFB"/>
</g>
<defs>
<clipPath id="clip0_1339_14520">
<rect width="32" height="32" fill="white" transform="translate(20.6 20)"/>
</clipPath>
</defs>
</svg>
