<svg width="25" height="24" viewBox="0 0 25 24" fill="none" xmlns="http://www.w3.org/2000/svg">
<g clip-path="url(#clip0_147_27453)">
<rect width="24" height="24" transform="translate(0.25)" fill="white" fill-opacity="0.01"/>
<path d="M0.25293 3.0011C0.25293 2.20545 0.569 1.44239 1.13161 0.879778C1.69422 0.317169 2.45728 0.00109863 3.25293 0.00109863H21.2529C22.0486 0.00109863 22.8116 0.317169 23.3742 0.879778C23.9369 1.44239 24.2529 2.20545 24.2529 3.0011V15.0011C24.2529 15.7967 23.9369 16.5598 23.3742 17.1224C22.8116 17.685 22.0486 18.0011 21.2529 18.0011H6.87393C6.47614 18.0012 6.09467 18.1593 5.81343 18.4406L1.53393 22.7201C1.42913 22.8252 1.29551 22.8968 1.14998 22.9259C1.00446 22.955 0.853577 22.9403 0.716429 22.8836C0.57928 22.8269 0.462033 22.7308 0.379526 22.6074C0.297019 22.4841 0.252961 22.339 0.25293 22.1906V3.0011ZM5.50293 4.5011C5.30402 4.5011 5.11325 4.58012 4.9726 4.72077C4.83195 4.86142 4.75293 5.05219 4.75293 5.2511C4.75293 5.45001 4.83195 5.64078 4.9726 5.78143C5.11325 5.92208 5.30402 6.0011 5.50293 6.0011H19.0029C19.2018 6.0011 19.3926 5.92208 19.5333 5.78143C19.6739 5.64078 19.7529 5.45001 19.7529 5.2511C19.7529 5.05219 19.6739 4.86142 19.5333 4.72077C19.3926 4.58012 19.2018 4.5011 19.0029 4.5011H5.50293ZM5.50293 8.2511C5.30402 8.2511 5.11325 8.33012 4.9726 8.47077C4.83195 8.61142 4.75293 8.80219 4.75293 9.0011C4.75293 9.20001 4.83195 9.39078 4.9726 9.53143C5.11325 9.67208 5.30402 9.7511 5.50293 9.7511H19.0029C19.2018 9.7511 19.3926 9.67208 19.5333 9.53143C19.6739 9.39078 19.7529 9.20001 19.7529 9.0011C19.7529 8.80219 19.6739 8.61142 19.5333 8.47077C19.3926 8.33012 19.2018 8.2511 19.0029 8.2511H5.50293ZM5.50293 12.0011C5.30402 12.0011 5.11325 12.0801 4.9726 12.2208C4.83195 12.3614 4.75293 12.5522 4.75293 12.7511C4.75293 12.95 4.83195 13.1408 4.9726 13.2814C5.11325 13.4221 5.30402 13.5011 5.50293 13.5011H13.0029C13.2018 13.5011 13.3926 13.4221 13.5333 13.2814C13.6739 13.1408 13.7529 12.95 13.7529 12.7511C13.7529 12.5522 13.6739 12.3614 13.5333 12.2208C13.3926 12.0801 13.2018 12.0011 13.0029 12.0011H5.50293Z" fill="#CCD3E7"/>
</g>
<defs>
<clipPath id="clip0_147_27453">
<rect width="24" height="24" fill="white" transform="translate(0.25)"/>
</clipPath>
</defs>
</svg>
