<svg width="16" height="17" viewBox="0 0 16 17" fill="none" xmlns="http://www.w3.org/2000/svg">
<g clip-path="url(#clip0_1767_2621)">
<path d="M6.5 0.5C6.10218 0.5 5.72064 0.658035 5.43934 0.93934C5.15804 1.22064 5 1.60218 5 2V3C5 3.39782 5.15804 3.77936 5.43934 4.06066C5.72064 4.34196 6.10218 4.5 6.5 4.5H9.5C9.89782 4.5 10.2794 4.34196 10.5607 4.06066C10.842 3.77936 11 3.39782 11 3V2C11 1.60218 10.842 1.22064 10.5607 0.93934C10.2794 0.658035 9.89782 0.5 9.5 0.5H6.5Z" fill="#A6B1D2"/>
<path fill-rule="evenodd" clip-rule="evenodd" d="M3 2C1.89543 2 1 2.89543 1 4V14.5C1 15.6046 1.89543 16.5 3 16.5H13C14.1046 16.5 15 15.6046 15 14.5V4C15 2.89543 14.1046 2 13 2H12.5C11.9477 2 11.5 2.44772 11.5 3C11.5 4.10457 10.6046 5 9.5 5H6.5C5.39543 5 4.5 4.10457 4.5 3C4.5 2.44772 4.05228 2 3.5 2H3ZM11.9445 7.46368C11.9078 7.37261 11.8541 7.28988 11.7864 7.22024C11.7189 7.15043 11.6386 7.09504 11.5503 7.05725C11.462 7.01945 11.3673 7 11.2716 7C11.176 7 11.0813 7.01945 10.993 7.05725C10.9046 7.09504 10.8244 7.15043 10.7569 7.22024L6.9092 11.189L5.24276 9.46924C5.17516 9.39954 5.0949 9.34425 5.00658 9.30652C4.91826 9.2688 4.82359 9.24939 4.72799 9.24939C4.53491 9.24939 4.34975 9.32847 4.21322 9.46924C4.14562 9.53894 4.092 9.62168 4.05541 9.71275C4.01883 9.80382 4 9.90143 4 10C4 10.0986 4.01883 10.1962 4.05541 10.2872C4.092 10.3783 4.14562 10.4611 4.21322 10.5308L6.39444 12.7798C6.46198 12.8496 6.54221 12.905 6.63054 12.9428C6.71887 12.9805 6.81357 13 6.9092 13C7.00484 13 7.09953 12.9805 7.18787 12.9428C7.2762 12.905 7.35643 12.8496 7.42397 12.7798L11.7864 8.28177C11.8541 8.21213 11.9078 8.1294 11.9445 8.03833C11.9811 7.94725 12 7.84961 12 7.751C12 7.6524 11.9811 7.55476 11.9445 7.46368Z" fill="#A6B1D2"/>
</g>
<defs>
<clipPath id="clip0_1767_2621">
<rect width="16" height="16" fill="white" transform="translate(0 0.5)"/>
</clipPath>
</defs>
</svg>
