<svg width="16" height="17" viewBox="0 0 16 17" fill="none" xmlns="http://www.w3.org/2000/svg">
<path d="M9 9H11.793L12.646 9.854C12.6925 9.9004 12.7477 9.93718 12.8085 9.96223C12.8692 9.98728 12.9343 10.0001 13 10H14C14.1326 10 14.2598 9.94732 14.3536 9.85355C14.4473 9.75979 14.5 9.63261 14.5 9.5V8.5C14.5 8.36739 14.4473 8.24021 14.3536 8.14645C14.2598 8.05268 14.1326 8 14 8H9V9Z" fill="#487CFB"/>
<path d="M12 3.5H4C2.93913 3.5 1.92172 3.92143 1.17157 4.67157C0.421427 5.42172 0 6.43913 0 7.5V13.5C0 13.7652 0.105357 14.0196 0.292893 14.2071C0.48043 14.3946 0.734784 14.5 1 14.5H15C15.2652 14.5 15.5196 14.3946 15.7071 14.2071C15.8946 14.0196 16 13.7652 16 13.5V7.5C16 6.43913 15.5786 5.42172 14.8284 4.67157C14.0783 3.92143 13.0609 3.5 12 3.5ZM8 7.5C8.00067 6.93241 7.88024 6.37122 7.64675 5.85388C7.41326 5.33654 7.07208 4.87498 6.646 4.5H12C12.7956 4.5 13.5587 4.81607 14.1213 5.37868C14.6839 5.94129 15 6.70435 15 7.5V13.5H8V7.5ZM4.585 7.657C4.42 7.587 4.218 7.5 4 7.5C3.782 7.5 3.58 7.586 3.415 7.657C3.164 7.764 3 7.834 3 7.5C3 7.23478 3.10536 6.98043 3.29289 6.79289C3.48043 6.60536 3.73478 6.5 4 6.5C4.26522 6.5 4.51957 6.60536 4.70711 6.79289C4.89464 6.98043 5 7.23478 5 7.5C5 7.834 4.836 7.764 4.585 7.657Z" fill="#487CFB"/>
</svg>
