<svg width="16" height="16" viewBox="0 0 16 16" fill="none" xmlns="http://www.w3.org/2000/svg">
<g clip-path="url(#clip0_261_19477)">
<rect width="16" height="16" fill="white" fill-opacity="0.01"/>
<path fill-rule="evenodd" clip-rule="evenodd" d="M5.99976 3.49915C5.99976 3.10132 6.15779 2.71979 6.4391 2.43849C6.7204 2.15718 7.10193 1.99915 7.49976 1.99915H8.49976C8.89758 1.99915 9.27911 2.15718 9.56042 2.43849C9.84172 2.71979 9.99976 3.10132 9.99976 3.49915V4.49915C9.99976 4.89697 9.84172 5.2785 9.56042 5.55981C9.27911 5.84111 8.89758 5.99915 8.49976 5.99915V6.99915H10.9998C11.1324 6.99915 11.2595 7.05182 11.3533 7.14559C11.4471 7.23936 11.4998 7.36654 11.4998 7.49915V8.49915C11.4998 8.63175 11.4471 8.75893 11.3533 8.8527C11.2595 8.94647 11.1324 8.99915 10.9998 8.99915C10.8671 8.99915 10.74 8.94647 10.6462 8.8527C10.5524 8.75893 10.4998 8.63175 10.4998 8.49915V7.99915H5.49976V8.49915C5.49976 8.63175 5.44708 8.75893 5.35331 8.8527C5.25954 8.94647 5.13236 8.99915 4.99976 8.99915C4.86715 8.99915 4.73997 8.94647 4.6462 8.8527C4.55243 8.75893 4.49976 8.63175 4.49976 8.49915V7.49915C4.49976 7.36654 4.55243 7.23936 4.6462 7.14559C4.73997 7.05182 4.86715 6.99915 4.99976 6.99915H7.49976V5.99915C7.10193 5.99915 6.7204 5.84111 6.4391 5.55981C6.15779 5.2785 5.99976 4.89697 5.99976 4.49915V3.49915ZM2.99976 11.4991C2.99976 11.1013 3.15779 10.7198 3.4391 10.4385C3.7204 10.1572 4.10193 9.99915 4.49976 9.99915H5.49976C5.89758 9.99915 6.27911 10.1572 6.56042 10.4385C6.84172 10.7198 6.99976 11.1013 6.99976 11.4991V12.4991C6.99976 12.897 6.84172 13.2785 6.56042 13.5598C6.27911 13.8411 5.89758 13.9991 5.49976 13.9991H4.49976C4.10193 13.9991 3.7204 13.8411 3.4391 13.5598C3.15779 13.2785 2.99976 12.897 2.99976 12.4991V11.4991ZM8.99976 11.4991C8.99976 11.1013 9.15779 10.7198 9.4391 10.4385C9.7204 10.1572 10.1019 9.99915 10.4998 9.99915H11.4998C11.8976 9.99915 12.2791 10.1572 12.5604 10.4385C12.8417 10.7198 12.9998 11.1013 12.9998 11.4991V12.4991C12.9998 12.897 12.8417 13.2785 12.5604 13.5598C12.2791 13.8411 11.8976 13.9991 11.4998 13.9991H10.4998C10.1019 13.9991 9.7204 13.8411 9.4391 13.5598C9.15779 13.2785 8.99976 12.897 8.99976 12.4991V11.4991Z" fill="#487CFB"/>
</g>
<defs>
<clipPath id="clip0_261_19477">
<rect width="16" height="16" fill="white"/>
</clipPath>
</defs>
</svg>
