<svg width="16" height="17" viewBox="0 0 16 17" fill="none" xmlns="http://www.w3.org/2000/svg">
<g clip-path="url(#clip0_1767_2608)">
<path d="M13.498 1.29499L13.647 1.14599C13.7591 1.0339 13.8923 0.945008 14.0388 0.884374C14.1853 0.82374 14.3423 0.792556 14.5009 0.792603C14.6594 0.792649 14.8164 0.823925 14.9629 0.884645C15.1093 0.945364 15.2424 1.03434 15.3545 1.14649C15.4666 1.25864 15.5555 1.39176 15.6161 1.53827C15.6767 1.68477 15.7079 1.84178 15.7079 2.00034C15.7078 2.1589 15.6766 2.31589 15.6158 2.46236C15.5551 2.60883 15.4661 2.7419 15.354 2.85399L15.205 3.00199C15.4599 3.28785 15.5958 3.66038 15.5848 4.04322C15.5738 4.42605 15.4168 4.79019 15.146 5.06099L4.854 15.354C4.78966 15.418 4.70911 15.4633 4.621 15.485L0.620999 16.485C0.537292 16.5058 0.449615 16.5047 0.366492 16.4816C0.283369 16.4585 0.207627 16.4144 0.14663 16.3534C0.085632 16.2924 0.0414533 16.2166 0.0183878 16.1335C-0.00467757 16.0504 -0.00584496 15.9627 0.0149991 15.879L1.015 11.879C1.03688 11.7912 1.08215 11.7111 1.146 11.647L10.788 2.00499C10.6916 1.93712 10.5742 1.90551 10.4568 1.91576C10.3393 1.92601 10.2292 1.97745 10.146 2.06099L6.854 5.35399C6.80751 5.40048 6.75232 5.43735 6.69158 5.46251C6.63084 5.48767 6.56574 5.50062 6.5 5.50062C6.43426 5.50062 6.36915 5.48767 6.30842 5.46251C6.24768 5.43735 6.19249 5.40048 6.146 5.35399C6.09951 5.3075 6.06263 5.25231 6.03748 5.19157C6.01232 5.13083 5.99937 5.06573 5.99937 4.99999C5.99937 4.93424 6.01232 4.86914 6.03748 4.8084C6.06263 4.74766 6.09951 4.69248 6.146 4.64599L9.44 1.35399C9.71097 1.083 10.0754 0.926008 10.4585 0.915223C10.8415 0.904437 11.2142 1.04068 11.5 1.29599C11.7748 1.05043 12.1303 0.914599 12.4988 0.914415C12.8673 0.914231 13.223 1.0497 13.498 1.29499Z" fill="#A6B1D2"/>
</g>
<defs>
<clipPath id="clip0_1767_2608">
<rect width="16" height="16" fill="white" transform="translate(0 0.5)"/>
</clipPath>
</defs>
</svg>
