<svg width="73" height="72" viewBox="0 0 73 72" fill="none" xmlns="http://www.w3.org/2000/svg">
<path d="M0.799988 36C0.799988 16.1178 16.9177 0 36.8 0C56.6822 0 72.8 16.1178 72.8 36C72.8 55.8823 56.6822 72 36.8 72C16.9177 72 0.799988 55.8823 0.799988 36Z" fill="#F5F7FC"/>
<g clip-path="url(#clip0_1339_14508)">
<rect width="32" height="32" transform="translate(20.8 20)" fill="white" fill-opacity="0.01"/>
<path d="M26.8039 48.0015C26.8039 48.0015 24.8039 48.0015 24.8039 46.0015C24.8039 44.0015 26.8039 38.0015 36.8039 38.0015C46.8039 38.0015 48.8039 44.0015 48.8039 46.0015C48.8039 48.0015 46.8039 48.0015 46.8039 48.0015H26.8039ZM36.8039 36.0015C38.3952 36.0015 39.9213 35.3693 41.0465 34.2441C42.1718 33.1189 42.8039 31.5928 42.8039 30.0015C42.8039 28.4102 42.1718 26.884 41.0465 25.7588C39.9213 24.6336 38.3952 24.0015 36.8039 24.0015C35.2126 24.0015 33.6865 24.6336 32.5613 25.7588C31.436 26.884 30.8039 28.4102 30.8039 30.0015C30.8039 31.5928 31.436 33.1189 32.5613 34.2441C33.6865 35.3693 35.2126 36.0015 36.8039 36.0015Z" fill="#487CFB"/>
</g>
<defs>
<clipPath id="clip0_1339_14508">
<rect width="32" height="32" fill="white" transform="translate(20.8 20)"/>
</clipPath>
</defs>
</svg>
