<svg width="16" height="16" viewBox="0 0 16 16" fill="none" xmlns="http://www.w3.org/2000/svg">
<g clip-path="url(#clip0_261_19515)">
<path d="M5.52276 10.4231C5.66276 10.3411 5.81576 10.2611 5.98176 10.1851C5.84152 10.3942 5.69135 10.5965 5.53176 10.7911C5.25176 11.1281 5.03376 11.3071 4.89676 11.3631C4.88538 11.368 4.87369 11.372 4.86176 11.3751C4.85178 11.3613 4.84307 11.3466 4.83576 11.3311C4.77976 11.2211 4.78176 11.1151 4.87576 10.9711C4.98176 10.8061 5.19476 10.6171 5.52276 10.4231ZM7.97776 8.77615C7.85876 8.80115 7.74076 8.82615 7.62176 8.85415C7.79807 8.50882 7.9648 8.15869 8.12176 7.80415C8.27974 8.09712 8.44989 8.38337 8.63176 8.66215C8.41476 8.69415 8.19576 8.73215 7.97776 8.77615ZM10.5028 9.71515C10.3474 9.58984 10.202 9.45277 10.0678 9.30515C10.2958 9.31015 10.5018 9.32714 10.6798 9.35915C10.9968 9.41615 11.1458 9.50615 11.1978 9.56815C11.2141 9.58546 11.2234 9.60831 11.2238 9.63215C11.2203 9.70269 11.1997 9.77132 11.1638 9.83215C11.1436 9.88087 11.1112 9.92357 11.0698 9.95615C11.0491 9.96881 11.0248 9.9741 11.0008 9.97115C10.9108 9.96815 10.7428 9.90515 10.5028 9.71515ZM8.27776 4.96915C8.23776 5.21315 8.16976 5.49314 8.07776 5.79815C8.04386 5.68394 8.01417 5.56853 7.98876 5.45215C7.91276 5.09915 7.90176 4.82215 7.94276 4.63015C7.98076 4.45315 8.05276 4.38215 8.13876 4.34715C8.18488 4.32681 8.23373 4.31334 8.28376 4.30715C8.29676 4.33715 8.31176 4.39915 8.31576 4.50515C8.32076 4.62715 8.30876 4.78215 8.27776 4.97015V4.96915Z" fill="#487CFB"/>
<path fill-rule="evenodd" clip-rule="evenodd" d="M3.99976 -0.000854492H11.9998C12.5302 -0.000854492 13.0389 0.209859 13.414 0.584932C13.789 0.960005 13.9998 1.46871 13.9998 1.99915V13.9991C13.9998 14.5296 13.789 15.0383 13.414 15.4134C13.0389 15.7884 12.5302 15.9991 11.9998 15.9991H3.99976C3.46932 15.9991 2.96061 15.7884 2.58554 15.4134C2.21047 15.0383 1.99976 14.5296 1.99976 13.9991V1.99915C1.99976 1.46871 2.21047 0.960005 2.58554 0.584932C2.96061 0.209859 3.46932 -0.000854492 3.99976 -0.000854492ZM4.16476 11.6671C4.25476 11.8471 4.39476 12.0101 4.60276 12.0861C4.80976 12.1611 5.01476 12.1261 5.18276 12.0561C5.50076 11.9261 5.81776 11.6201 6.10876 11.2701C6.44176 10.8691 6.79176 10.3431 7.12976 9.76015C7.78227 9.56669 8.4505 9.43084 9.12676 9.35415C9.42676 9.73715 9.73676 10.0671 10.0368 10.3041C10.3168 10.5241 10.6398 10.7071 10.9708 10.7211C11.1511 10.7301 11.3296 10.6818 11.4808 10.5831C11.6358 10.4821 11.7508 10.3361 11.8348 10.1671C11.9248 9.98615 11.9798 9.79714 11.9728 9.60415C11.9664 9.41386 11.8959 9.23131 11.7728 9.08615C11.5468 8.81614 11.1768 8.68614 10.8128 8.62115C10.3712 8.55276 9.92319 8.53598 9.47776 8.57115C9.10161 8.0394 8.77365 7.47516 8.49776 6.88515C8.74776 6.22515 8.93476 5.60115 9.01776 5.09115C9.05376 4.87315 9.07276 4.66515 9.06576 4.47715C9.06451 4.29053 9.0211 4.10661 8.93876 3.93915C8.89132 3.84672 8.8239 3.76602 8.74139 3.70289C8.65889 3.63975 8.56337 3.59578 8.46176 3.57415C8.25976 3.53115 8.05176 3.57415 7.86076 3.65115C7.48376 3.80115 7.28476 4.12115 7.20976 4.47415C7.13676 4.81415 7.16976 5.21015 7.25576 5.61015C7.34376 6.01615 7.49376 6.45815 7.68576 6.90515C7.37862 7.66893 7.02392 8.41272 6.62376 9.13215C6.1084 9.2943 5.61163 9.5105 5.14176 9.77715C4.77176 9.99715 4.44276 10.2571 4.24476 10.5641C4.03476 10.8901 3.96976 11.2781 4.16476 11.6671Z" fill="#487CFB"/>
</g>
<defs>
<clipPath id="clip0_261_19515">
<rect width="16" height="16" fill="white"/>
</clipPath>
</defs>
</svg>
