<svg width="25" height="24" viewBox="0 0 25 24" fill="none" xmlns="http://www.w3.org/2000/svg">
<path d="M13.5029 18.0011V19.7021C13.7889 19.8672 14.0124 20.122 14.1387 20.4271C14.2651 20.7322 14.2873 21.0704 14.2018 21.3894C14.1164 21.7083 13.928 21.9902 13.6661 22.1912C13.4041 22.3922 13.0831 22.5011 12.7529 22.5011C12.4227 22.5011 12.1018 22.3922 11.8398 22.1912C11.5778 21.9902 11.3895 21.7083 11.304 21.3894C11.2186 21.0704 11.2407 20.7322 11.3671 20.4271C11.4935 20.122 11.717 19.8672 12.0029 19.7021V18.0011H4.50293C3.90619 18.0011 3.3339 17.764 2.91194 17.3421C2.48998 16.9201 2.25293 16.3478 2.25293 15.7511V4.5011H23.2529V15.7511C23.2529 16.3478 23.0159 16.9201 22.5939 17.3421C22.172 17.764 21.5997 18.0011 21.0029 18.0011H13.5029ZM24.0029 3.0011C24.2018 3.0011 24.3926 2.92208 24.5333 2.78143C24.6739 2.64078 24.7529 2.45001 24.7529 2.2511C24.7529 2.05219 24.6739 1.86142 24.5333 1.72077C24.3926 1.58012 24.2018 1.5011 24.0029 1.5011H1.50293C1.30402 1.5011 1.11325 1.58012 0.9726 1.72077C0.831947 1.86142 0.75293 2.05219 0.75293 2.2511C0.75293 2.45001 0.831947 2.64078 0.9726 2.78143C1.11325 2.92208 1.30402 3.0011 1.50293 3.0011H24.0029Z" fill="#CCD3E7"/>
</svg>
