<svg width="16" height="16" viewBox="0 0 16 16" fill="none" xmlns="http://www.w3.org/2000/svg">
<g clip-path="url(#clip0_271_2624)">
<rect width="16" height="16" fill="white" fill-opacity="0.01"/>
<g clip-path="url(#clip1_271_2624)">
<path d="M7.99963 3.49915C7.99963 3.36654 7.94696 3.23936 7.85319 3.14559C7.75942 3.05182 7.63224 2.99915 7.49963 2.99915C7.36703 2.99915 7.23985 3.05182 7.14608 3.14559C7.05231 3.23936 6.99963 3.36654 6.99963 3.49915V8.99915C6.99966 9.08728 7.02298 9.17384 7.06724 9.25005C7.11149 9.32627 7.17511 9.38943 7.25163 9.43315L10.7516 11.4331C10.8665 11.4952 11.0011 11.5099 11.1266 11.4741C11.2522 11.4382 11.3587 11.3547 11.4235 11.2413C11.4883 11.128 11.5061 10.9938 11.4733 10.8674C11.4404 10.7411 11.3594 10.6326 11.2476 10.5651L7.99963 8.70915V3.49915Z" fill="#487CFB"/>
<path d="M7.99963 15.9991C10.1214 15.9991 12.1562 15.1563 13.6565 13.656C15.1568 12.1557 15.9996 10.1209 15.9996 7.99915C15.9996 5.87741 15.1568 3.84258 13.6565 2.34229C12.1562 0.842 10.1214 -0.000854492 7.99963 -0.000854492C5.8779 -0.000854492 3.84307 0.842 2.34278 2.34229C0.842489 3.84258 -0.000366211 5.87741 -0.000366211 7.99915C-0.000366211 10.1209 0.842489 12.1557 2.34278 13.656C3.84307 15.1563 5.8779 15.9991 7.99963 15.9991ZM14.9996 7.99915C14.9996 9.85566 14.2621 11.6361 12.9494 12.9489C11.6366 14.2616 9.85615 14.9991 7.99963 14.9991C6.14312 14.9991 4.36264 14.2616 3.04989 12.9489C1.73713 11.6361 0.999634 9.85566 0.999634 7.99915C0.999634 6.14263 1.73713 4.36215 3.04989 3.0494C4.36264 1.73664 6.14312 0.999146 7.99963 0.999146C9.85615 0.999146 11.6366 1.73664 12.9494 3.0494C14.2621 4.36215 14.9996 6.14263 14.9996 7.99915Z" fill="#487CFB"/>
</g>
</g>
<defs>
<clipPath id="clip0_271_2624">
<rect width="16" height="16" fill="white"/>
</clipPath>
<clipPath id="clip1_271_2624">
<rect width="16" height="16" fill="white"/>
</clipPath>
</defs>
</svg>
