<svg width="49" height="48" viewBox="0 0 49 48" fill="none" xmlns="http://www.w3.org/2000/svg">
<g clip-path="url(#clip0_1700_13915)">
<rect width="48" height="48" transform="translate(0.600037 0.000213623)" fill="white" fill-opacity="0.01"/>
<path d="M43.1799 4.53957C43.1592 4.12489 42.9799 3.73406 42.6791 3.44794C42.3784 3.16182 41.9792 3.00231 41.5642 3.00241H36.9565C36.5527 3.00239 36.1636 3.15346 35.8655 3.42592C35.5674 3.69839 35.382 4.07254 35.3457 4.47485L32.7175 34.1096V22.3496H29.4829V17.4954C29.4817 17.2031 29.4015 16.9167 29.2509 16.6663C29.1003 16.4159 28.8848 16.2108 28.6273 16.0729C28.3697 15.935 28.0797 15.8692 27.7879 15.8826C27.4961 15.8961 27.2134 15.9882 26.9696 16.1492L17.6717 22.3496H16.5444V17.4954C16.5432 17.2031 16.463 16.9167 16.3124 16.6663C16.1618 16.4159 15.9463 16.2108 15.6888 16.0729C15.4312 15.935 15.1412 15.8692 14.8494 15.8826C14.5576 15.8961 14.2749 15.9882 14.0311 16.1492L4.32722 22.6214C4.10548 22.769 3.92362 22.9691 3.79778 23.204C3.67195 23.4388 3.60603 23.7012 3.6059 23.9676V43.3844C3.6059 43.8135 3.77629 44.225 4.0796 44.5285C4.3829 44.8319 4.79427 45.0024 5.22321 45.0024H44.0711C44.9654 45.0024 45.6059 44.4329 45.6059 43.5397C45.6059 43.4005 43.1799 4.53957 43.1799 4.53957ZM11.6925 25.5857V30.4399H8.45783V25.5857H11.6925ZM19.779 25.5857V30.4399H16.5444V25.5857H19.779ZM27.8656 25.5857V30.4399H24.631V25.5857H27.8656ZM11.6925 33.676V38.5302H8.45783V33.676H11.6925ZM19.779 33.676V38.5302H16.5444V33.676H19.779ZM27.8656 33.676V38.5302H24.631V33.676H27.8656Z" fill="#CCD3E7"/>
</g>
<defs>
<clipPath id="clip0_1700_13915">
<rect width="48" height="48" fill="white" transform="translate(0.600037 0.000213623)"/>
</clipPath>
</defs>
</svg>
