<svg width="24" height="24" viewBox="0 0 24 24" fill="none" xmlns="http://www.w3.org/2000/svg">
<path d="M12 2.00049V3.00049M3 12.0005H2M5.5 5.50049L4.8999 4.90039M18.5 5.50049L19.1002 4.90039M22 12.0005H21M10 13.5005H14M12 13.5005V18.5005M15.5 16.8744C17.0141 15.7853 18 14.008 18 12.0005C18 8.68678 15.3137 6.00049 12 6.00049C8.68629 6.00049 6 8.68678 6 12.0005C6 14.008 6.98593 15.7853 8.5 16.8744V18.8005C8.5 19.9206 8.5 20.4806 8.71799 20.9085C8.90973 21.2848 9.21569 21.5908 9.59202 21.7825C10.0198 22.0005 10.5799 22.0005 11.7 22.0005H12.3C13.4201 22.0005 13.9802 22.0005 14.408 21.7825C14.7843 21.5908 15.0903 21.2848 15.282 20.9085C15.5 20.4806 15.5 19.9206 15.5 18.8005V16.8744Z" stroke="#487CFB" stroke-width="2" stroke-linecap="round" stroke-linejoin="round"/>
</svg>
