<svg width="16" height="17" viewBox="0 0 16 17" fill="none" xmlns="http://www.w3.org/2000/svg">
<path fill-rule="evenodd" clip-rule="evenodd" d="M2.14645 3.85355C2.05268 3.75979 2 3.63261 2 3.5C2 3.36739 2.05268 3.24021 2.14645 3.14645C2.24021 3.05268 2.36739 3 2.5 3H13.5C13.6326 3 13.7598 3.05268 13.8536 3.14645C13.9473 3.24021 14 3.36739 14 3.5C14 3.63261 13.9473 3.75979 13.8536 3.85355C13.7598 3.94732 13.6326 4 13.5 4H2.5C2.36739 4 2.24021 3.94732 2.14645 3.85355ZM4.14645 1.85355C4.05268 1.75979 4 1.63261 4 1.5C4 1.36739 4.05268 1.24021 4.14645 1.14645C4.24021 1.05268 4.36739 1 4.5 1H11.5C11.6326 1 11.7598 1.05268 11.8536 1.14645C11.9473 1.24021 12 1.36739 12 1.5C12 1.63261 11.9473 1.75979 11.8536 1.85355C11.7598 1.94732 11.6326 2 11.5 2H4.5C4.36739 2 4.24021 1.94732 4.14645 1.85355ZM0.43934 14.5607C0.720644 14.842 1.10218 15 1.5 15H14.5C14.8978 15 15.2794 14.842 15.5607 14.5607C15.842 14.2794 16 13.8978 16 13.5V6.5C16 6.10218 15.842 5.72064 15.5607 5.43934C15.2794 5.15804 14.8978 5 14.5 5H1.5C1.10218 5 0.720644 5.15804 0.43934 5.43934C0.158035 5.72064 0 6.10218 0 6.5V13.5C0 13.8978 0.158035 14.2794 0.43934 14.5607ZM6.765 7.076C6.68931 7.0287 6.60235 7.00251 6.51312 7.00017C6.4239 6.99783 6.33568 7.01941 6.25762 7.06268C6.17955 7.10595 6.11449 7.16932 6.06919 7.24622C6.02389 7.32312 6 7.41075 6 7.5V12.5C6 12.5893 6.02389 12.6769 6.06919 12.7538C6.11449 12.8307 6.17955 12.8941 6.25762 12.9373C6.33568 12.9806 6.4239 13.0022 6.51312 12.9998C6.60235 12.9975 6.68931 12.9713 6.765 12.924L10.765 10.424C10.8369 10.3791 10.8962 10.3166 10.9373 10.2424C10.9784 10.1682 11 10.0848 11 10C11 9.9152 10.9784 9.83179 10.9373 9.75762C10.8962 9.68344 10.8369 9.62095 10.765 9.576L6.765 7.076Z" fill="#A6B1D2"/>
</svg>
