<svg width="16" height="17" viewBox="0 0 16 17" fill="none" xmlns="http://www.w3.org/2000/svg">
<g clip-path="url(#clip0_1767_2645)">
<path fill-rule="evenodd" clip-rule="evenodd" d="M13.6569 14.1569C12.1566 15.6571 10.1217 16.5 8 16.5C5.87827 16.5 3.84344 15.6571 2.34315 14.1569C0.842855 12.6566 0 10.6217 0 8.5C0 6.37827 0.842855 4.34344 2.34315 2.84315C3.84344 1.34285 5.87827 0.5 8 0.5C10.1217 0.5 12.1566 1.34285 13.6569 2.84315C15.1571 4.34344 16 6.37827 16 8.5C16 10.6217 15.1571 12.6566 13.6569 14.1569ZM4.66454 10.0171C4.53646 9.98273 4.39998 10.0007 4.28514 10.067C4.17031 10.1333 4.08651 10.2425 4.05219 10.3706C4.01787 10.4987 4.03584 10.6352 4.10214 10.75C4.49702 11.4344 5.0652 12.0026 5.74949 12.3976C6.43378 12.7926 7.21004 13.0004 8.00014 13C8.79025 13.0004 9.56651 12.7926 10.2508 12.3976C10.9351 12.0026 11.5033 11.4344 11.8981 10.75C11.9315 10.6931 11.9533 10.6302 11.9622 10.5649C11.9711 10.4995 11.967 10.4331 11.9502 10.3693C11.9333 10.3056 11.904 10.2458 11.864 10.1934C11.8239 10.141 11.7739 10.0971 11.7168 10.0641C11.6597 10.0311 11.5966 10.0098 11.5312 10.0013C11.4659 9.9928 11.3994 9.99732 11.3358 10.0146C11.2722 10.0319 11.2126 10.0616 11.1605 10.102C11.1083 10.1424 11.0647 10.1927 11.0321 10.25C10.725 10.7823 10.2831 11.2244 9.75081 11.5316C9.21854 11.8388 8.61472 12.0004 8.00014 12C7.38557 12.0004 6.78175 11.8388 6.24947 11.5316C5.71719 11.2244 5.27525 10.7823 4.96814 10.25C4.90184 10.1352 4.79263 10.0514 4.66454 10.0171ZM6.00014 8.5C6.55214 8.5 7.00014 7.828 7.00014 7C7.00014 6.172 6.55214 5.5 6.00014 5.5C5.44814 5.5 5.00014 6.172 5.00014 7C5.00014 7.828 5.44814 8.5 6.00014 8.5ZM10.0001 8.5C10.5521 8.5 11.0001 7.828 11.0001 7C11.0001 6.172 10.5521 5.5 10.0001 5.5C9.44814 5.5 9.00014 6.172 9.00014 7C9.00014 7.828 9.44814 8.5 10.0001 8.5Z" fill="#A6B1D2"/>
</g>
<defs>
<clipPath id="clip0_1767_2645">
<rect width="16" height="16" fill="white" transform="translate(0 0.5)"/>
</clipPath>
</defs>
</svg>
