<svg width="24" height="24" viewBox="0 0 24 24" fill="none" xmlns="http://www.w3.org/2000/svg">
<g clip-path="url(#clip0_147_27474)">
<rect width="24" height="24" fill="white" fill-opacity="0.01"/>
<path d="M0.00598145 4.5011C0.00598145 3.70545 0.322052 2.94239 0.884661 2.37978C1.44727 1.81717 2.21033 1.5011 3.00598 1.5011H21.006C21.8016 1.5011 22.5647 1.81717 23.1273 2.37978C23.6899 2.94239 24.006 3.70545 24.006 4.5011V19.5011C24.006 20.2967 23.6899 21.0598 23.1273 21.6224C22.5647 22.185 21.8016 22.5011 21.006 22.5011H3.00598C2.21033 22.5011 1.44727 22.185 0.884661 21.6224C0.322052 21.0598 0.00598145 20.2967 0.00598145 19.5011V4.5011ZM1.50598 18.0011V19.5011C1.50598 19.8989 1.66402 20.2805 1.94532 20.5618C2.22663 20.8431 2.60816 21.0011 3.00598 21.0011H21.006C21.4038 21.0011 21.7853 20.8431 22.0666 20.5618C22.3479 20.2805 22.506 19.8989 22.506 19.5011V14.2511L16.8405 11.3306C16.6998 11.2601 16.5406 11.2357 16.3852 11.2607C16.2299 11.2858 16.0864 11.359 15.975 11.4701L10.41 17.0351L6.41998 14.3771C6.27592 14.2812 6.10312 14.238 5.93089 14.255C5.75865 14.2719 5.59758 14.3479 5.47498 14.4701L1.50598 18.0011ZM9.00598 8.2511C9.00598 7.65436 8.76893 7.08207 8.34697 6.66011C7.92501 6.23815 7.35272 6.0011 6.75598 6.0011C6.15924 6.0011 5.58695 6.23815 5.16499 6.66011C4.74303 7.08207 4.50598 7.65436 4.50598 8.2511C4.50598 8.84784 4.74303 9.42013 5.16499 9.84209C5.58695 10.264 6.15924 10.5011 6.75598 10.5011C7.35272 10.5011 7.92501 10.264 8.34697 9.84209C8.76893 9.42013 9.00598 8.84784 9.00598 8.2511Z" fill="#CCD3E7"/>
</g>
<defs>
<clipPath id="clip0_147_27474">
<rect width="24" height="24" fill="white"/>
</clipPath>
</defs>
</svg>
