<svg width="16" height="16" viewBox="0 0 16 16" fill="none" xmlns="http://www.w3.org/2000/svg">
<g clip-path="url(#clip0_265_6798)">
<rect width="16" height="16" fill="white" fill-opacity="0.01"/>
<g clip-path="url(#clip1_265_6798)">
<path d="M6.99951 2.49915C6.99951 2.36654 7.05219 2.23936 7.14596 2.14559C7.23973 2.05182 7.3669 1.99915 7.49951 1.99915H14.4995C14.6321 1.99915 14.7593 2.05182 14.8531 2.14559C14.9468 2.23936 14.9995 2.36654 14.9995 2.49915V3.49915C14.9995 3.63175 14.9468 3.75893 14.8531 3.8527C14.7593 3.94647 14.6321 3.99915 14.4995 3.99915H7.49951C7.3669 3.99915 7.23973 3.94647 7.14596 3.8527C7.05219 3.75893 6.99951 3.63175 6.99951 3.49915V2.49915ZM1.99951 0.999146C1.46908 0.999146 0.960371 1.20986 0.585298 1.58493C0.210225 1.96 -0.000488281 2.46871 -0.000488281 2.99915V4.99915C-0.000488281 5.52958 0.210225 6.03829 0.585298 6.41336C0.960371 6.78843 1.46908 6.99915 1.99951 6.99915H3.99951C4.52994 6.99915 5.03865 6.78843 5.41373 6.41336C5.7888 6.03829 5.99951 5.52958 5.99951 4.99915V2.99915C5.99951 2.46871 5.7888 1.96 5.41373 1.58493C5.03865 1.20986 4.52994 0.999146 3.99951 0.999146H1.99951ZM1.99951 8.99915C1.46908 8.99915 0.960371 9.20986 0.585298 9.58493C0.210225 9.96 -0.000488281 10.4687 -0.000488281 10.9991V12.9991C-0.000488281 13.5296 0.210225 14.0383 0.585298 14.4134C0.960371 14.7884 1.46908 14.9991 1.99951 14.9991H3.99951C4.52994 14.9991 5.03865 14.7884 5.41373 14.4134C5.7888 14.0383 5.99951 13.5296 5.99951 12.9991V10.9991C5.99951 10.4687 5.7888 9.96 5.41373 9.58493C5.03865 9.20986 4.52994 8.99915 3.99951 8.99915H1.99951ZM2.85351 5.35315C2.80707 5.39971 2.75189 5.43665 2.69115 5.46186C2.6304 5.48706 2.56528 5.50004 2.49951 5.50004C2.43374 5.50004 2.36862 5.48706 2.30788 5.46186C2.24713 5.43665 2.19196 5.39971 2.14551 5.35315L1.14551 4.35315C1.09902 4.30666 1.06215 4.25147 1.03699 4.19073C1.01183 4.12999 0.99888 4.06489 0.99888 3.99915C0.99888 3.9334 1.01183 3.8683 1.03699 3.80756C1.06215 3.74682 1.09902 3.69163 1.14551 3.64515C1.192 3.59866 1.24719 3.56178 1.30793 3.53662C1.36867 3.51146 1.43377 3.49851 1.49951 3.49851C1.56526 3.49851 1.63036 3.51146 1.6911 3.53662C1.75183 3.56178 1.80702 3.59866 1.85351 3.64515L2.49951 4.29215L4.14551 2.64515C4.192 2.59866 4.24719 2.56178 4.30793 2.53662C4.36867 2.51146 4.43377 2.49851 4.49951 2.49851C4.56526 2.49851 4.63036 2.51146 4.6911 2.53662C4.75183 2.56178 4.80702 2.59866 4.85351 2.64515C4.9 2.69163 4.93688 2.74682 4.96204 2.80756C4.98719 2.8683 5.00014 2.9334 5.00014 2.99915C5.00014 3.06489 4.98719 3.12999 4.96204 3.19073C4.93688 3.25147 4.9 3.30666 4.85351 3.35315L2.85351 5.35315ZM2.85351 13.3531C2.80707 13.3997 2.75189 13.4367 2.69115 13.4619C2.6304 13.4871 2.56528 13.5 2.49951 13.5C2.43374 13.5 2.36862 13.4871 2.30788 13.4619C2.24713 13.4367 2.19196 13.3997 2.14551 13.3531L1.14551 12.3531C1.05163 12.2593 0.99888 12.1319 0.99888 11.9991C0.99888 11.8664 1.05163 11.739 1.14551 11.6451C1.2394 11.5513 1.36674 11.4985 1.49951 11.4985C1.63229 11.4985 1.75963 11.5513 1.85351 11.6451L2.49951 12.2921L4.14551 10.6451C4.2394 10.5513 4.36674 10.4985 4.49951 10.4985C4.63229 10.4985 4.75962 10.5513 4.85351 10.6451C4.9474 10.739 5.00014 10.8664 5.00014 10.9991C5.00014 11.1319 4.9474 11.2593 4.85351 11.3531L2.85351 13.3531ZM6.99951 10.4991C6.99951 10.3665 7.05219 10.2394 7.14596 10.1456C7.23973 10.0518 7.3669 9.99915 7.49951 9.99915H14.4995C14.6321 9.99915 14.7593 10.0518 14.8531 10.1456C14.9468 10.2394 14.9995 10.3665 14.9995 10.4991V11.4991C14.9995 11.6318 14.9468 11.7589 14.8531 11.8527C14.7593 11.9465 14.6321 11.9991 14.4995 11.9991H7.49951C7.3669 11.9991 7.23973 11.9465 7.14596 11.8527C7.05219 11.7589 6.99951 11.6318 6.99951 11.4991V10.4991ZM6.99951 5.49915C6.99951 5.36654 7.05219 5.23936 7.14596 5.14559C7.23973 5.05182 7.3669 4.99915 7.49951 4.99915H12.4995C12.6321 4.99915 12.7593 5.05182 12.8531 5.14559C12.9468 5.23936 12.9995 5.36654 12.9995 5.49915C12.9995 5.63175 12.9468 5.75893 12.8531 5.8527C12.7593 5.94647 12.6321 5.99915 12.4995 5.99915H7.49951C7.3669 5.99915 7.23973 5.94647 7.14596 5.8527C7.05219 5.75893 6.99951 5.63175 6.99951 5.49915ZM6.99951 13.4991C6.99951 13.3665 7.05219 13.2394 7.14596 13.1456C7.23973 13.0518 7.3669 12.9991 7.49951 12.9991H12.4995C12.6321 12.9991 12.7593 13.0518 12.8531 13.1456C12.9468 13.2394 12.9995 13.3665 12.9995 13.4991C12.9995 13.6318 12.9468 13.7589 12.8531 13.8527C12.7593 13.9465 12.6321 13.9991 12.4995 13.9991H7.49951C7.3669 13.9991 7.23973 13.9465 7.14596 13.8527C7.05219 13.7589 6.99951 13.6318 6.99951 13.4991Z" fill="#487CFB"/>
</g>
</g>
<defs>
<clipPath id="clip0_265_6798">
<rect width="16" height="16" fill="white"/>
</clipPath>
<clipPath id="clip1_265_6798">
<rect width="16" height="16" fill="white"/>
</clipPath>
</defs>
</svg>
