<svg width="24" height="24" viewBox="0 0 24 24" fill="none" xmlns="http://www.w3.org/2000/svg">
<g clip-path="url(#clip0_1791_49543)">
<path d="M12 14.0005C8.68629 14.0005 6 11.3142 6 8.00049V2.44493C6 2.03109 6 1.82416 6.06031 1.65847C6.16141 1.3807 6.38021 1.16189 6.65798 1.0608C6.82367 1.00049 7.0306 1.00049 7.44444 1.00049H16.5556C16.9694 1.00049 17.1763 1.00049 17.342 1.0608C17.6198 1.16189 17.8386 1.3807 17.9397 1.65847C18 1.82416 18 2.03109 18 2.44493V8.00049C18 11.3142 15.3137 14.0005 12 14.0005ZM12 14.0005V17.0005M18 3.00049H20.5C20.9659 3.00049 21.1989 3.00049 21.3827 3.07661C21.6277 3.1781 21.8224 3.37278 21.9239 3.6178C22 3.80158 22 4.03455 22 4.50049V5.00049C22 5.93046 22 6.39545 21.8978 6.77695C21.6204 7.81222 20.8117 8.62086 19.7765 8.89827C19.395 9.00049 18.93 9.00049 18 9.00049M6 3.00049H3.5C3.03406 3.00049 2.80109 3.00049 2.61732 3.07661C2.37229 3.1781 2.17761 3.37278 2.07612 3.6178C2 3.80158 2 4.03455 2 4.50049V5.00049C2 5.93046 2 6.39545 2.10222 6.77695C2.37962 7.81222 3.18827 8.62086 4.22354 8.89827C4.60504 9.00049 5.07003 9.00049 6 9.00049M7.44444 21.0005H16.5556C16.801 21.0005 17 20.8015 17 20.556C17 18.5924 15.4081 17.0005 13.4444 17.0005H10.5556C8.59188 17.0005 7 18.5924 7 20.556C7 20.8015 7.19898 21.0005 7.44444 21.0005Z" stroke="#487CFB" stroke-width="2" stroke-linecap="round" stroke-linejoin="round"/>
</g>
<defs>
<clipPath id="clip0_1791_49543">
<rect width="24" height="24" fill="white" transform="translate(0 0.000488281)"/>
</clipPath>
</defs>
</svg>
