<svg width="16" height="17" viewBox="0 0 16 17" fill="none" xmlns="http://www.w3.org/2000/svg">
<g clip-path="url(#clip0_1767_2652)">
<path d="M8.277 0.584077C8.19494 0.52947 8.09857 0.500336 8 0.500336C7.90143 0.500336 7.80506 0.52947 7.723 0.584077L0.223 5.58408C0.133747 5.64359 0.0660011 5.73023 0.0297692 5.8312C-0.00646277 5.93218 -0.00925954 6.04212 0.021792 6.14481C0.0528435 6.24749 0.116097 6.33746 0.202209 6.40144C0.28832 6.46541 0.392725 6.49999 0.5 6.50008H2.375V13.5001H1.5C1.36739 13.5001 1.24021 13.5528 1.14645 13.6465C1.05268 13.7403 1 13.8675 1 14.0001C1 14.1327 1.05268 14.2599 1.14645 14.3536C1.24021 14.4474 1.36739 14.5001 1.5 14.5001H14.5C14.6326 14.5001 14.7598 14.4474 14.8536 14.3536C14.9473 14.2599 15 14.1327 15 14.0001C15 13.8675 14.9473 13.7403 14.8536 13.6465C14.7598 13.5528 14.6326 13.5001 14.5 13.5001H13.625V6.50008H15.5C15.6073 6.49999 15.7117 6.46541 15.7978 6.40144C15.8839 6.33746 15.9472 6.24749 15.9782 6.14481C16.0093 6.04212 16.0065 5.93218 15.9702 5.8312C15.934 5.73023 15.8663 5.64359 15.777 5.58408L8.277 0.584077ZM11.25 6.50008V13.5001H10V6.50008H11.25ZM6 6.50008V13.5001H4.75V6.50008H6ZM8 4.50008C7.73478 4.50008 7.48043 4.39472 7.29289 4.20718C7.10536 4.01965 7 3.76529 7 3.50008C7 3.23486 7.10536 2.98051 7.29289 2.79297C7.48043 2.60543 7.73478 2.50008 8 2.50008C8.26522 2.50008 8.51957 2.60543 8.70711 2.79297C8.89464 2.98051 9 3.23486 9 3.50008C9 3.76529 8.89464 4.01965 8.70711 4.20718C8.51957 4.39472 8.26522 4.50008 8 4.50008ZM0.5 14.5001C0.367392 14.5001 0.240215 14.5528 0.146447 14.6465C0.0526784 14.7403 0 15.0003 0 15.5003C0 16.0003 0.0526784 16.2599 0.146447 16.3536C0.240215 16.4474 0.367392 16.5001 0.5 16.5001H15.5C15.6326 16.5001 15.7598 16.4474 15.8536 16.3536C15.9473 16.2599 16 16.0003 16 15.5003C16 15.0003 15.9473 14.7403 15.8536 14.6465C15.7598 14.5528 15.6326 14.5001 15.5 14.5001H0.5Z" fill="#A6B1D2"/>
</g>
<defs>
<clipPath id="clip0_1767_2652">
<rect width="16" height="16" fill="white" transform="translate(0 0.5)"/>
</clipPath>
</defs>
</svg>
