<svg width="73" height="72" viewBox="0 0 73 72" fill="none" xmlns="http://www.w3.org/2000/svg">
<path d="M0.400024 36C0.400024 16.1178 16.5178 0 36.4 0C56.2823 0 72.4 16.1178 72.4 36C72.4 55.8823 56.2823 72 36.4 72C16.5178 72 0.400024 55.8823 0.400024 36Z" fill="#F5F7FC"/>
<g clip-path="url(#clip0_1339_14514)">
<rect width="32" height="32" transform="translate(20.4 20)" fill="white" fill-opacity="0.01"/>
<path d="M20.4039 35.5215C20.4039 26.6035 27.3899 20.0015 36.4039 20.0015C45.4179 20.0015 52.4039 26.6035 52.4039 35.5215C52.4039 44.4395 45.4179 51.0415 36.4039 51.0415C34.7839 51.0415 33.2319 50.8275 31.7719 50.4275C31.4888 50.3487 31.1872 50.3699 30.9179 50.4875L27.7419 51.8915C27.5501 51.9761 27.3405 52.0123 27.1314 51.9969C26.9223 51.9815 26.7202 51.915 26.5428 51.8032C26.3655 51.6914 26.2183 51.5378 26.1142 51.3558C26.0101 51.1738 25.9523 50.969 25.9459 50.7595L25.8579 47.9135C25.8519 47.7402 25.8106 47.5701 25.7367 47.4133C25.6628 47.2565 25.5577 47.1164 25.4279 47.0015C22.3159 44.2175 20.4039 40.1855 20.4039 35.5215ZM31.4959 32.6035L26.7959 40.0595C26.3459 40.7755 27.2239 41.5815 27.8979 41.0715L32.9479 37.2395C33.114 37.1133 33.3167 37.0447 33.5253 37.044C33.7338 37.0432 33.937 37.1105 34.1039 37.2355L37.8419 40.0395C38.1072 40.2384 38.4107 40.3801 38.7334 40.4559C39.0562 40.5316 39.3911 40.5397 39.7171 40.4796C40.0431 40.4194 40.3532 40.2924 40.6276 40.1065C40.9021 39.9206 41.1351 39.6799 41.3119 39.3995L46.0119 31.9435C46.4639 31.2275 45.5839 30.4215 44.9099 30.9315L39.8599 34.7635C39.6938 34.8896 39.4912 34.9582 39.2826 34.959C39.074 34.9597 38.8709 34.8925 38.7039 34.7675L34.9659 31.9615C34.7007 31.7626 34.3972 31.6208 34.0744 31.545C33.7517 31.4693 33.4167 31.4612 33.0907 31.5214C32.7647 31.5815 32.4547 31.7085 32.1802 31.8944C31.9057 32.0803 31.6727 32.321 31.4959 32.6015V32.6035Z" fill="#487CFB"/>
</g>
<defs>
<clipPath id="clip0_1339_14514">
<rect width="32" height="32" fill="white" transform="translate(20.4 20)"/>
</clipPath>
</defs>
</svg>
