<svg width="16" height="17" viewBox="0 0 16 17" fill="none" xmlns="http://www.w3.org/2000/svg">
<g clip-path="url(#clip0_1767_2657)">
<path d="M6.5 0.5C6.10218 0.5 5.72064 0.658035 5.43934 0.93934C5.15804 1.22064 5 1.60218 5 2V3C5 3.39782 5.15804 3.77936 5.43934 4.06066C5.72064 4.34196 6.10218 4.5 6.5 4.5H9.5C9.89782 4.5 10.2794 4.34196 10.5607 4.06066C10.842 3.77936 11 3.39782 11 3V2C11 1.60218 10.842 1.22064 10.5607 0.93934C10.2794 0.658035 9.89782 0.5 9.5 0.5H6.5Z" fill="#A6B1D2"/>
<path fill-rule="evenodd" clip-rule="evenodd" d="M3 2C1.89543 2 1 2.89543 1 4V14.5C1 15.6046 1.89543 16.5 3 16.5H13C14.1046 16.5 15 15.6046 15 14.5V4C15 2.89543 14.1046 2 13 2H12.5C11.9477 2 11.5 2.44772 11.5 3C11.5 4.10457 10.6046 5 9.5 5H6.5C5.39543 5 4.5 4.10457 4.5 3C4.5 2.44772 4.05228 2 3.5 2H3ZM4.29289 10.7929C4.10536 10.9804 4 11.2348 4 11.5V12.5C4 12.7652 4.10536 13.0196 4.29289 13.2071C4.48043 13.3946 4.73478 13.5 5 13.5C5.26522 13.5 5.51957 13.3946 5.70711 13.2071C5.89464 13.0196 6 12.7652 6 12.5V11.5C6 11.2348 5.89464 10.9804 5.70711 10.7929C5.51957 10.6054 5.26522 10.5 5 10.5C4.73478 10.5 4.48043 10.6054 4.29289 10.7929ZM10.2929 6.79289C10.1054 6.98043 10 7.23478 10 7.5V12.5C10 12.7652 10.1054 13.0196 10.2929 13.2071C10.4804 13.3946 10.7348 13.5 11 13.5C11.2652 13.5 11.5196 13.3946 11.7071 13.2071C11.8946 13.0196 12 12.7652 12 12.5V7.5C12 7.23478 11.8946 6.98043 11.7071 6.79289C11.5196 6.60536 11.2652 6.5 11 6.5C10.7348 6.5 10.4804 6.60536 10.2929 6.79289ZM7.29289 8.79289C7.10536 8.98043 7 9.23478 7 9.5V12.5C7 12.7652 7.10536 13.0196 7.29289 13.2071C7.48043 13.3946 7.73478 13.5 8 13.5C8.26522 13.5 8.51957 13.3946 8.70711 13.2071C8.89464 13.0196 9 12.7652 9 12.5V9.5C9 9.23478 8.89464 8.98043 8.70711 8.79289C8.51957 8.60536 8.26522 8.5 8 8.5C7.73478 8.5 7.48043 8.60536 7.29289 8.79289Z" fill="#A6B1D2"/>
</g>
<defs>
<clipPath id="clip0_1767_2657">
<rect width="16" height="16" fill="white" transform="translate(0 0.5)"/>
</clipPath>
</defs>
</svg>
