<svg width="73" height="72" viewBox="0 0 73 72" fill="none" xmlns="http://www.w3.org/2000/svg">
<path d="M0.799988 36C0.799988 16.1178 16.9177 0 36.8 0C56.6822 0 72.8 16.1178 72.8 36C72.8 55.8823 56.6822 72 36.8 72C16.9177 72 0.799988 55.8823 0.799988 36Z" fill="#F5F7FC"/>
<g clip-path="url(#clip0_1339_14513)">
<rect width="32" height="32" transform="translate(20.8 20)" fill="white" fill-opacity="0.01"/>
<path fill-rule="evenodd" clip-rule="evenodd" d="M36.7319 23.0555C30.7779 23.0555 25.5899 26.4635 24.0919 31.3055H22.9919C22.7003 31.3058 22.4123 31.3699 22.1481 31.4932C21.8839 31.6165 21.6498 31.7962 21.4624 32.0195C21.2749 32.2428 21.1385 32.5044 21.0627 32.7859C20.987 33.0675 20.9737 33.3622 21.0239 33.6495L21.5319 36.5695C21.6529 37.2656 22.0158 37.8967 22.5566 38.3515C23.0974 38.8062 23.7813 39.0556 24.4879 39.0555H25.0139C25.6139 40.0815 26.3899 41.0115 27.3039 41.8195L25.8459 46.7735C25.802 46.9226 25.7936 47.08 25.8212 47.233C25.8488 47.386 25.9117 47.5304 26.0049 47.6549C26.098 47.7793 26.219 47.8803 26.358 47.9499C26.4971 48.0194 26.6504 48.0556 26.8059 48.0555H30.8059C31.0122 48.0555 31.2135 47.9917 31.3822 47.8728C31.5508 47.754 31.6786 47.5858 31.7479 47.3915L32.7119 44.6895C33.9819 45.0355 35.3319 45.2235 36.7339 45.2235C38.1479 45.2235 39.5099 45.0335 40.7899 44.6795L41.8759 47.4235C41.9497 47.6099 42.0778 47.7699 42.2436 47.8826C42.4095 47.9953 42.6054 48.0555 42.8059 48.0555H46.8059C46.9619 48.0553 47.1158 48.0186 47.2551 47.9484C47.3944 47.8781 47.5154 47.7763 47.6083 47.6509C47.7012 47.5255 47.7635 47.3802 47.7901 47.2264C47.8168 47.0727 47.8071 46.9148 47.7619 46.7655L46.2399 41.7535C48.4239 39.7915 49.8039 37.1195 49.8039 34.1395C49.8039 33.8495 49.7899 33.5595 49.7639 33.2775C50.2859 33.0575 50.7799 32.7455 51.1739 32.3895C51.8039 33.0015 52.8039 33.0015 52.8039 31.5555C52.8039 32.0015 51.8039 32.0015 51.8819 31.5035C51.9659 31.3429 52.0265 31.1712 52.0619 30.9935C52.1089 30.7618 52.0965 30.5221 52.0259 30.2965C51.9553 30.0709 51.8286 29.8669 51.6579 29.7035C51.4778 29.5178 51.2408 29.3977 50.9846 29.3622C50.7284 29.3267 50.4677 29.3778 50.2439 29.5075C50.0381 29.6212 49.8626 29.7826 49.7321 29.9782C49.6016 30.1738 49.5199 30.3978 49.4939 30.6315C49.4459 31.1175 49.6579 31.5915 50.1339 31.9395C49.9687 32.0537 49.7956 32.1559 49.6159 32.2455C48.5479 26.9175 43.0479 23.0555 36.7319 23.0555ZM51.0779 30.8075C51.0423 30.9595 50.9755 31.1025 50.8819 31.2275C50.852 31.2119 50.8226 31.1952 50.7939 31.1775C50.5019 30.9975 50.4799 30.8275 50.4899 30.7315C50.4997 30.6597 50.526 30.5912 50.5665 30.5312C50.6071 30.4712 50.6609 30.4213 50.7239 30.3855C50.8219 30.3315 50.8839 30.3435 50.9499 30.4095C51.0055 30.4578 51.0468 30.5205 51.0694 30.5906C51.0919 30.6608 51.0949 30.7358 51.0779 30.8075ZM33.0799 29.5075C34.2676 29.1691 35.4969 28.9988 36.7319 29.0015C38.0639 29.0015 39.3379 29.1955 40.5179 29.5475C40.6446 29.5882 40.7781 29.6033 40.9107 29.5917C41.0433 29.5802 41.1723 29.5423 41.29 29.4803C41.4078 29.4182 41.512 29.3333 41.5965 29.2305C41.681 29.1277 41.7441 29.0091 41.7822 28.8815C41.8203 28.754 41.8325 28.6202 41.8182 28.4879C41.8039 28.3555 41.7633 28.2274 41.6988 28.111C41.6343 27.9946 41.5472 27.8922 41.4427 27.8099C41.3381 27.7275 41.2182 27.6669 41.0899 27.6315C39.6755 27.2111 38.2074 26.9989 36.7319 27.0015C35.2639 27.0015 33.8499 27.2075 32.5279 27.5855C32.2727 27.6587 32.0571 27.8302 31.9285 28.0624C31.7998 28.2946 31.7687 28.5683 31.8419 28.8235C31.9151 29.0786 32.0866 29.2942 32.3188 29.4229C32.551 29.5515 32.8247 29.5827 33.0799 29.5095V29.5075ZM30.8039 32.5015C30.8039 32.8993 30.6459 33.2808 30.3645 33.5621C30.0832 33.8434 29.7017 34.0015 29.3039 34.0015C28.9061 34.0015 28.5245 33.8434 28.2432 33.5621C27.9619 33.2808 27.8039 32.8993 27.8039 32.5015C27.8039 32.1037 27.9619 31.7221 28.2432 31.4408C28.5245 31.1595 28.9061 31.0015 29.3039 31.0015C29.7017 31.0015 30.0832 31.1595 30.3645 31.4408C30.6459 31.7221 30.8039 32.1037 30.8039 32.5015Z" fill="#487CFB"/>
</g>
<defs>
<clipPath id="clip0_1339_14513">
<rect width="32" height="32" fill="white" transform="translate(20.8 20)"/>
</clipPath>
</defs>
</svg>
