<svg width="17" height="16" viewBox="0 0 17 16" fill="none" xmlns="http://www.w3.org/2000/svg">
<path fill-rule="evenodd" clip-rule="evenodd" d="M5.14592 1.64604C5.19236 1.59948 5.24754 1.56253 5.30828 1.53733C5.36903 1.51212 5.43415 1.49915 5.49992 1.49915C5.56568 1.49915 5.63081 1.51212 5.69155 1.53733C5.7523 1.56253 5.80747 1.59948 5.85392 1.64604L11.8539 7.64604C11.9005 7.69248 11.9374 7.74766 11.9626 7.80841C11.9878 7.86915 12.0008 7.93427 12.0008 8.00004C12.0008 8.06581 11.9878 8.13093 11.9626 8.19167C11.9374 8.25242 11.9005 8.30759 11.8539 8.35404L5.85392 14.354C5.76003 14.4479 5.63269 14.5007 5.49992 14.5007C5.36714 14.5007 5.2398 14.4479 5.14592 14.354C5.05203 14.2602 4.99929 14.1328 4.99929 14C4.99929 13.8673 5.05203 13.7399 5.14592 13.646L10.7929 8.00004L5.14592 2.35404C5.09935 2.30759 5.06241 2.25242 5.0372 2.19167C5.012 2.13093 4.99902 2.06581 4.99902 2.00004C4.99902 1.93427 5.012 1.86915 5.0372 1.80841C5.06241 1.74766 5.09935 1.69249 5.14592 1.64604Z" fill="#141619"/>
</svg>
