<svg width="16" height="15" viewBox="0 0 16 15" fill="none" xmlns="http://www.w3.org/2000/svg">
<path fill-rule="evenodd" clip-rule="evenodd" d="M0 7.49998C0 7.23477 0.105357 6.98041 0.292893 6.79288C0.48043 6.60534 0.734784 6.49998 1 6.49998H12.586L8.292 2.20798C8.10423 2.02021 7.99874 1.76553 7.99874 1.49998C7.99874 1.23443 8.10423 0.979755 8.292 0.791982C8.47977 0.604208 8.73445 0.498718 9 0.498718C9.26555 0.498718 9.52023 0.604208 9.708 0.791982L15.708 6.79198C15.8011 6.88487 15.875 6.99522 15.9254 7.11671C15.9758 7.2382 16.0018 7.36845 16.0018 7.49998C16.0018 7.63152 15.9758 7.76176 15.9254 7.88325C15.875 8.00474 15.8011 8.11509 15.708 8.20798L9.708 14.208C9.52023 14.3958 9.26555 14.5012 9 14.5012C8.73445 14.5012 8.47977 14.3958 8.292 14.208C8.10423 14.0202 7.99874 13.7655 7.99874 13.5C7.99874 13.2344 8.10423 12.9798 8.292 12.792L12.586 8.49998H1C0.734784 8.49998 0.48043 8.39463 0.292893 8.20709C0.105357 8.01955 0 7.7652 0 7.49998Z" fill="#487CFB"/>
</svg>
