<svg width="37" height="37" viewBox="0 0 37 37" fill="none" xmlns="http://www.w3.org/2000/svg">
    <g clip-path="url(#clip0_426_2009)">
        <path fill-rule="evenodd" clip-rule="evenodd"
              d="M19.58 25.0272C25.7247 23.5107 29.75 18.1332 29.75 11.75C29.75 8.76631 28.5647 5.90483 26.455 3.79505C24.3452 1.68526 21.4837 0.5 18.5 0.5C15.5163 0.5 12.6548 1.68526 10.545 3.79505C8.43526 5.90483 7.25 8.76631 7.25 11.75C7.25 18.1332 11.2753 23.5107 17.42 25.0272L16.871 26.123C16.8379 26.1892 16.8182 26.2612 16.8129 26.3351C16.8077 26.4089 16.817 26.483 16.8404 26.5532C16.8877 26.695 16.9893 26.8122 17.123 26.879C17.2567 26.9458 17.4114 26.9568 17.5532 26.9096C17.695 26.8623 17.8122 26.7607 17.879 26.627L17.969 26.447C17.9892 26.8295 18.023 27.1557 18.0838 27.4595C18.2368 28.2335 18.5517 28.859 19.0917 29.939L19.121 30.002C19.598 30.9515 19.5305 31.9145 19.2335 32.8055C18.9298 33.71 18.41 34.4952 18.032 35.0622C17.9491 35.1864 17.9188 35.3384 17.9479 35.4848C17.977 35.6312 18.0631 35.7601 18.1873 35.843C18.3114 35.9259 18.4634 35.9562 18.6098 35.9271C18.7562 35.898 18.8851 35.8119 18.968 35.6877L18.977 35.672C19.3505 35.114 19.9468 34.2185 20.3 33.1632C20.66 32.0855 20.777 30.7985 20.129 29.498C19.5485 28.3392 19.3078 27.851 19.1863 27.239C19.1452 27.0242 19.1174 26.807 19.103 26.5887L19.121 26.627C19.1878 26.7607 19.305 26.8623 19.4468 26.9096C19.5886 26.9568 19.7433 26.9458 19.877 26.879C20.0107 26.8122 20.1123 26.695 20.1596 26.5532C20.2068 26.4114 20.1958 26.2567 20.129 26.123L19.58 25.0272V25.0272ZM10.292 8.051C10.9267 6.64525 11.9118 5.42601 13.1528 4.51004C14.3938 3.59407 15.8491 3.01206 17.3795 2.81975C17.9915 2.74325 18.5 3.254 18.5 3.875C18.5 4.496 17.9915 4.991 17.3795 5.0945C15.242 5.459 13.4442 6.8495 12.4902 8.73275C12.385 8.9561 12.2199 9.14597 12.0135 9.28138C11.807 9.41679 11.5671 9.49245 11.3203 9.5C10.5418 9.5 9.9725 8.75975 10.292 8.051V8.051Z"
              fill="#487CFB"/>
    </g>
    <defs>
        <clipPath id="clip0_426_2009">
            <rect width="36" height="36" fill="white" transform="translate(0.5 0.5)"/>
        </clipPath>
    </defs>
</svg>
