<svg width="14" height="14" viewBox="0 0 14 14" fill="none" xmlns="http://www.w3.org/2000/svg">
<g clip-path="url(#clip0_386_2689)">
<path d="M3.5 0.4375C3.5 0.321468 3.45391 0.210188 3.37186 0.128141C3.28981 0.0460936 3.17853 0 3.0625 0C2.94647 0 2.83519 0.0460936 2.75314 0.128141C2.67109 0.210188 2.625 0.321468 2.625 0.4375V0.875H1.75C1.28587 0.875 0.840752 1.05937 0.512563 1.38756C0.184375 1.71575 0 2.16087 0 2.625L0 3.5H14V2.625C14 2.16087 13.8156 1.71575 13.4874 1.38756C13.1592 1.05937 12.7141 0.875 12.25 0.875H11.375V0.4375C11.375 0.321468 11.3289 0.210188 11.2469 0.128141C11.1648 0.0460936 11.0535 0 10.9375 0C10.8215 0 10.7102 0.0460936 10.6281 0.128141C10.5461 0.210188 10.5 0.321468 10.5 0.4375V0.875H3.5V0.4375ZM14 12.25V4.375H0V12.25C0 12.7141 0.184375 13.1592 0.512563 13.4874C0.840752 13.8156 1.28587 14 1.75 14H12.25C12.7141 14 13.1592 13.8156 13.4874 13.4874C13.8156 13.1592 14 12.7141 14 12.25ZM7 6.99388C8.456 5.49675 12.0969 8.1165 7 11.4844C1.90313 8.11563 5.544 5.49675 7 6.99388Z" fill="#487CFB"/>
</g>
<defs>
<clipPath id="clip0_386_2689">
<rect width="14" height="14" fill="white"/>
</clipPath>
</defs>
</svg>
