<svg width="24" height="24" viewBox="0 0 24 24" fill="none" xmlns="http://www.w3.org/2000/svg">
<path d="M18.9991 6.09932C18.5014 5.89264 18.1061 5.49678 17.9002 4.99875L17.9004 5.00177L17.1773 3.25601C16.971 2.75807 16.5754 2.36248 16.0774 2.15621C15.5795 1.94995 15.02 1.9499 14.522 2.15609L12.7761 2.87619C12.2783 3.08274 11.7189 3.08316 11.2209 2.87736L9.47694 2.15497C8.97889 1.94867 8.41929 1.94867 7.92125 2.15497C7.4232 2.36128 7.0275 2.75699 6.82121 3.25505L6.09833 5.0003C5.89151 5.49744 5.49589 5.89222 4.99832 6.09796L3.25439 6.82035C3.00765 6.92246 2.78344 7.0722 2.59459 7.261C2.40574 7.4498 2.25594 7.67396 2.15375 7.92068C2.05156 8.1674 1.99898 8.43183 1.99902 8.69888C1.99907 8.96592 2.05173 9.23034 2.154 9.47703L2.87532 11.2235C3.08186 11.7213 3.08228 12.2807 2.87649 12.7788L2.15413 14.5228C1.94825 15.0208 1.94853 15.5801 2.15491 16.0779C2.36128 16.5757 2.75686 16.9712 3.25469 17.1774L4.99987 17.9003C5.49757 18.1069 5.89282 18.5028 6.09874 19.0008L6.82184 20.7466C7.02828 21.2441 7.42375 21.6394 7.92139 21.8455C8.41903 22.0517 8.97815 22.0518 9.47592 21.846L11.2211 21.1241C11.7188 20.9176 12.2782 20.9172 12.7763 21.123L14.5202 21.8453C15.0183 22.0517 15.5779 22.0517 16.0759 21.8453C16.574 21.639 16.9697 21.2433 17.176 20.7453L17.8989 19C18.1055 18.5023 18.5014 18.107 18.9994 17.9011L20.7433 17.1787C20.99 17.0766 21.2143 16.9269 21.4031 16.7381C21.592 16.5493 21.7418 16.3251 21.844 16.0784C21.9461 15.8317 21.9987 15.5672 21.9987 15.3002C21.9986 15.0331 21.946 14.7687 21.8437 14.522L21.1226 12.7786C20.9153 12.2805 20.9156 11.7203 21.1219 11.222L21.8443 9.47805C22.0506 8.97999 22.0506 8.42037 21.8443 7.9223C21.638 7.42424 21.2423 7.02853 20.7443 6.82222L18.9991 6.09932Z" fill="#487CFB" stroke="#487CFB" stroke-width="2" stroke-linecap="round" stroke-linejoin="round"/>
<path d="M8.25 12.3752L10.875 14.6252L16.0673 9.37524" stroke="white" stroke-width="2" stroke-linecap="round" stroke-linejoin="round"/>
</svg>
