<svg width="24" height="24" viewBox="0 0 24 24" fill="none" xmlns="http://www.w3.org/2000/svg">
<path d="M6 21L5.00221 21.0665L5.06445 22H6V21ZM18 21V22H18.9356L18.9978 21.0665L18 21ZM3 5H2V7H3V5ZM21 7H22V5H21V7ZM4.00221 6.06652L5.00221 21.0665L6.99779 20.9335L5.99779 5.93348L4.00221 6.06652ZM6 22H18V20H6V22ZM18.9978 21.0665L19.9978 6.06652L18.0022 5.93348L17.0022 20.9335L18.9978 21.0665ZM19 5H5V7H19V5ZM3 7H5V5H3V7ZM19 7H21V5H19V7ZM12 4C13.3965 4 14.5725 4.95512 14.9055 6.24926L16.8424 5.75074C16.2874 3.59442 14.3312 2 12 2V4ZM9.09445 6.24926C9.42754 4.95512 10.6035 4 12 4V2C9.66883 2 7.71258 3.59442 7.15758 5.75074L9.09445 6.24926Z" fill="black"/>
</svg>
