<svg width="16" height="16" viewBox="0 0 16 16" fill="none" xmlns="http://www.w3.org/2000/svg">
<g clip-path="url(#clip0_834_847)">
<rect width="16" height="16" fill="white" fill-opacity="0.01"/>
<g clip-path="url(#clip1_834_847)">
<path d="M13.9996 -0.000732422H1.99963C1.4692 -0.000732422 0.960493 0.209981 0.58542 0.585054C0.210348 0.960127 -0.000366211 1.46883 -0.000366211 1.99927V13.9993C-0.000366211 14.5297 0.210348 15.0384 0.58542 15.4135C0.960493 15.7886 1.4692 15.9993 1.99963 15.9993H13.9996C14.5301 15.9993 15.0388 15.7886 15.4138 15.4135C15.7889 15.0384 15.9996 14.5297 15.9996 13.9993V1.99927C15.9996 1.46883 15.7889 0.960127 15.4138 0.585054C15.0388 0.209981 14.5301 -0.000732422 13.9996 -0.000732422ZM0.999634 3.85627C0.999634 3.38327 1.44763 2.99927 1.99963 2.99927H13.9996C14.5516 2.99927 14.9996 3.38327 14.9996 3.85627V14.1423C14.9996 14.6153 14.5516 14.9993 13.9996 14.9993H1.99963C1.44763 14.9993 0.999634 14.6153 0.999634 14.1423V3.85627Z" fill="#212529"/>
<path d="M6.49963 6.99927C6.76485 6.99927 7.0192 6.89391 7.20674 6.70637C7.39428 6.51884 7.49963 6.26448 7.49963 5.99927C7.49963 5.73405 7.39428 5.4797 7.20674 5.29216C7.0192 5.10462 6.76485 4.99927 6.49963 4.99927C6.23442 4.99927 5.98006 5.10462 5.79253 5.29216C5.60499 5.4797 5.49963 5.73405 5.49963 5.99927C5.49963 6.26448 5.60499 6.51884 5.79253 6.70637C5.98006 6.89391 6.23442 6.99927 6.49963 6.99927ZM9.49963 6.99927C9.76485 6.99927 10.0192 6.89391 10.2067 6.70637C10.3943 6.51884 10.4996 6.26448 10.4996 5.99927C10.4996 5.73405 10.3943 5.4797 10.2067 5.29216C10.0192 5.10462 9.76485 4.99927 9.49963 4.99927C9.23442 4.99927 8.98006 5.10462 8.79253 5.29216C8.60499 5.4797 8.49963 5.73405 8.49963 5.99927C8.49963 6.26448 8.60499 6.51884 8.79253 6.70637C8.98006 6.89391 9.23442 6.99927 9.49963 6.99927ZM12.4996 6.99927C12.7649 6.99927 13.0192 6.89391 13.2067 6.70637C13.3943 6.51884 13.4996 6.26448 13.4996 5.99927C13.4996 5.73405 13.3943 5.4797 13.2067 5.29216C13.0192 5.10462 12.7649 4.99927 12.4996 4.99927C12.2344 4.99927 11.9801 5.10462 11.7925 5.29216C11.605 5.4797 11.4996 5.73405 11.4996 5.99927C11.4996 6.26448 11.605 6.51884 11.7925 6.70637C11.9801 6.89391 12.2344 6.99927 12.4996 6.99927ZM3.49963 9.99927C3.76485 9.99927 4.0192 9.89391 4.20674 9.70637C4.39428 9.51884 4.49963 9.26448 4.49963 8.99927C4.49963 8.73405 4.39428 8.4797 4.20674 8.29216C4.0192 8.10462 3.76485 7.99927 3.49963 7.99927C3.23442 7.99927 2.98006 8.10462 2.79253 8.29216C2.60499 8.4797 2.49963 8.73405 2.49963 8.99927C2.49963 9.26448 2.60499 9.51884 2.79253 9.70637C2.98006 9.89391 3.23442 9.99927 3.49963 9.99927ZM6.49963 9.99927C6.76485 9.99927 7.0192 9.89391 7.20674 9.70637C7.39428 9.51884 7.49963 9.26448 7.49963 8.99927C7.49963 8.73405 7.39428 8.4797 7.20674 8.29216C7.0192 8.10462 6.76485 7.99927 6.49963 7.99927C6.23442 7.99927 5.98006 8.10462 5.79253 8.29216C5.60499 8.4797 5.49963 8.73405 5.49963 8.99927C5.49963 9.26448 5.60499 9.51884 5.79253 9.70637C5.98006 9.89391 6.23442 9.99927 6.49963 9.99927ZM9.49963 9.99927C9.76485 9.99927 10.0192 9.89391 10.2067 9.70637C10.3943 9.51884 10.4996 9.26448 10.4996 8.99927C10.4996 8.73405 10.3943 8.4797 10.2067 8.29216C10.0192 8.10462 9.76485 7.99927 9.49963 7.99927C9.23442 7.99927 8.98006 8.10462 8.79253 8.29216C8.60499 8.4797 8.49963 8.73405 8.49963 8.99927C8.49963 9.26448 8.60499 9.51884 8.79253 9.70637C8.98006 9.89391 9.23442 9.99927 9.49963 9.99927ZM12.4996 9.99927C12.7649 9.99927 13.0192 9.89391 13.2067 9.70637C13.3943 9.51884 13.4996 9.26448 13.4996 8.99927C13.4996 8.73405 13.3943 8.4797 13.2067 8.29216C13.0192 8.10462 12.7649 7.99927 12.4996 7.99927C12.2344 7.99927 11.9801 8.10462 11.7925 8.29216C11.605 8.4797 11.4996 8.73405 11.4996 8.99927C11.4996 9.26448 11.605 9.51884 11.7925 9.70637C11.9801 9.89391 12.2344 9.99927 12.4996 9.99927ZM3.49963 12.9993C3.76485 12.9993 4.0192 12.8939 4.20674 12.7064C4.39428 12.5188 4.49963 12.2645 4.49963 11.9993C4.49963 11.7341 4.39428 11.4797 4.20674 11.2922C4.0192 11.1046 3.76485 10.9993 3.49963 10.9993C3.23442 10.9993 2.98006 11.1046 2.79253 11.2922C2.60499 11.4797 2.49963 11.7341 2.49963 11.9993C2.49963 12.2645 2.60499 12.5188 2.79253 12.7064C2.98006 12.8939 3.23442 12.9993 3.49963 12.9993ZM6.49963 12.9993C6.76485 12.9993 7.0192 12.8939 7.20674 12.7064C7.39428 12.5188 7.49963 12.2645 7.49963 11.9993C7.49963 11.7341 7.39428 11.4797 7.20674 11.2922C7.0192 11.1046 6.76485 10.9993 6.49963 10.9993C6.23442 10.9993 5.98006 11.1046 5.79253 11.2922C5.60499 11.4797 5.49963 11.7341 5.49963 11.9993C5.49963 12.2645 5.60499 12.5188 5.79253 12.7064C5.98006 12.8939 6.23442 12.9993 6.49963 12.9993ZM9.49963 12.9993C9.76485 12.9993 10.0192 12.8939 10.2067 12.7064C10.3943 12.5188 10.4996 12.2645 10.4996 11.9993C10.4996 11.7341 10.3943 11.4797 10.2067 11.2922C10.0192 11.1046 9.76485 10.9993 9.49963 10.9993C9.23442 10.9993 8.98006 11.1046 8.79253 11.2922C8.60499 11.4797 8.49963 11.7341 8.49963 11.9993C8.49963 12.2645 8.60499 12.5188 8.79253 12.7064C8.98006 12.8939 9.23442 12.9993 9.49963 12.9993Z" fill="#212529"/>
</g>
</g>
<defs>
<clipPath id="clip0_834_847">
<rect width="16" height="16" fill="white"/>
</clipPath>
<clipPath id="clip1_834_847">
<rect width="16" height="16" fill="white"/>
</clipPath>
</defs>
</svg>
