<svg width="32" height="32" viewBox="0 0 32 32" fill="none" xmlns="http://www.w3.org/2000/svg">
<path d="M8 0H18.586C19.1164 0.000113275 19.625 0.210901 20 0.586L27.414 8C27.7891 8.37499 27.9999 8.88361 28 9.414V28C28 29.0609 27.5786 30.0783 26.8284 30.8284C26.0783 31.5786 25.0609 32 24 32H8C6.93913 32 5.92172 31.5786 5.17157 30.8284C4.42143 30.0783 4 29.0609 4 28V4C4 2.93913 4.42143 1.92172 5.17157 1.17157C5.92172 0.421427 6.93913 0 8 0V0ZM19 3V7C19 7.53043 19.2107 8.03914 19.5858 8.41421C19.9609 8.78929 20.4696 9 21 9H25L19 3Z" fill="#487CFB"/>
</svg>
