<svg width="16" height="17" viewBox="0 0 16 17" fill="none" xmlns="http://www.w3.org/2000/svg">
<g clip-path="url(#clip0_504_1054)">
<rect width="16" height="16" transform="translate(0 0.5)" fill="white" fill-opacity="0.01"/>
<path fill-rule="evenodd" clip-rule="evenodd" d="M4.64567 2.14518C4.69212 2.09862 4.74729 2.06168 4.80804 2.03647C4.86878 2.01127 4.93391 1.99829 4.99967 1.99829C5.06544 1.99829 5.13056 2.01127 5.19131 2.03647C5.25205 2.06168 5.30723 2.09862 5.35367 2.14518L11.3537 8.14518C11.4002 8.19163 11.4372 8.24681 11.4624 8.30755C11.4876 8.3683 11.5006 8.43342 11.5006 8.49918C11.5006 8.56495 11.4876 8.63007 11.4624 8.69082C11.4372 8.75156 11.4002 8.80674 11.3537 8.85318L5.35367 14.8532C5.25979 14.9471 5.13245 14.9998 4.99967 14.9998C4.8669 14.9998 4.73956 14.9471 4.64567 14.8532C4.55179 14.7593 4.49904 14.632 4.49904 14.4992C4.49904 14.3664 4.55179 14.2391 4.64567 14.1452L10.2927 8.49918L4.64567 2.85318C4.59911 2.80674 4.56217 2.75156 4.53696 2.69082C4.51175 2.63007 4.49878 2.56495 4.49878 2.49918C4.49878 2.43342 4.51175 2.3683 4.53696 2.30755C4.56217 2.24681 4.59911 2.19163 4.64567 2.14518Z" fill="#212529"/>
</g>
<defs>
<clipPath id="clip0_504_1054">
<rect width="16" height="16" fill="white" transform="translate(0 0.5)"/>
</clipPath>
</defs>
</svg>
