<svg width="17" height="16" viewBox="0 0 17 16" fill="none" xmlns="http://www.w3.org/2000/svg">
<path d="M9.42995 6.588L7.13995 6.875L7.05795 7.255L7.50795 7.338C7.80195 7.408 7.85995 7.514 7.79595 7.807L7.05795 11.275C6.86395 12.172 7.16295 12.594 7.86595 12.594C8.41095 12.594 9.04395 12.342 9.33095 11.996L9.41895 11.58C9.21895 11.756 8.92695 11.826 8.73295 11.826C8.45795 11.826 8.35795 11.633 8.42895 11.293L9.42995 6.588ZM9.49995 4.5C9.49995 4.76522 9.3946 5.01957 9.20706 5.20711C9.01952 5.39464 8.76517 5.5 8.49995 5.5C8.23474 5.5 7.98038 5.39464 7.79285 5.20711C7.60531 5.01957 7.49995 4.76522 7.49995 4.5C7.49995 4.23478 7.60531 3.98043 7.79285 3.79289C7.98038 3.60536 8.23474 3.5 8.49995 3.5C8.76517 3.5 9.01952 3.60536 9.20706 3.79289C9.3946 3.98043 9.49995 4.23478 9.49995 4.5Z" fill="#141619"/>
</svg>
